<svg id="Layer_1" data-name="Layer 1" xmlns="http://www.w3.org/2000/svg" viewBox="0 0 329.69 312.33"><defs><style>.cls-1{fill:#78f9ff;}</style></defs><title>Customer service</title><path d="M654.92,543.54,576,464.66A19.21,19.21,0,0,0,562.37,459H539.66a14.46,14.46,0,0,1-10.08-4.28A13.68,13.68,0,0,0,518,451a14.09,14.09,0,0,0-7.94,4.11l-4.26,4.27-80.76,80.76a14.88,14.88,0,0,0,0,21,14.26,14.26,0,0,1,4,8l3,20.9A19.49,19.49,0,0,0,437.52,601l23.16,23.16L552,532.92a19.43,19.43,0,0,1,11.47-5.71,18.92,18.92,0,0,1,15.68,5.43h0L622.46,576a23,23,0,0,0,32.46-32.46Z" transform="translate(-420.7 -450.84)"/><path d="M425.06,539.94a14.88,14.88,0,0,0,0,21,14.28,14.28,0,0,1,4,8l3,20.89a19.49,19.49,0,0,0,5.47,10.94L460.68,624l91.54-91.54a19,19,0,0,1,26.88,0l-73.28-73.29Z" transform="translate(-420.7 -450.84)"/><path class="cls-1" d="M748.26,545.33,662.1,459.16a7.57,7.57,0,0,0-9-1.15,1.49,1.49,0,0,0-.45.34l-12,12.21a8.25,8.25,0,0,1-4.7,2.37l-16.3,2.33a39.35,39.35,0,0,0-17.25,6.94l-5.53,3.95L453.68,630.09a23.23,23.23,0,0,0-5.17,24.8c.07.18.15.36.23.54a23.21,23.21,0,0,0,21.17,13.84,22.83,22.83,0,0,0,11.51-3.08.42.42,0,0,1,.57.58,23,23,0,0,0,31.38,31.37.42.42,0,0,1,.58.57,23.45,23.45,0,0,0-1.59,19.94c.07.19.14.37.22.55a23.2,23.2,0,0,0,21.23,14c4.23,0,12.37-4.15,17-6.7a1.31,1.31,0,0,1,1.85,1.64c-1.58,3.87-3.84,10-4,14.07-.33,6.33,3.66,12.16,9.22,15.35a4,4,0,0,0,.51.25,17.52,17.52,0,0,0,18-2L711.82,628.57l20.72-20.72a8.37,8.37,0,0,0,2.46-5.94V587.63a45,45,0,0,1,13.26-32,7.27,7.27,0,0,0,0-10.28Z" transform="translate(-420.7 -450.84)"/><path d="M602.9,763.17a20.14,20.14,0,0,1-14.33-5.92L560.43,729.1a20.28,20.28,0,0,1,0-28.64l.76-.76a20.28,20.28,0,0,1,28.64,0L618,727.84a20.28,20.28,0,0,1,0,28.65l-.75.75A20.09,20.09,0,0,1,602.9,763.17Z" transform="translate(-420.7 -450.84)"/><path d="M633.4,731.94A20.12,20.12,0,0,1,619.08,726l-28.14-28.14a20.29,20.29,0,0,1,0-28.65l.76-.75a20.26,20.26,0,0,1,28.64,0l28.14,28.14a20.26,20.26,0,0,1,0,28.64l-.75.76A20.13,20.13,0,0,1,633.4,731.94Z" transform="translate(-420.7 -450.84)"/><path d="M663.91,701.43a20.12,20.12,0,0,1-14.32-5.92l-28.14-28.14a20.27,20.27,0,0,1,0-28.65l.75-.75a20.27,20.27,0,0,1,28.65,0L679,666.11a20.28,20.28,0,0,1,0,28.64l-.76.76A20.1,20.1,0,0,1,663.91,701.43Z" transform="translate(-420.7 -450.84)"/><path d="M694.42,670.93A20.13,20.13,0,0,1,680.1,665L652,636.86a20.27,20.27,0,0,1,0-28.65l.75-.75a20.27,20.27,0,0,1,28.65,0L709.5,635.6a20.29,20.29,0,0,1,0,28.65l-.76.75A20.11,20.11,0,0,1,694.42,670.93Z" transform="translate(-420.7 -450.84)"/><path d="M622.46,576a23,23,0,0,0,32.46-32.46L576,464.66A19.21,19.21,0,0,0,562.37,459H539.66a14.46,14.46,0,0,1-10.08-4.28A13.68,13.68,0,0,0,518,451a14.09,14.09,0,0,0-7.94,4.11l-4.26,4.27,73.28,73.28h0Z" transform="translate(-420.7 -450.84)"/></svg>