<svg id="Layer_1" data-name="Layer 1" xmlns="http://www.w3.org/2000/svg" xmlns:xlink="http://www.w3.org/1999/xlink" viewBox="0 0 250.61 397.15"><defs><style>.cls-1{fill:url(#linear-gradient);}.cls-2{fill:url(#linear-gradient-2);}.cls-3{stroke-miterlimit:10;fill:url(#linear-gradient-3);stroke:url(#linear-gradient-4);}.cls-4{fill:url(#linear-gradient-5);}.cls-5{fill:url(#linear-gradient-6);}.cls-6{fill:url(#linear-gradient-7);}</style><linearGradient id="linear-gradient" x1="611" y1="599.67" x2="679.15" y2="599.67" gradientUnits="userSpaceOnUse"><stop offset="0" stop-color="aqua"/><stop offset="1"/></linearGradient><linearGradient id="linear-gradient-2" x1="527" y1="603.67" x2="595.15" y2="603.67" xlink:href="#linear-gradient"/><linearGradient id="linear-gradient-3" x1="51.84" y1="221.15" x2="156.84" y2="221.15" xlink:href="#linear-gradient"/><linearGradient id="linear-gradient-4" x1="51.34" y1="221.15" x2="157.34" y2="221.15" xlink:href="#linear-gradient"/><linearGradient id="linear-gradient-5" x1="500.16" y1="825.39" x2="708.84" y2="825.39" xlink:href="#linear-gradient"/><linearGradient id="linear-gradient-6" x1="673.01" y1="845.54" x2="750.51" y2="845.54" gradientTransform="translate(-541.78 -457.14) rotate(-2.99)" gradientUnits="userSpaceOnUse"><stop offset="0"/><stop offset="1"/></linearGradient><linearGradient id="linear-gradient-7" x1="669.73" y1="879.28" x2="688.73" y2="879.28" gradientTransform="translate(-74.3 70.56) rotate(-5.21)" xlink:href="#linear-gradient"/></defs><title>game profile</title><path class="cls-1" d="M611,701s40-216,64-202S611,701,611,701Z" transform="translate(-500.16 -498.35)"/><path class="cls-2" d="M595.15,705s-40-216-64-202S595.15,705,595.15,705Z" transform="translate(-500.16 -498.35)"/><circle class="cls-3" cx="104.34" cy="221.15" r="52.5"/><path class="cls-4" d="M708.84,869H500.16a106,106,0,0,1,208.68,0Z" transform="translate(-500.16 -498.35)"/><polygon class="cls-5" points="175.64 376.14 234.33 310.99 250.62 325.66 193.35 389.23 175.64 376.14"/><path class="cls-6" d="M672.9,889.35c4.8-2.45,4.35,3.62,4.35,3.62L692,889.61l-18.21-12.4Z" transform="translate(-500.16 -498.35)"/><polygon points="172.34 392.15 171.34 397.15 175.34 395.15 172.34 392.15"/></svg>