<svg id="Layer_1" data-name="Layer 1" xmlns="http://www.w3.org/2000/svg" xmlns:xlink="http://www.w3.org/1999/xlink" viewBox="0 0 288 288"><defs><style>.cls-1{fill:url(#linear-gradient);}.cls-2{fill:url(#linear-gradient-3);}.cls-3{fill:url(#linear-gradient-4);}.cls-4{fill:url(#linear-gradient-5);}</style><linearGradient id="linear-gradient" x1="353" y1="623" x2="641" y2="623" gradientUnits="userSpaceOnUse"><stop offset="0" stop-color="aqua"/><stop offset="0.14" stop-color="#00fbfb"/><stop offset="0.26" stop-color="#00f0f0"/><stop offset="0.39" stop-color="#0dd"/><stop offset="0.51" stop-color="#00c3c3"/><stop offset="0.63" stop-color="#00a1a1"/><stop offset="0.75" stop-color="#077"/><stop offset="0.86" stop-color="#004545"/><stop offset="0.98" stop-color="#000d0d"/><stop offset="1"/></linearGradient><linearGradient id="linear-gradient-3" x1="379.79" y1="636.04" x2="641" y2="636.04" xlink:href="#linear-gradient"/><linearGradient id="linear-gradient-4" x1="426.5" y1="623.09" x2="566.99" y2="623.09" xlink:href="#linear-gradient"/><linearGradient id="linear-gradient-5" x1="426.5" y1="615.68" x2="552.18" y2="615.68" xlink:href="#linear-gradient"/></defs><title>Setting colored</title><path class="cls-1" d="M641,647V604.77a7.77,7.77,0,0,0-7.77-7.77h0a30.18,30.18,0,0,1-27.87-18.79l-.15-.37a30.24,30.24,0,0,1,6.38-33.07,7.77,7.77,0,0,0,0-11l-25.36-25.36a7.76,7.76,0,0,0-11,0,30.26,30.26,0,0,1-33.09,6.39l-.5-.21A30.07,30.07,0,0,1,523,486.77h0a7.77,7.77,0,0,0-7.77-7.77H478.78a7.78,7.78,0,0,0-7.78,7.78h0a30.18,30.18,0,0,1-18.79,27.87l-.37.15a30.24,30.24,0,0,1-33.06-6.37,7.8,7.8,0,0,0-11,0l-25.35,25.35a7.78,7.78,0,0,0,0,11,30.26,30.26,0,0,1,6.39,33.09l-.15.36A30.18,30.18,0,0,1,360.78,597h0a7.78,7.78,0,0,0-7.78,7.78v36.45a7.77,7.77,0,0,0,7.77,7.77h0a30.18,30.18,0,0,1,27.87,18.79l.15.37a30.24,30.24,0,0,1-6.38,33.07,7.77,7.77,0,0,0,0,11l25.36,25.36a7.76,7.76,0,0,0,11,0,30.26,30.26,0,0,1,33.09-6.39l.5.21A30.07,30.07,0,0,1,471,759.23h0a7.77,7.77,0,0,0,7.77,7.77h42.31a1.92,1.92,0,0,0,1.92-1.92v-20.9a7.62,7.62,0,0,1,4.73-7l14.43-5.93a30.24,30.24,0,0,1,33.08,6.39,7.76,7.76,0,0,0,11,0l25.36-25.36a7.76,7.76,0,0,0,0-11,30.24,30.24,0,0,1-6.39-33.08l5.94-14.47a7.57,7.57,0,0,1,7-4.69H639A2,2,0,0,0,641,647Zm-144.26,17a41,41,0,1,1,41-41A41,41,0,0,1,496.74,664.06Z" transform="translate(-353 -479)"/><path class="cls-1" d="M641,647V604.77a7.77,7.77,0,0,0-7.77-7.77h0a30.18,30.18,0,0,1-27.87-18.79l-.15-.37a30.24,30.24,0,0,1,6.38-33.07,7.77,7.77,0,0,0,0-11l-25.36-25.36a7.76,7.76,0,0,0-11,0,30.26,30.26,0,0,1-33.09,6.39l-.5-.21A30.07,30.07,0,0,1,523,486.77h0a7.77,7.77,0,0,0-7.77-7.77H478.78a7.78,7.78,0,0,0-7.78,7.78h0a30.18,30.18,0,0,1-18.79,27.87l-.37.15a30.24,30.24,0,0,1-33.06-6.37,7.8,7.8,0,0,0-11,0l-25.35,25.35a7.78,7.78,0,0,0,0,11,30.26,30.26,0,0,1,6.39,33.09l-.15.36A30.18,30.18,0,0,1,360.78,597h0a7.78,7.78,0,0,0-7.78,7.78v36.45a7.77,7.77,0,0,0,7.77,7.77h0a30.18,30.18,0,0,1,27.87,18.79l.15.37a30.24,30.24,0,0,1-6.38,33.07,7.77,7.77,0,0,0,0,11l25.36,25.36a7.76,7.76,0,0,0,11,0,30.26,30.26,0,0,1,33.09-6.39l.5.21A30.07,30.07,0,0,1,471,759.23h0a7.77,7.77,0,0,0,7.77,7.77h42.31a1.92,1.92,0,0,0,1.92-1.92v-20.9a7.62,7.62,0,0,1,4.73-7l14.43-5.93a30.24,30.24,0,0,1,33.08,6.39,7.76,7.76,0,0,0,11,0l25.36-25.36a7.76,7.76,0,0,0,0-11,30.24,30.24,0,0,1-6.39-33.08l5.94-14.47a7.57,7.57,0,0,1,7-4.69H639A2,2,0,0,0,641,647Zm-144.26,17a41,41,0,1,1,41-41A41,41,0,0,1,496.74,664.06Z" transform="translate(-353 -479)"/><path class="cls-2" d="M418.6,738.59a30.18,30.18,0,0,1,33.18-6.44l.54.22A30.37,30.37,0,0,1,471,760.5v-1.28a7.78,7.78,0,0,0,7.78,7.78h36.44a7.78,7.78,0,0,0,7.78-7.78h0a30,30,0,0,1,18.83-27.8l.55-.22a30.85,30.85,0,0,1,33.46,6.39,7.92,7.92,0,0,0,11.12,0l25.65-25.36a7.71,7.71,0,0,0,0-11,30,30,0,0,1-6.46-33.08c.08-.18.15-.37.22-.55A30.38,30.38,0,0,1,634.5,649h-1.29a7.79,7.79,0,0,0,7.79-7.79V604.79a7.79,7.79,0,0,0-7.79-7.79h0a30.12,30.12,0,0,1-27.9-18.83l-.22-.54a30.78,30.78,0,0,1,6.41-33.47,7.92,7.92,0,0,0,0-11.12L586.05,507.4a7.77,7.77,0,0,0-11,0,30.1,30.1,0,0,1-7.67,5.62h0a136.18,136.18,0,0,1,21.19,71.91c0,71.89-58.23,130.59-129.56,130.59-25.75,0-51.05-8.51-71.22-21.57l0,0a30,30,0,0,1-5.72,8,7.84,7.84,0,0,0,.09,11l25.42,25.63A7.8,7.8,0,0,0,418.6,738.59Z" transform="translate(-353 -479)"/><path class="cls-3" d="M496.74,552.84A70.25,70.25,0,1,0,567,623.09,70.25,70.25,0,0,0,496.74,552.84Zm0,111.22a41,41,0,1,1,41-41A41,41,0,0,1,496.74,664.06Z" transform="translate(-353 -479)"/><path class="cls-4" d="M438.79,635.38a70.25,70.25,0,0,1,113.39-55.44,70.25,70.25,0,1,0-98.58,98.58A70,70,0,0,1,438.79,635.38Z" transform="translate(-353 -479)"/></svg>