<svg id="Layer_1" data-name="Layer 1" xmlns="http://www.w3.org/2000/svg" xmlns:xlink="http://www.w3.org/1999/xlink" viewBox="0 0 295 295"><defs><style>.cls-1{fill:#070100;stroke:#000;stroke-miterlimit:10;}.cls-1,.cls-6{opacity:0.9;}.cls-2{fill:url(#linear-gradient);}.cls-3{fill:url(#linear-gradient-2);}.cls-4{fill:url(#linear-gradient-3);}.cls-5{fill:url(#linear-gradient-4);}.cls-7{fill:url(#linear-gradient-5);}</style><linearGradient id="linear-gradient" x1="177.5" y1="46.5" x2="211.5" y2="46.5" gradientUnits="userSpaceOnUse"><stop offset="0" stop-color="aqua"/><stop offset="1"/></linearGradient><linearGradient id="linear-gradient-2" x1="78.5" y1="63.5" x2="112.5" y2="63.5" xlink:href="#linear-gradient"/><linearGradient id="linear-gradient-3" x1="38.5" y1="139.5" x2="72.5" y2="139.5" xlink:href="#linear-gradient"/><linearGradient id="linear-gradient-4" x1="79" y1="228" x2="113" y2="228" xlink:href="#linear-gradient"/><linearGradient id="linear-gradient-5" x1="590.47" y1="502.52" x2="623.59" y2="502.52" gradientTransform="translate(-150.29 189.45) rotate(-17.83)" xlink:href="#linear-gradient"/></defs><title>theme</title><path class="cls-1" d="M592.5,505.5q0,4.88-.32,9.68C576.75,496.32,554.6,484.5,530,484.5c-46.67,0-84.5,42.53-84.5,95,0,27.91,10.7,53,27.74,70.39A147,147,0,1,1,592.5,505.5Z" transform="translate(-298 -358)"/><circle class="cls-2" cx="194.5" cy="46.5" r="17"/><circle class="cls-3" cx="95.5" cy="63.5" r="17"/><circle class="cls-4" cx="55.5" cy="139.5" r="17"/><circle class="cls-5" cx="96" cy="228" r="17"/><polyline class="cls-6" points="201.42 294.62 280.2 141.12 270.77 136.28 193.92 286 204.28 293.7"/><path class="cls-7" d="M568.77,494.28s-2.38-13.94,13.19-21,9.92-11.6,9.92-11.6-2.3,38.56-14,38.12S568.77,494.28,568.77,494.28Z" transform="translate(-298 -358)"/></svg>