<svg id="Layer_1" data-name="Layer 1" xmlns="http://www.w3.org/2000/svg" xmlns:xlink="http://www.w3.org/1999/xlink" viewBox="0 0 339.5 336.33"><defs><style>.cls-1{fill:url(#linear-gradient);}.cls-2{fill:url(#linear-gradient-2);}.cls-3{fill:#fff;stroke-miterlimit:10;stroke-width:7px;stroke:url(#linear-gradient-3);}</style><linearGradient id="linear-gradient" x1="353.9" y1="628.3" x2="686" y2="628.3" gradientUnits="userSpaceOnUse"><stop offset="0" stop-color="aqua"/><stop offset="0.14" stop-color="#00fbfb"/><stop offset="0.26" stop-color="#00f0f0"/><stop offset="0.39" stop-color="#0dd"/><stop offset="0.51" stop-color="#00c3c3"/><stop offset="0.63" stop-color="#00a1a1"/><stop offset="0.75" stop-color="#077"/><stop offset="0.86" stop-color="#004545"/><stop offset="0.98" stop-color="#000d0d"/><stop offset="1"/></linearGradient><linearGradient id="linear-gradient-2" x1="6.9" y1="185.84" x2="293.47" y2="185.84" xlink:href="#linear-gradient"/><linearGradient id="linear-gradient-3" x1="346.5" y1="651.8" x2="608.42" y2="651.8" xlink:href="#linear-gradient"/></defs><title>Day Mood For sun</title><path class="cls-1" d="M595.06,750.79l3.21.38,2.81.33h0l3.13.37,42.42,5a5.76,5.76,0,0,0,3.33-.53,5.2,5.2,0,0,0,2.51-6.75l-18.59-41.94-2.29-5.18,5.31-1.7,45.21-14.45a5.51,5.51,0,0,0,2.77-1.84,5.13,5.13,0,0,0-.73-7.12l-37.74-32.12-2.19-1.87,2-1.82L682.66,608a5.17,5.17,0,0,0-2.19-8.94l-51.25-14.28L648.11,537a5.2,5.2,0,0,0,.27-3.23,5.53,5.53,0,0,0-6.23-4L589.46,538l-4.27-50.92a5.33,5.33,0,0,0-1.21-3,5.66,5.66,0,0,0-7.39-1l-43.94,29.09L506,467.91a5.54,5.54,0,0,0-2.45-2.24,5.65,5.65,0,0,0-7.12,2.14l-24.12,40.08-2.13,3.53-2.79,4.64-.24.41-1.35,2.24-2.44-1.35-.46-.26c-42.2,10.41-77,38.53-95.22,75.6l.12.24.78,1.58-1.86.67-.28.11a134.09,134.09,0,0,0-12.56,55.22l.37.29,4.12,3.24-4,3.93-.39.4A134.1,134.1,0,0,0,367,709.93l1.22.28,7.6,1.81-2.57,7.36-.48,1.36a141.87,141.87,0,0,0,33.74,38.63l2.23-.44,8.71-1.69,1.07,8.55.29,2.36a147.81,147.81,0,0,0,47.05,19.58l2.19-1.58,7.21-5.18,4.94,7.27,1.49,2.18a153.17,153.17,0,0,0,51.29-2.75l1-1.76,4.12-7.29,7.12,4.33,1.48.9q4-1.32,7.89-2.87a146.66,146.66,0,0,0,38.9-22.79v-.3l.1-2.23.2-4.57" transform="translate(-346.5 -465.17)"/><ellipse class="cls-2" cx="150.19" cy="185.84" rx="143.29" ry="142.02"/><path class="cls-3" d="M598,747.16q-3.87,4.67-8.12,9h0l0,.06c-2.36,2.41-4.82,4.73-7.34,6.95a140.07,140.07,0,0,1-45.42,26.9,137.24,137.24,0,0,1-78.45,4.07A137.85,137.85,0,0,1,413,773.59a141.27,141.27,0,0,1-11.93-9.2,145.77,145.77,0,0,1-32.75-40.49q-3-5.52-5.6-11.34a149.74,149.74,0,0,1-12.54-54c-.09-2.19-.14-4.4-.14-6.61,0-.54,0-1.09,0-1.63A149.93,149.93,0,0,1,362.2,592.4c.39-.91.79-1.82,1.2-2.72,17.7-38.86,51.45-68.34,92.4-79.25,1.44-.39,2.9-.75,4.36-1.09a136.67,136.67,0,0,1,24-3.34l-.2.24c-58.85,73.33-63.62,170.61-9.73,220.12C506.48,756,552.61,762,598,747.16Z" transform="translate(-346.5 -465.17)"/></svg>