<svg xmlns="http://www.w3.org/2000/svg" viewBox="0 0 31.01 29.4"><g id="Layer_2" data-name="Layer 2"><g id="Layer_1-2" data-name="Layer 1"><path d="M26.15,16.65c-1.33,1.46-3.73,1.53-5.79.3-.49.44-1,.87-1.58,1.28a24.4,24.4,0,0,1-2.21,1.44c1,2.41.49,5-1.34,6.06-2,1.17-4.91,0-6.42-2.61a6.53,6.53,0,0,1-.9-3.43h0c-.24-2.12,2.09-5.53,5.83-8.29A19.72,19.72,0,0,1,19,8.55h0a11.55,11.55,0,0,1,1.55-.41h0a5.89,5.89,0,0,1,3.89,1.3h0l.47.38C27.19,11.85,27.73,14.91,26.15,16.65Z" fill="red"/><path d="M28.18,14c-1.94,2.14-5.44,2.24-8.45.44-.73.64-1.5,1.27-2.32,1.87a31.66,31.66,0,0,1-3.23,2.1c1.49,3.53.72,7.32-2,8.87-3,1.71-7.17,0-9.38-3.82a9.58,9.58,0,0,1-1.32-5h0c-.34-3.11,3.05-8.09,8.53-12.12a28.66,28.66,0,0,1,7.74-4.16h0a16.45,16.45,0,0,1,2.26-.59h0a8.71,8.71,0,0,1,5.68,1.9h0c.23.18.46.37.68.57C29.71,6.94,30.49,11.41,28.18,14Z" fill="none" stroke="#000" stroke-miterlimit="10" stroke-width="3"/><circle cx="23.3" cy="6.9" r="0.25" fill="none" stroke="#000" stroke-miterlimit="10" stroke-width="2"/><circle cx="19.36" cy="7.39" r="0.25" fill="none" stroke="#000" stroke-miterlimit="10" stroke-width="2"/><rect x="4.35" y="16.5" width="4.92" height="1.48" transform="translate(-10.19 9.87) rotate(-45)"/><rect x="4.35" y="16.5" width="4.92" height="1.48" transform="translate(14.18 0.23) rotate(45)"/></g></g></svg>