<svg xmlns="http://www.w3.org/2000/svg" viewBox="0 0 31 30.78"><g id="Layer_2" data-name="Layer 2"><g id="Layer_1-2" data-name="Layer 1"><path d="M23.26,13A7.76,7.76,0,1,1,15.5,5.25,7.75,7.75,0,0,1,23.26,13Z" fill="none" stroke="#000" stroke-miterlimit="10" stroke-width="3"/><path d="M4,9.44A12,12,0,0,1,27,9.44" fill="none" stroke="#000" stroke-miterlimit="10" stroke-width="2"/><path d="M25.84,29.81a15.1,15.1,0,0,0-7-5.28,10.17,10.17,0,0,0-6.36.1,17.91,17.91,0,0,0-7.34,5.18" fill="none" stroke="#000" stroke-miterlimit="10" stroke-width="3"/><polyline points="27.19 15.73 26.19 15.73 26.19 9.44 26.37 9.44 26.96 9.44 30 9.44 30 15.73 27.19 15.73" fill="none" stroke="#000" stroke-miterlimit="10" stroke-width="2"/><rect x="1" y="9.44" width="3.81" height="6.29" fill="none" stroke="#000" stroke-miterlimit="10" stroke-width="2"/><line x1="26.19" y1="14.76" x2="18" y2="17.31" fill="none" stroke="#000" stroke-miterlimit="10" stroke-width="2"/></g></g></svg>