<?xml version="1.0" encoding="utf-8"?>
<!-- Generator: Adobe Illustrator 24.1.2, SVG Export Plug-In . SVG Version: 6.00 Build 0)  -->
<svg version="1.0" id="Layer_1" xmlns="http://www.w3.org/2000/svg" xmlns:xlink="http://www.w3.org/1999/xlink" x="0px" y="0px"
	 viewBox="0 0 739 695.6" style="enable-background:new 0 0 739 695.6;" xml:space="preserve">
<style type="text/css">
	.st0{fill:none;stroke:#000000;stroke-width:6;stroke-miterlimit:10;}
	.st1{fill:none;stroke:#000000;stroke-width:12;stroke-miterlimit:10;}
	.st2{fill:#FFFFFF;stroke:#000000;stroke-width:12;stroke-miterlimit:10;}
</style>
<ellipse class="st0" cx="3299.3" cy="407.8" rx="60.5" ry="48.3"/>
<path class="st0" d="M3336.4,369.7l53.6-38.1c0,0-98.7-53.4-165.5,0l-50.9-57.2c0,0,121-108,256.3,0l46.2-40.6
	c0,0-166.4-151.8-356.6,0"/>
<path class="st1" d="M356,182.3c-1.6-1.5-3.4-2.9-5.2-4.1l-0.1-0.1l-0.1-0.1c-16.8-11.2-39.1-9.1-53.5,5l-92.3,90.6l-0.1,0.1
	L94.4,382l-51.2-50.5c-6.5-6.4-10.8-14.7-12.1-23.7l-6.6-45.5c-1-6.6-4.1-12.7-8.9-17.4C3,232.5,2.8,212.3,15.1,199.7l0.5-0.5
	L194.4,23.6l0.5,0.5"/>
<path class="st2" d="M356.7,182.9L356.7,182.9l-0.7-0.7L356.7,182.9z"/>
<path class="st1" d="M395.9,81.5l1.3-1.4l12.1-8.6c11.1-8,24-13.1,37.6-15.1l35.5-5.1c3.9-0.5,7.5-2.3,10.2-5.1l26.1-26.6l0.8-0.6
	c6.4-3.7,14.5-2.7,19.8,2.4l183.2,187.8v0.1c10.7,6.2,10.7,16.2,4.5,22.4c-18.5,18.5-28.9,43.6-30.9,69.7v31.1
	c2,4.9,0.2,9.5-3.2,13.1l-45.1,45.1l-14.7,13.8"/>
<line class="st1" x1="497.1" y1="532.4" x2="496.2" y2="533.2"/>
<path class="st1" d="M204.9,273.6L204.9,273.6L85.2,393.8C71,408.1,66.6,429.4,74,448l0.5,1.1c8,18.3,26.1,30.1,46.1,30.2
	c8.8,0.1,17.4-2.2,25-6.7c0.5-0.2,1.1-0.1,1.3,0.4c0.1,0.3,0.1,0.6,0,0.9c-13.6,24.1-5,54.6,19.1,68.2c15.3,8.6,34,8.6,49.2-0.1
	c0.4-0.3,1-0.1,1.2,0.3c0,0,0,0,0,0c0.2,0.3,0.2,0.6,0,0.9c-7.6,13.2-8.8,29.2-3.4,43.4c0.1,0.4,0.2,0.8,0.5,1.2
	c8,18.5,26.1,30.5,46.3,30.5c9.2,0,26.9-9.1,37.1-14.7c1.3-0.8,3.1-0.5,3.9,0.8c0.5,0.8,0.6,1.9,0.2,2.8c-3.4,8.3-8.3,21.8-8.7,30.7
	c0,14,7.7,26.9,20.1,33.4c0.4,0.2,0.8,0.4,1.1,0.5c12.8,6,27.9,4.4,39.2-4.1l6.5-6.1"/>
<line class="st1" x1="429.9" y1="595.5" x2="426.5" y2="598.7"/>
<line class="st1" x1="565.9" y1="467.7" x2="563.4" y2="470.1"/>
<path class="st1" d="M405.7,689.6c-11.9,0.1-23.3-4.7-31.7-13.1l-62.4-62.4c-17.5-17.5-17.5-45.9,0-63.5l1.7-1.7
	c17.5-17.5,45.9-17.5,63.5,0l62.5,62.4c17.5,17.5,17.5,45.9,0,63.5l-1.7,1.7C429.1,685,417.7,689.7,405.7,689.6z"/>
<path class="st1" d="M473.3,620.4c-11.9,0-23.3-4.7-31.7-13.2l-62.4-62.4c-17.5-17.5-17.5-45.9,0-63.5l1.7-1.7
	c17.5-17.5,45.9-17.5,63.5,0l62.4,62.4c17.5,17.5,17.5,45.9,0,63.5l0,0l-1.7,1.7C496.7,615.7,485.3,620.4,473.3,620.4z"/>
<path class="st1" d="M534.4,552.7c-11.9,0.1-23.4-4.7-31.7-13.1l-62.4-62.4c-17.5-17.6-17.5-46,0-63.5l1.7-1.7
	c17.5-17.5,46-17.5,63.5,0l0,0l62.4,62.4c17.5,17.6,17.5,45.9,0,63.5l-1.7,1.7C557.8,548.1,546.3,552.8,534.4,552.7z"/>
<path class="st1" d="M602,485.2c-11.9,0-23.4-4.7-31.8-13.1L508,409.6c-17.5-17.6-17.5-46,0-63.5l1.7-1.6
	c17.5-17.5,45.9-17.5,63.5,0l62.3,62.3c17.5,17.5,17.5,45.9,0,63.5l-1.7,1.7C625.4,480.4,614,485.2,602,485.2z"/>
<path class="st1" d="M350.6,178L350.6,178l0.2,0.1l5.8,5.7l96,94.2c21.2,18.3,53.2,16.3,71.9-4.5c16.7-18.7,16.7-47,0-65.8
	L395.9,81.5l-46.1-45.3c-8.1-7.9-18.9-12.4-30.2-12.3h-50.3c-8.3-0.1-16.3-3.5-22.3-9.3C240.2,8,230.7,5,221.4,6.3
	c-6.7,1.1-12.8,4.2-17.5,9l-8.9,8.7"/>
</svg>
