<svg id="Layer_1" data-name="Layer 1" xmlns="http://www.w3.org/2000/svg" viewBox="0 0 181.84 171.91"><defs><style>.cls-1{fill:#fff;}.cls-1,.cls-2{stroke:#000;stroke-miterlimit:10;stroke-width:6px;}.cls-2{fill:none;}</style></defs><title>Customer service</title><path class="cls-1" d="M326.94,463.17l39.15,38.45a10.32,10.32,0,0,0-14.26.16L302.72,550,290.3,537.76a10.18,10.18,0,0,1-2.93-5.76l-1.61-11a7.47,7.47,0,0,0-2.15-4.21,7.74,7.74,0,0,1,0-11.06Z" transform="translate(-278.29 -455.62)"/><path class="cls-1" d="M366.25,501.77h0l-.16-.16Z" transform="translate(-278.29 -455.62)"/><path class="cls-2" d="M456,508.11l-45.48-45.49a4,4,0,0,0-4.79-.58l-.2.16-6.34,6.44a4.31,4.31,0,0,1-2.48,1.25l-8.6,1.23a20.71,20.71,0,0,0-9.11,3.67l-2.92,2.08-75.59,76A12.26,12.26,0,0,0,297.76,566l.12.28a12.26,12.26,0,0,0,11.18,7.31,11.89,11.89,0,0,0,6.07-1.63.23.23,0,0,1,.31.09.22.22,0,0,1,0,.22A12.14,12.14,0,0,0,332,588.78a.23.23,0,0,1,.31.08.22.22,0,0,1,0,.22,12.36,12.36,0,0,0-.84,10.53c0,.1.07.19.11.29a12.26,12.26,0,0,0,11.21,7.39c2.23,0,6.53-2.19,9-3.54a.69.69,0,0,1,1,.87c-.83,2-2,5.28-2.11,7.43a9.12,9.12,0,0,0,4.87,8.1,1.69,1.69,0,0,0,.27.13,9.26,9.26,0,0,0,9.5-1l71.49-67.17,10.94-10.94A4.44,4.44,0,0,0,449,538v-7.54a23.78,23.78,0,0,1,7-16.89,3.84,3.84,0,0,0,0-5.43Z" transform="translate(-278.29 -455.62)"/><path class="cls-1" d="M378.13,624.53a10.76,10.76,0,0,1-7.69-3.18l-15.12-15.12a10.89,10.89,0,0,1,0-15.38l.41-.41a10.89,10.89,0,0,1,15.38,0l15.13,15.12a10.89,10.89,0,0,1,0,15.38l-.4.41A10.78,10.78,0,0,1,378.13,624.53Z" transform="translate(-278.29 -455.62)"/><path class="cls-1" d="M394.51,607.76a10.8,10.8,0,0,1-7.69-3.19l-15.11-15.12a10.89,10.89,0,0,1,0-15.38l.41-.41a10.89,10.89,0,0,1,15.38,0l15.11,15.12a10.87,10.87,0,0,1,0,15.38l-.4.41A10.81,10.81,0,0,1,394.51,607.76Z" transform="translate(-278.29 -455.62)"/><path class="cls-1" d="M410.9,591.37a10.76,10.76,0,0,1-7.69-3.18l-15.12-15.11a10.9,10.9,0,0,1,0-15.39l.41-.4a10.88,10.88,0,0,1,15.39,0L419,572.4a10.89,10.89,0,0,1,0,15.38l-.4.41A10.8,10.8,0,0,1,410.9,591.37Z" transform="translate(-278.29 -455.62)"/><path class="cls-1" d="M427.29,575a10.84,10.84,0,0,1-7.7-3.18L404.5,556.69a10.9,10.9,0,0,1,0-15.39l.41-.4a10.89,10.89,0,0,1,15.38,0L435.39,556a10.89,10.89,0,0,1,0,15.38l-.41.41A10.83,10.83,0,0,1,427.29,575Z" transform="translate(-278.29 -455.62)"/><path class="cls-1" d="M406.93,523.45a12.5,12.5,0,0,1-17.42,1.1l-23.27-22.83-39.31-38.6,2.28-2.25a7.63,7.63,0,0,1,4.26-2.17,7.47,7.47,0,0,1,6.22,2,7.83,7.83,0,0,0,5.4,2.26h12.19a10.38,10.38,0,0,1,7.31,3l42.34,41.55A12,12,0,0,1,406.93,523.45Z" transform="translate(-278.29 -455.62)"/></svg>