<svg xmlns="http://www.w3.org/2000/svg" viewBox="0 0 30 30"><g id="Layer_2" data-name="Layer 2"><g id="Layer_1-2" data-name="Layer 1"><path d="M18.17,12.35a2.47,2.47,0,0,0,.38.28A2,2,0,0,1,18.17,12.35Z" fill="#765c43"/><path d="M18.55,12.63h0Z" fill="#765c43"/><path d="M18.57,12.64a1.28,1.28,0,0,0,.42.17l-.24-.08A1,1,0,0,1,18.57,12.64Z" fill="#765c43"/><path d="M14.21,2.61l6.16,6.44-6.1-6.37a1.56,1.56,0,0,0-1.12-.49h.08A1.35,1.35,0,0,1,14.21,2.61Z" fill="#765c43"/><path d="M21.24,10.27A1.88,1.88,0,0,0,21,9.72a1.76,1.76,0,0,1,.24.42A.61.61,0,0,1,21.24,10.27Z" fill="#765c43"/><path d="M20.83,9.54l.14.18A1.1,1.1,0,0,0,20.83,9.54Z" fill="#765c43"/><path d="M8.53,2.19l0,.05-6.65,7a1,1,0,0,0-.22.31,1.5,1.5,0,0,0-.12.54v0a1.32,1.32,0,0,1,.36-.91l6.63-7Z" fill="#765c43"/><path d="M16.16,4.66l.14-.11A3,3,0,0,1,17.72,4l.51-.08a3.1,3.1,0,0,0,1.8-1l.34-.36a.6.6,0,0,1,.85,0L28.33,10a.66.66,0,0,1,.17.45.62.62,0,0,1-.16.43,3.91,3.91,0,0,0-1.1,2.58v.34a3.41,3.41,0,0,1-.93,2.38l-1,1-.11.12" fill="none" stroke="#000" stroke-miterlimit="10" stroke-width="3"/><line x1="20.15" y1="22.31" x2="20.06" y2="22.4" fill="none" stroke="#e8c684" stroke-miterlimit="10" stroke-width="3"/><path d="M12.65,8.29,4.1,17.36A2,2,0,0,0,3.56,19,2.08,2.08,0,0,0,4,20a1.85,1.85,0,0,0,1.49.77,2,2,0,0,0,.65-.12.17.17,0,0,1,.21.21,2,2,0,0,0-.11.68,2,2,0,0,0,.55,1.4,1.82,1.82,0,0,0,1.34.58,1.78,1.78,0,0,0,.65-.12.16.16,0,0,1,.2.21,2.27,2.27,0,0,0-.1.94,2.14,2.14,0,0,0,.38.95,1.83,1.83,0,0,0,1.51.77,4.05,4.05,0,0,0,1.39-.58.11.11,0,0,1,.15.14A4.91,4.91,0,0,0,11.93,27a1.43,1.43,0,0,0,.42,1.05,1.42,1.42,0,0,0,.77.41,1.33,1.33,0,0,0,1.09-.29l.74-.73" fill="none" stroke="#000" stroke-miterlimit="10" stroke-width="3"/><line x1="17.56" y1="24.87" x2="17.44" y2="24.99" fill="none" stroke="#000" stroke-miterlimit="10" stroke-width="3"/><line x1="22.73" y1="19.75" x2="22.64" y2="19.85" fill="none" stroke="#e8c684" stroke-miterlimit="10" stroke-width="3"/><path d="M18.27,26.57a1.85,1.85,0,0,1-.49,1.25l-.06.06a1.63,1.63,0,0,1-2.36,0L13,25.46a1.76,1.76,0,0,1-.49-1.23A1.84,1.84,0,0,1,13,23l.07-.06a1.65,1.65,0,0,1,1.17-.52,1.58,1.58,0,0,1,1.18.52l2.32,2.42A1.81,1.81,0,0,1,18.27,26.57Z" fill="none" stroke="#000" stroke-miterlimit="10" stroke-width="2"/><path d="M20.77,23.87a1.8,1.8,0,0,1-.48,1.24l-.07.07a1.6,1.6,0,0,1-1.17.51,1.64,1.64,0,0,1-1.19-.51l-2.32-2.42a1.81,1.81,0,0,1-.49-1.24,1.76,1.76,0,0,1,.49-1.24l.06-.06a1.58,1.58,0,0,1,1.18-.52,1.64,1.64,0,0,1,1.18.51l2.32,2.42A1.81,1.81,0,0,1,20.77,23.87Z" fill="none" stroke="#000" stroke-miterlimit="10" stroke-width="2"/><path d="M23.27,21.23a1.8,1.8,0,0,1-.48,1.24l-.06.06a1.59,1.59,0,0,1-1.18.52,1.62,1.62,0,0,1-1.18-.51l-2.32-2.43a1.72,1.72,0,0,1-.49-1.23A1.8,1.8,0,0,1,18,17.64l.06-.07a1.68,1.68,0,0,1,1.18-.51,1.6,1.6,0,0,1,1.18.51L22.78,20A1.72,1.72,0,0,1,23.27,21.23Z" fill="none" stroke="#000" stroke-miterlimit="10" stroke-width="2"/><path d="M25.78,18.59a1.76,1.76,0,0,1-.49,1.24l-.06.06a1.63,1.63,0,0,1-2.36,0l-2.32-2.43a1.8,1.8,0,0,1-.49-1.23A1.76,1.76,0,0,1,20.55,15l.06-.07a1.6,1.6,0,0,1,1.18-.51,1.64,1.64,0,0,1,1.18.51l2.32,2.42A1.81,1.81,0,0,1,25.78,18.59Z" fill="none" stroke="#000" stroke-miterlimit="10" stroke-width="2"/><path d="M20.78,12.28a1.81,1.81,0,0,1-1.52.57h-.1l-.16,0h0a1.82,1.82,0,0,1-.82-.46l-.09-.1-3.54-3.7a1.54,1.54,0,0,0-1.7-.36,1.42,1.42,0,0,0-.5.35l-7.53,8-2-2a1.5,1.5,0,0,1-.39-.81l-.28-2a1,1,0,0,0-.29-.55,1.25,1.25,0,0,1-.38-.89.22.22,0,0,0,0-.08,1.5,1.5,0,0,1,.12-.54,1,1,0,0,1,.22-.31l6.65-7,.37-.39a1.08,1.08,0,0,1,.8-.35,1,1,0,0,1,.38.07l.08,0,.16.1.09.06a.34.34,0,0,1,.06.06l.07.07a.93.93,0,0,0,.71.31h1.94a1.56,1.56,0,0,1,1.12.49l6.1,6.37.37.39.09.1a1.89,1.89,0,0,1,.41.73.35.35,0,0,1,0,.11v0l0,.16a.49.49,0,0,1,0,.12A2,2,0,0,1,20.78,12.28Z" fill="none" stroke="#000" stroke-miterlimit="10" stroke-width="3"/></g></g></svg>