<svg id="Layer_1" data-name="Layer 1" xmlns="http://www.w3.org/2000/svg" viewBox="0 0 699.72 699.72"><title>Day Mood</title><circle cx="349.86" cy="349.86" r="349.86" fill="#fff"/><path d="M234.44,581.51a350.61,350.61,0,0,1-8.66-77.68C225.78,310.61,382.42,154,575.64,154S925.5,310.61,925.5,503.83a350,350,0,0,1-8.66,77.68c-35.32-155.84-174.67-272.18-341.2-272.18S269.76,425.67,234.44,581.51Z" transform="translate(-225.78 -153.97)"/><path d="M242.64,515.27s18.06-44.56,24.09-48.17-34.93,8.43-34.93,8.43Z" transform="translate(-225.78 -153.97)" fill="#fff"/><path d="M274.34,452.7s23.9-41.73,30.35-44.5S269,411.86,269,411.86Z" transform="translate(-225.78 -153.97)" fill="#fff"/><path d="M316.61,396.64s30.09-37.5,36.9-39.24-35.88-1.94-35.88-1.94Z" transform="translate(-225.78 -153.97)" fill="#fff"/><path d="M369.19,350.06s39-28.09,46.05-27.94-34.05-11.47-34.05-11.47Z" transform="translate(-225.78 -153.97)" fill="#fff"/><path d="M436.59,316s42.88-21.74,49.8-20.51-31.88-16.58-31.88-16.58Z" transform="translate(-225.78 -153.97)" fill="#fff"/><path d="M508.86,292s47.33-8.51,53.6-5.35-25.78-25-25.78-25Z" transform="translate(-225.78 -153.97)" fill="#fff"/><path d="M577.61,288.48s47.93,3.8,53.19,8.46-18.56-30.77-18.56-30.77Z" transform="translate(-225.78 -153.97)" fill="#fff"/><path d="M653.38,298.18s46.83,10.94,51.33,16.33S691,281.31,691,281.31Z" transform="translate(-225.78 -153.97)" fill="#fff"/><path d="M725.27,323s44.42,18.41,48,24.46-8.16-35-8.16-35Z" transform="translate(-225.78 -153.97)" fill="#fff"/><path d="M789.2,356.87s41.25,24.71,43.89,31.22-3-35.81-3-35.81Z" transform="translate(-225.78 -153.97)" fill="#fff"/><path d="M845.89,401.64s33.09,34.89,33.89,41.87,6.78-35.28,6.78-35.28Z" transform="translate(-225.78 -153.97)" fill="#fff"/><path d="M880.93,458.28s25.33,40.87,24.7,47.86S919.42,473,919.42,473Z" transform="translate(-225.78 -153.97)" fill="#fff"/></svg>