<svg xmlns="http://www.w3.org/2000/svg" viewBox="0 0 31.95 32.6"><g id="Layer_2" data-name="Layer 2"><g id="Layer_1-2" data-name="Layer 1"><circle cx="18.11" cy="16.22" r="5.14" fill="#8a3e94"/><path d="M20.77,12a1.26,1.26,0,0,1,1.57-.91C23.59,11.4,24,9.75,24,9.75" fill="#8a3e94"/><path d="M22.49,14.13a1.25,1.25,0,0,1,1.57-.91c1.24.33,1.68-1.33,1.68-1.33" fill="#8a3e94"/><path d="M23,16a1.26,1.26,0,0,1,1.8-.26c1,.77,2.06-.6,2.06-.6" fill="#8a3e94"/><path d="M22.51,17.9a1.26,1.26,0,0,1,1.68.68c.5,1.19,2.08.53,2.08.53" fill="#8a3e94"/><path d="M21.6,19.71A1.26,1.26,0,0,1,23,20.86c.13,1.28,1.83,1.1,1.83,1.1" fill="#8a3e94"/><path d="M19.86,21.12a1.26,1.26,0,0,1-.05,1.82c-.93.88.25,2.12.25,2.12" fill="#8a3e94"/><path d="M17.14,21.46a1.25,1.25,0,0,1-.05,1.81c-.93.89.25,2.13.25,2.13" fill="#8a3e94"/><path d="M15.24,20.94a1.25,1.25,0,0,1-.72,1.67c-1.19.48-.56,2.07-.56,2.07" fill="#8a3e94"/><path d="M13.92,19.5a1.26,1.26,0,0,1-1.47,1.07c-1.27-.19-1.53,1.5-1.53,1.5" fill="#8a3e94"/><path d="M12.85,17.77a1.26,1.26,0,0,1-1.72.6c-1.16-.55-1.9,1-1.9,1" fill="#8a3e94"/><path d="M12.71,15.76a1.26,1.26,0,0,1-1.6-.87c-.36-1.24-2-.76-2-.76" fill="#8a3e94"/><path d="M13.65,13.19s-1.23.36-1.51-.62-1.93-.49-1.93-.49" fill="#8a3e94"/><path d="M15,11.73a1.26,1.26,0,0,1-1.16-1.4c.13-1.28-1.58-1.45-1.58-1.45" fill="#8a3e94"/><path d="M16.87,11.22a1.26,1.26,0,0,1-.28-1.8c.75-1-.63-2-.63-2" fill="#8a3e94"/><path d="M18.89,11.06a1.26,1.26,0,0,1,.25-1.8c1-.78,0-2.15,0-2.15" fill="#8a3e94"/><circle cx="16.11" cy="16.2" r="8.8" fill="none" stroke="#000" stroke-miterlimit="10" stroke-width="3"/><path d="M20.66,8.94a2.16,2.16,0,0,1,2.69-1.56c2.13.57,2.89-2.27,2.89-2.27" fill="none" stroke="#000" stroke-miterlimit="10" stroke-width="2"/><path d="M23.59,12.61a2.16,2.16,0,0,1,2.7-1.56c2.12.57,2.88-2.27,2.88-2.27" fill="none" stroke="#000" stroke-miterlimit="10" stroke-width="2"/><path d="M24.55,15.84a2.15,2.15,0,0,1,3.08-.45c1.76,1.32,3.52-1,3.52-1" fill="none" stroke="#000" stroke-miterlimit="10" stroke-width="2"/><path d="M23.63,19.06a2.16,2.16,0,0,1,2.88,1.18c.85,2,3.56.89,3.56.89" fill="none" stroke="#000" stroke-miterlimit="10" stroke-width="2"/><path d="M22.07,22.17a2.16,2.16,0,0,1,2.41,2c.23,2.18,3.15,1.89,3.15,1.89" fill="none" stroke="#000" stroke-miterlimit="10" stroke-width="2"/><path d="M19.1,24.58A2.15,2.15,0,0,1,19,27.69c-1.59,1.52.43,3.64.43,3.64" fill="none" stroke="#000" stroke-miterlimit="10" stroke-width="2"/><path d="M14.44,25.16a2.15,2.15,0,0,1-.08,3.11c-1.6,1.51.42,3.64.42,3.64" fill="none" stroke="#000" stroke-miterlimit="10" stroke-width="2"/><path d="M11.19,24.28A2.15,2.15,0,0,1,10,27.14c-2.05.81-1,3.54-1,3.54" fill="none" stroke="#000" stroke-miterlimit="10" stroke-width="2"/><path d="M8.93,21.81a2.17,2.17,0,0,1-2.52,1.84c-2.17-.34-2.62,2.56-2.62,2.56" fill="none" stroke="#000" stroke-miterlimit="10" stroke-width="2"/><path d="M7.1,18.85a2.16,2.16,0,0,1-2.94,1c-2-1-3.26,1.69-3.26,1.69" fill="none" stroke="#000" stroke-miterlimit="10" stroke-width="2"/><path d="M6.86,15.41a2.15,2.15,0,0,1-2.73-1.5C3.51,11.8.69,12.62.69,12.62" fill="none" stroke="#000" stroke-miterlimit="10" stroke-width="2"/><path d="M8.48,11A2.15,2.15,0,0,1,5.75,9.5C5.13,7.39,2.31,8.21,2.31,8.21" fill="none" stroke="#000" stroke-miterlimit="10" stroke-width="2"/><path d="M10.74,8.51a2.14,2.14,0,0,1-2-2.4C9,3.92,6.06,3.63,6.06,3.63" fill="none" stroke="#000" stroke-miterlimit="10" stroke-width="2"/><path d="M14,7.63a2.17,2.17,0,0,1-.49-3.08c1.3-1.78-1.07-3.5-1.07-3.5" fill="none" stroke="#000" stroke-miterlimit="10" stroke-width="2"/><path d="M17.44,7.35a2.16,2.16,0,0,1,.43-3.08C19.63,3,17.87.6,17.87.6" fill="none" stroke="#000" stroke-miterlimit="10" stroke-width="2"/></g></g></svg>