<svg id="Layer_1" data-name="Layer 1" xmlns="http://www.w3.org/2000/svg" viewBox="0 0 806.74 454.63"><title>Game catagories</title><path d="M277.5,215.5" transform="translate(-171.26 -272.02)" fill="none" stroke="#000" stroke-miterlimit="10"/><path d="M889.17,717.62c-71.85,20-157.3-61.52-190.86-182.07-1-3.7-2-7.43-2.9-11.12H453.85Q452.5,530,451,535.55c-33.57,120.55-119,202.08-190.85,182.07s-102.87-133.94-69.32-254.5c12.59-45.23,32.49-85,56.22-115.89a234,234,0,0,1,30.88-33.38c33-29.12,69.91-42.23,103.76-32.81a83,83,0,0,1,23.25,10.58H744.35A82.71,82.71,0,0,1,767.61,281c29.6-8.24,61.49.74,91.12,22.58,20.84,15.36,40.59,37.11,57.58,63.69,17.52,27.37,32.14,59.85,42.15,95.81C992,583.68,961,697.63,889.17,717.62Z" transform="translate(-171.26 -272.02)" fill="none" stroke="#000" stroke-miterlimit="10" stroke-width="12"/><circle cx="580.88" cy="142.99" r="27.16" fill="none" stroke="#000" stroke-miterlimit="10" stroke-width="12"/><circle cx="698.84" cy="142.99" r="27.16" fill="none" stroke="#000" stroke-miterlimit="10" stroke-width="12"/><circle cx="639.86" cy="85.57" r="27.16" fill="none" stroke="#000" stroke-miterlimit="10" stroke-width="12"/><circle cx="639.86" cy="203.52" r="27.16" fill="none" stroke="#000" stroke-miterlimit="10" stroke-width="12"/><polygon points="150.19 58.41 195.2 58.41 195.2 91 171.92 114.28 149.42 91.77 150.19 58.41" fill="none" stroke="#000" stroke-miterlimit="10" stroke-width="12"/><polygon points="150.19 201.19 195.2 201.19 195.2 168.6 171.92 145.32 149.42 167.82 150.19 201.19" fill="none" stroke="#000" stroke-miterlimit="10" stroke-width="12"/><polygon points="249.52 151.53 249.52 106.52 216.93 106.52 193.65 129.8 216.15 152.3 249.52 151.53" fill="none" stroke="#000" stroke-miterlimit="10" stroke-width="12"/><polygon points="94.32 108.07 94.32 153.08 126.91 153.08 150.19 129.8 127.69 107.29 94.32 108.07" fill="none" stroke="#000" stroke-miterlimit="10" stroke-width="12"/></svg>