<svg xmlns="http://www.w3.org/2000/svg" viewBox="0 0 31.41 28"><g id="Layer_2" data-name="Layer 2"><g id="Layer_1-2" data-name="Layer 1"><path d="M19.2,21.88h4c-.42,1.71-1.6,2.95-3,2.95h-9.7c-1.75,0-3.16-1.91-3.16-4.27V7.44c0-2.36,1.41-4.27,3.16-4.27h9.7c1.41,0,2.59,1.24,3,3h-4C17.45,6.12,16,8,16,10.4v7.2C16,20,17.45,21.88,19.2,21.88Z" fill="#d2272c"/><path d="M17.73,23.09h5.41A4.43,4.43,0,0,1,19,26.5H5.81c-2.38,0-4.31-2.2-4.31-4.93V6.43C1.5,3.7,3.43,1.5,5.81,1.5H19a4.43,4.43,0,0,1,4.1,3.41H17.73c-2.39,0-4.31,2.2-4.31,4.93v8.32C13.42,20.89,15.34,23.09,17.73,23.09Z" fill="none" stroke="#000" stroke-miterlimit="10" stroke-width="3"/><line x1="14.66" y1="13.48" x2="29.59" y2="13.48" fill="none" stroke="#000" stroke-miterlimit="10" stroke-width="3"/><polyline points="24.92 20.25 29.59 13.48 24.92 6.71" fill="none" stroke="#000" stroke-miterlimit="10" stroke-width="3"/></g></g></svg>