<svg xmlns="http://www.w3.org/2000/svg" viewBox="0 0 30.2 30.04"><g id="Layer_2" data-name="Layer 2"><g id="Layer_1-2" data-name="Layer 1"><path d="M25,19.67c-.65,4.17-4.86,7.38-10,7.38-5.55,0-10-3.81-10-8.51s4.38-8.4,9.82-8.5a6.06,6.06,0,0,0-.89,3.15c0,3.83,3.66,6.93,8.18,6.93A9.36,9.36,0,0,0,25,19.67Z" fill="#8a3e94"/><path d="M28.38,16.83A13.5,13.5,0,1,1,14.7,1.55a10.87,10.87,0,0,0-1.2,5,11,11,0,0,0,11,11A10.82,10.82,0,0,0,28.38,16.83Z" fill="none" stroke="#000" stroke-miterlimit="10" stroke-width="3"/></g></g></svg>