<svg xmlns="http://www.w3.org/2000/svg" viewBox="0 0 21.03 27.74"><g id="Layer_2" data-name="Layer 2"><g id="Layer_1-2" data-name="Layer 1"><path d="M15.64,21.41a6.31,6.31,0,0,1-1.33.89,5.26,5.26,0,0,1-1.7.52,3.38,3.38,0,0,1-3.9-2.52,4.8,4.8,0,0,1,.19-2.77c-.08-.26-.16-.52-.23-.79-.77-3.07-.38-6.21.83-7.9,0-.14-.09-.29-.13-.45-.41-1.55-.19-3.1.51-3.46s1.58.6,2,2.15c0,.17.08.33.11.49,1.72.21,3.46,2.32,4.24,5.43q.11.4.18.81a3.3,3.3,0,0,1,1.38,2A5.91,5.91,0,0,1,15.64,21.41Z" fill="#ed1e79"/><path d="M15.3,23.59a13.3,13.3,0,0,1-2.49,1.18,12.61,12.61,0,0,1-3.19.69c-3.47.31-6.44-1-7.29-3.36a4.67,4.67,0,0,1,.34-3.69c-.15-.34-.3-.69-.43-1.05C.8,13.26,1.53,9.08,3.81,6.82c-.09-.19-.17-.39-.25-.6-.77-2.07-.35-4.14.95-4.62s3,.81,3.73,2.88a6,6,0,0,1,.2.65c3.23.28,6.48,3.09,8,7.24.13.36.23.72.33,1.08a4.7,4.7,0,0,1,2.58,2.66C20.19,18.64,18.47,21.65,15.3,23.59Z" fill="none" stroke="#000" stroke-miterlimit="10" stroke-width="3"/><path d="M13.55,27.11A5.29,5.29,0,0,1,7.9,24.62,24.09,24.09,0,0,0,12.22,24a22.43,22.43,0,0,0,3.36-1.11A3,3,0,0,1,13.55,27.11Z" fill="none" stroke="#000" stroke-miterlimit="10"/></g></g></svg>