<svg id="Layer_1" data-name="Layer 1" xmlns="http://www.w3.org/2000/svg" viewBox="0 0 268.82 366.21"><defs><style>.cls-1,.cls-3,.cls-4{fill:none;}.cls-1,.cls-2,.cls-3,.cls-4{stroke:#000;stroke-miterlimit:10;}.cls-1,.cls-2{stroke-width:6px;}.cls-2{fill:#fff;}.cls-3{stroke-width:4px;}.cls-4{stroke-width:0.5px;}</style></defs><title>Profile Edit</title><path class="cls-1" d="M291.78,720.21s106.17-185,217.81,0h-98" transform="translate(-289.18 -357)"/><path class="cls-1" d="M421,503.81s4.22-163,31.13-141.94S421,503.81,421,503.81Z" transform="translate(-289.18 -357)"/><path class="cls-1" d="M385.7,506.2s0-163-26.7-143S385.7,506.2,385.7,506.2Z" transform="translate(-289.18 -357)"/><circle class="cls-2" cx="111.12" cy="192.74" r="69.48"/><path class="cls-3" d="M391.72,560.67s11.71-4.68,16.39,0-7.8,10.93-7.8,10.93S391.72,568.45,391.72,560.67Z" transform="translate(-289.18 -357)"/><path class="cls-4" d="M428.12,558.42" transform="translate(-289.18 -357)"/><circle class="cls-2" cx="220.32" cy="307.5" r="45.5"/><polyline class="cls-1" points="229.74 290.45 235.2 283.5 241.58 288.52 232.87 299.59 226.3 294.43 204.01 322.76 202.37 331.8 209.47 328.57 230.13 302.3"/></svg>