<svg xmlns="http://www.w3.org/2000/svg" viewBox="0 0 31.36 33"><g id="Layer_2" data-name="Layer 2"><g id="Layer_1-2" data-name="Layer 1"><path d="M9.82,19.36c0,2.09,2.19,3.78,4.89,3.78s4.88-1.69,4.88-3.78a3,3,0,0,0-.45-1.57h0A4.34,4.34,0,0,0,10.85,17,3.25,3.25,0,0,0,9.82,19.36Z" fill="#fbb03b"/><path d="M12.21,10.73c1-2.66,3.58-8.58,5.49-8.42,1.2.1,1.64.59,1.56,1.3-.11,1.12-1.48,2.8-3,4.35h0c-.91.92-1.89,1.8-2.7,2.5" fill="#fbb03b"/><path d="M15.62,12.49c.26-.66.59-1.41,1-2.17h0a8.83,8.83,0,0,1,2.72-3.57,1.75,1.75,0,0,1,.86-.26c4.56-.12-.17,4-3.17,6.33" fill="#fbb03b"/><path d="M24.06,30H9.19a9,9,0,0,1,7.43-3.76A9,9,0,0,1,24.06,30Z" fill="#fbb03b"/><path d="M5.09,19.54c0,3.17,3.29,5.74,7.36,5.74s7.37-2.57,7.37-5.74a4.61,4.61,0,0,0-.68-2.4h0A6.53,6.53,0,0,0,6.64,16,5,5,0,0,0,5.09,19.54Z" fill="none" stroke="#000" stroke-miterlimit="10" stroke-width="2"/><path d="M10.38,12.29C11.44,8.8,14.12,1,16.79,1c1.68,0,2.35.58,2.35,1.49,0,1.44-1.65,3.71-3.56,5.85h0c-1.14,1.26-2.36,2.49-3.38,3.47" fill="none" stroke="#000" stroke-miterlimit="10" stroke-width="2"/><path d="M13.63,11.43c.71-1,1.58-2.19,2.52-3.33h0C18,5.81,20.18,3.63,22,3a2.63,2.63,0,0,1,1.42-.14c6.89,1.47-2.25,6.8-7.89,9.66" fill="none" stroke="#000" stroke-miterlimit="10" stroke-width="2"/><path d="M23.3,32H1.89A12.87,12.87,0,0,1,12.6,26.59,12.86,12.86,0,0,1,23.3,32Z" fill="none" stroke="#000" stroke-miterlimit="10" stroke-width="2"/><polyline points="23.62 26.27 21.59 26.77 21.74 24.41 22.83 22.98 24.71 24.84 29.34 18.77 27.45 16.91 28.81 15.12 30.7 16.98 29.88 18.05" fill="none" stroke="#000" stroke-miterlimit="10"/></g></g></svg>