<svg id="Layer_1" data-name="Layer 1" xmlns="http://www.w3.org/2000/svg" viewBox="0 0 355 353.94"><defs><style>.cls-1{fill:none;stroke:#000;stroke-miterlimit:10;stroke-width:6px;}</style></defs><title>Setting</title><path class="cls-1" d="M573,570.37V519a9.4,9.4,0,0,0-9.4-9.4h0a36.58,36.58,0,0,1-33.77-22.7l-.18-.45a36.44,36.44,0,0,1,7.73-39.95,9.37,9.37,0,0,0,0-13.28h0l-30.73-30.64a9.43,9.43,0,0,0-13.3,0l0,0a36.76,36.76,0,0,1-40.1,7.72l-.61-.25A36.33,36.33,0,0,1,430,376.42h0a9.4,9.4,0,0,0-9.42-9.39H376.42a9.41,9.41,0,0,0-9.43,9.4h0a36.46,36.46,0,0,1-22.77,33.67l-.45.18a36.73,36.73,0,0,1-40.06-7.69,9.46,9.46,0,0,0-13.33,0l-30.72,30.62a9.38,9.38,0,0,0,0,13.29,36.47,36.47,0,0,1,7.75,40l-.18.43a36.59,36.59,0,0,1-33.8,22.68h0A9.41,9.41,0,0,0,224,519h0v44a9.4,9.4,0,0,0,9.42,9.39h0a36.58,36.58,0,0,1,33.77,22.7l.18.45a36.45,36.45,0,0,1-7.73,40,9.37,9.37,0,0,0,0,13.28h0l30.73,30.64a9.43,9.43,0,0,0,13.3,0l0,0a36.76,36.76,0,0,1,40.1-7.72l.6.25A36.32,36.32,0,0,1,367,705.58h0a9.4,9.4,0,0,0,9.42,9.39h51.06a2.32,2.32,0,0,0,2.32-2.32V687.47a9.19,9.19,0,0,1,5.74-8.43l17.52-7.15a36.88,36.88,0,0,1,40.14,7.7,9.47,9.47,0,0,0,13.32,0l0,0L537.32,649a9.3,9.3,0,0,0,0-13.22l0,0a36.25,36.25,0,0,1-7.76-39.86l7.21-17.43a9.2,9.2,0,0,1,8.5-5.66h25.34a2.39,2.39,0,0,0,2.39-2.41ZM398,590.78a49.58,49.58,0,1,1,49.58-49.58h0A49.59,49.59,0,0,1,398,590.86H398Z" transform="translate(-221 -364.03)"/><path class="cls-1" d="M573,570.37V519a9.4,9.4,0,0,0-9.4-9.4h0a36.58,36.58,0,0,1-33.77-22.7l-.18-.45a36.44,36.44,0,0,1,7.73-39.95,9.37,9.37,0,0,0,0-13.28h0l-30.73-30.64a9.43,9.43,0,0,0-13.3,0l0,0a36.76,36.76,0,0,1-40.1,7.72l-.61-.25A36.33,36.33,0,0,1,430,376.42h0a9.4,9.4,0,0,0-9.42-9.39H376.42a9.41,9.41,0,0,0-9.43,9.4h0a36.46,36.46,0,0,1-22.77,33.67l-.45.18a36.73,36.73,0,0,1-40.06-7.69,9.46,9.46,0,0,0-13.33,0l-30.72,30.62a9.38,9.38,0,0,0,0,13.29,36.47,36.47,0,0,1,7.75,40l-.18.43a36.59,36.59,0,0,1-33.8,22.68h0A9.41,9.41,0,0,0,224,519h0v44a9.4,9.4,0,0,0,9.42,9.39h0a36.58,36.58,0,0,1,33.77,22.7l.18.45a36.45,36.45,0,0,1-7.73,40,9.37,9.37,0,0,0,0,13.28h0l30.73,30.64a9.43,9.43,0,0,0,13.3,0l0,0a36.76,36.76,0,0,1,40.1-7.72l.6.25A36.32,36.32,0,0,1,367,705.58h0a9.4,9.4,0,0,0,9.42,9.39h51.06a2.32,2.32,0,0,0,2.32-2.32V687.47a9.19,9.19,0,0,1,5.74-8.43l17.52-7.15a36.88,36.88,0,0,1,40.14,7.7,9.47,9.47,0,0,0,13.32,0l0,0L537.32,649a9.3,9.3,0,0,0,0-13.22l0,0a36.25,36.25,0,0,1-7.76-39.86l7.21-17.43a9.2,9.2,0,0,1,8.5-5.66h25.34a2.39,2.39,0,0,0,2.39-2.41ZM398,590.78a49.58,49.58,0,1,1,49.58-49.58h0A49.59,49.59,0,0,1,398,590.86H398Z" transform="translate(-221 -364.03)"/><path class="cls-1" d="M397.84,456.14a85,85,0,0,0-84.93,87C314,588.22,350.74,625,395.81,626a85,85,0,1,0,2-169.89Zm0,134.4A49.58,49.58,0,1,1,447.42,541a49.59,49.59,0,0,1-49.58,49.58Z" transform="translate(-221 -364.03)"/></svg>