<svg id="Layer_1" data-name="Layer 1" xmlns="http://www.w3.org/2000/svg" viewBox="0 0 153.38 334.82"><defs><style>.cls-1{fill:none;stroke:#000;stroke-miterlimit:10;stroke-width:6px;}</style></defs><title>Theme Color changer</title><path class="cls-1" d="M462.91,555.06V491.47l-4.58-10.8H444.61l-7.62,12-4.58-8.4H421.74l-7.62,7.2-6.1-7.2h-6.1l-12.19,4.8-6.1-4.8H366.86l-6.1,8.4-4.57-8.4H345.51l-7.62,10.8-3.05-6H322.65v85.19H466s9.14,30,0,39.59-42.69,0-42.69,0-20.58,48.59,0,64.79-64,42-54.89,13.2c0,0,21.62-63.84,1.62-78.84" transform="translate(-319.65 -373)"/><polyline class="cls-1" points="4.35 0 4.35 100.55 4.35 101.67"/><polyline class="cls-1" points="22.35 0 22.35 100.55 22.35 101.67"/><line class="cls-1" x1="38.35" y1="100.55" x2="38.35"/><line class="cls-1" x1="62.35" y1="100.55" x2="62.35"/><line class="cls-1" x1="84.35" y1="100.55" x2="84.35"/><polyline class="cls-1" points="103.35 101.17 103.35 100.55 103.35 0"/><polyline class="cls-1" points="123.35 0 123.35 100.55 123.35 101.17"/><polyline class="cls-1" points="143.35 0 143.35 100.55 143.35 101.17"/></svg>