<svg xmlns="http://www.w3.org/2000/svg" viewBox="0 0 30.15 30"><g id="Layer_2" data-name="Layer 2"><g id="Layer_1-2" data-name="Layer 1"><path d="M20.71,16.22a7.86,7.86,0,0,0-.81,5.87c-3.09,1.77-6.09,1.6-7.56-.77-2-3.26-.41-9.48,3.64-13.87s9-5.32,11-2.06c1.26,2,1.13,5.12-.1,8.24A5.76,5.76,0,0,0,20.71,16.22Z" fill="#db8c41"/><path d="M18.61,18.2c-.95,2.36-.18,5,1.86,7.46C15.79,28.77,10.16,29.48,6.1,27,.47,23.64-.07,15.51,4.9,8.87S18.44-.41,24.06,3c3.45,2.07,5,5.94,4.5,10.14C23.73,13.3,19.86,15.1,18.61,18.2Z" fill="none" stroke="#000" stroke-miterlimit="10" stroke-width="3"/><ellipse cx="17.66" cy="6.89" rx="1.29" ry="1.16" fill="none" stroke="#000" stroke-miterlimit="10"/><ellipse cx="11.21" cy="9.21" rx="1.29" ry="1.16" fill="none" stroke="#000" stroke-miterlimit="10"/><ellipse cx="7.34" cy="16.16" rx="1.29" ry="1.16" fill="none" stroke="#000" stroke-miterlimit="10"/><ellipse cx="9.92" cy="23.11" rx="1.29" ry="1.16" fill="none" stroke="#000" stroke-miterlimit="10"/></g></g></svg>