<svg xmlns="http://www.w3.org/2000/svg" viewBox="0 0 30.06 30.06"><g id="Layer_2" data-name="Layer 2"><g id="Layer_1-2" data-name="Layer 1"><path d="M25.35,14.68V17a.47.47,0,0,1-.41.51h0a1.63,1.63,0,0,0-1.49,1.2l0,0a2.33,2.33,0,0,0,.36,2.16.57.57,0,0,1,0,.7l-1.36,1.64a.37.37,0,0,1-.57,0,1.49,1.49,0,0,0-1.79-.44h0a2,2,0,0,0-1,1.8h0a.46.46,0,0,1-.42.5H16.66a.46.46,0,0,1-.4-.5h0a2,2,0,0,0-1-1.8h0a1.41,1.41,0,0,0-1.78.43.38.38,0,0,1-.59,0l-1.36-1.64a.57.57,0,0,1,0-.7,2.24,2.24,0,0,0,.35-2.16s0,0,0,0a1.63,1.63,0,0,0-1.49-1.21A.47.47,0,0,1,9.91,17V14.68a.46.46,0,0,1,.42-.5A1.63,1.63,0,0,0,11.82,13v0a2.22,2.22,0,0,0-.35-2.15.57.57,0,0,1,0-.7l1.36-1.64a.37.37,0,0,1,.59,0,1.42,1.42,0,0,0,1.78.42h0a2,2,0,0,0,1-1.81.45.45,0,0,1,.4-.49h1.93A.46.46,0,0,1,19,7h0a2,2,0,0,0,1,1.79l0,0a1.43,1.43,0,0,0,1.79-.42.36.36,0,0,1,.58,0l1.36,1.64a.57.57,0,0,1,0,.7,2.31,2.31,0,0,0-.36,2.15s0,0,0,0a1.67,1.67,0,0,0,1.51,1.21A.47.47,0,0,1,25.35,14.68Z" fill="lime"/><path d="M28.56,16.72V13.34a.73.73,0,0,0-.73-.73h0a2.84,2.84,0,0,1-2.62-1.77l0,0a2.86,2.86,0,0,1,.62-3.13.72.72,0,0,0,0-1L23.41,4.27a.72.72,0,0,0-1,0,2.85,2.85,0,0,1-3.13.62l-.06,0a2.83,2.83,0,0,1-1.75-2.61h0a.73.73,0,0,0-.73-.73H13.34a.73.73,0,0,0-.73.73h0a2.84,2.84,0,0,1-1.77,2.63h0a2.84,2.84,0,0,1-3.13-.62.72.72,0,0,0-1,0L4.27,6.66a.72.72,0,0,0,0,1,2.84,2.84,0,0,1,.62,3.13v0a2.84,2.84,0,0,1-2.63,1.77h0a.73.73,0,0,0-.73.73v3.38a.73.73,0,0,0,.73.73h0a2.84,2.84,0,0,1,2.63,1.77v0a2.85,2.85,0,0,1-.62,3.13.72.72,0,0,0,0,1l2.39,2.38a.72.72,0,0,0,1,0,2.86,2.86,0,0,1,3.13-.62l0,0a2.83,2.83,0,0,1,1.75,2.61h0a.73.73,0,0,0,.73.73h3.38a.72.72,0,0,0,.73-.73h0a2.81,2.81,0,0,1,1.75-2.6l.06,0a3,3,0,0,1,3.14.63.73.73,0,0,0,1,0l2.38-2.38a.72.72,0,0,0,0-1,2.86,2.86,0,0,1-.62-3.13l0-.06a2.81,2.81,0,0,1,2.6-1.75h0A.72.72,0,0,0,28.56,16.72ZM15,18.74a3.84,3.84,0,1,1,3.84-3.84A3.83,3.83,0,0,1,15,18.74Z" fill="none" stroke="#000" stroke-miterlimit="10" stroke-width="3"/></g></g></svg>