<svg xmlns="http://www.w3.org/2000/svg" viewBox="0 0 29 30.04"><g id="Layer_2" data-name="Layer 2"><g id="Layer_1-2" data-name="Layer 1"><path d="M3.71,15.36v3.85c0,2.34,1.63,4.24,3.64,4.24H19.6l.9,1.14h0l1.5,2,.55-2.3.23-.93h1.11a3.13,3.13,0,0,0,1.31-.29,4.25,4.25,0,0,0,2.3-3.86V13.5a4.33,4.33,0,0,0-2.21-3.91" fill="none" stroke="#000" stroke-miterlimit="10" stroke-width="3"/><path d="M25.29,5.75v5.7c0,2.35-1.63,4.25-3.64,4.25H20.5l-.78,3.23L17.35,15.7H5.14c-2,0-3.64-1.9-3.64-4.25V5.75C1.5,3.4,3.13,1.5,5.14,1.5H21.65C23.66,1.5,25.29,3.4,25.29,5.75Z" fill="none" stroke="#000" stroke-miterlimit="10" stroke-width="3"/></g></g></svg>