<svg xmlns="http://www.w3.org/2000/svg" viewBox="0 0 27 26.74"><g id="Layer_2" data-name="Layer 2"><g id="Layer_1-2" data-name="Layer 1"><path d="M2.71,14.36v3.85c0,2.34,1.63,4.24,3.64,4.24H18.6l.9,1.14h0l1.5,2,.55-2.3.23-.93h1.11a3.13,3.13,0,0,0,1.31-.29,4.25,4.25,0,0,0,2.3-3.86V12.5a4.33,4.33,0,0,0-2.21-3.91" fill="#4dfcff"/><path d="M24.29,4.75v5.7c0,2.35-1.63,4.25-3.64,4.25H19.5l-.78,3.23L16.35,14.7H4.14c-2,0-3.64-1.9-3.64-4.25V4.75C.5,2.4,2.13.5,4.14.5H20.65C22.66.5,24.29,2.4,24.29,4.75Z" fill="#4dfcff"/><path d="M2.71,14.36v3.85c0,2.34,1.63,4.24,3.64,4.24H18.6l.9,1.14h0l1.5,2,.55-2.3.23-.93h1.11a3.13,3.13,0,0,0,1.31-.29,4.25,4.25,0,0,0,2.3-3.86V12.5a4.33,4.33,0,0,0-2.21-3.91" fill="none" stroke="#000" stroke-miterlimit="10"/><path d="M24.29,4.75v5.7c0,2.35-1.63,4.25-3.64,4.25H19.5l-.78,3.23L16.35,14.7H4.14c-2,0-3.64-1.9-3.64-4.25V4.75C.5,2.4,2.13.5,4.14.5H20.65C22.66.5,24.29,2.4,24.29,4.75Z" fill="none" stroke="#000" stroke-miterlimit="10"/></g></g></svg>