<svg xmlns="http://www.w3.org/2000/svg" viewBox="0 0 345.07 283.38"><defs><style>.cls-1{stroke:#fff;stroke-miterlimit:10;}</style></defs><g id="Layer_2" data-name="Layer 2"><g id="Layer_1-2" data-name="Layer 1"><path class="cls-1" d="M344.57,121.12v81.21c0,23.12-19.5,42.16-44.3,43.2l-17.74,37L240.2,245.21H94.55c-25.62,0-46.39-19.34-46.39-43.2V121.45c0-23.86,20.77-43.2,46.39-43.2H298.18C323.67,78.25,344.38,97.39,344.57,121.12ZM296.91,43.48v81.21c0,23.12-19.5,42.15-44.3,43.19L234.87,204.6l-42.79-37H46.89C21.27,167.56.5,148.22.5,124.36V43.7C.5,19.84,21.27.5,46.89.5H250.52C276.05.5,296.78,19.71,296.91,43.48Z"/></g></g></svg>