<?xml version="1.0" standalone="no"?>
<!DOCTYPE svg PUBLIC "-//W3C//DTD SVG 20010904//EN"
 "http://www.w3.org/TR/2001/REC-SVG-20010904/DTD/svg10.dtd">
<svg version="1.0" xmlns="http://www.w3.org/2000/svg"
 width="340.000000pt" height="300.000000pt" viewBox="0 0 340.000000 300.000000"
 preserveAspectRatio="xMidYMid meet">
<metadata>
Created by potrace 1.16, written by Peter Selinger 2001-2019
</metadata>
<g transform="translate(0.000000,300.000000) scale(0.100000,-0.100000)"
fill="#000000" stroke="none">
<path d="M328 2851 c-146 -47 -269 -172 -312 -320 -14 -47 -16 -128 -16 -568
0 -493 1 -516 21 -576 56 -168 199 -290 374 -320 l65 -11 0 -121 c0 -138 15
-212 61 -292 65 -113 201 -209 328 -233 32 -6 339 -10 775 -10 l721 -1 210
-199 c116 -109 215 -199 221 -200 6 0 53 90 104 200 81 173 97 201 119 206
121 26 220 81 287 157 20 23 53 76 73 117 l36 75 0 556 0 555 -38 78 c-68 136
-206 244 -336 261 -87 12 -81 2 -81 139 0 175 -32 270 -124 373 -56 63 -121
105 -203 132 -62 21 -75 21 -1145 20 -1017 0 -1086 -1 -1140 -18z m2180 -41
c145 -19 263 -104 329 -238 l38 -76 0 -531 0 -531 -38 -76 c-61 -124 -186
-218 -312 -233 l-52 -7 -89 -183 -89 -183 -195 183 -195 184 -766 3 -765 3
-76 38 c-131 65 -217 181 -238 324 -13 89 -13 867 0 958 27 187 178 341 360
364 91 12 1998 13 2088 1z m494 -661 c180 -38 314 -184 339 -370 6 -42 9 -257
7 -523 -4 -447 -4 -452 -27 -511 -60 -151 -175 -248 -328 -277 l-61 -11 -83
-179 c-46 -98 -86 -178 -90 -178 -3 0 -90 80 -194 178 l-189 177 -766 5 c-725
5 -767 6 -810 24 -130 55 -223 153 -260 273 -15 50 -20 93 -20 184 l0 119 678
0 677 0 220 -205 c121 -112 222 -201 226 -197 3 4 48 96 99 204 l93 197 53 11
c124 26 257 125 316 236 54 100 58 138 58 511 0 189 2 343 5 343 2 0 28 -5 57
-11z"/>
</g>
</svg>
