<svg xmlns="http://www.w3.org/2000/svg" viewBox="0 0 27.13 25.4"><g id="Layer_2" data-name="Layer 2"><g id="Layer_1-2" data-name="Layer 1"><path d="M13.56,24.84c-1.49-.72-16.72-8.43-12.24-18.9,4.36-10.21,11.26-3.06,12.24-2,1-1.09,7.88-8.24,12.25,2C30.29,16.41,15.06,24.12,13.56,24.84Z" fill="#4dfcff"/><path d="M13.68,4.1,13.56,4" fill="none" stroke="#000" stroke-miterlimit="10" stroke-width="3"/><path d="M13.56,24.84c-1.49-.72-16.72-8.43-12.24-18.9,4.36-10.21,11.26-3.06,12.24-2,1-1.09,7.88-8.24,12.25,2C30.29,16.41,15.06,24.12,13.56,24.84Z" fill="none" stroke="#000" stroke-miterlimit="10"/><path d="M13.56,4a.49.49,0,0,1-.12.13" fill="none" stroke="#000" stroke-miterlimit="10" stroke-width="3"/></g></g></svg>