<?xml version="1.0" standalone="no"?>
<!DOCTYPE svg PUBLIC "-//W3C//DTD SVG 20010904//EN"
 "http://www.w3.org/TR/2001/REC-SVG-20010904/DTD/svg10.dtd">
<svg version="1.0" xmlns="http://www.w3.org/2000/svg"
 width="300.000000pt" height="300.000000pt" viewBox="0 0 300.000000 300.000000"
 preserveAspectRatio="xMidYMid meet">
<metadata>
Created by potrace 1.16, written by Peter Selinger 2001-2019
</metadata>
<g transform="translate(0.000000,300.000000) scale(0.100000,-0.100000)"
fill="#000000" stroke="none">
<path d="M823 2909 c-352 -35 -654 -306 -776 -694 -38 -122 -50 -226 -44 -398
12 -384 135 -597 626 -1087 323 -323 799 -730 854 -730 18 0 67 33 159 107
597 479 1077 973 1220 1258 38 74 85 229 98 323 18 119 8 354 -19 461 -48 190
-132 348 -255 478 -185 196 -381 284 -631 284 -192 0 -354 -55 -505 -170 l-65
-49 -25 20 c-199 156 -408 221 -637 197z m254 -75 c127 -28 234 -83 348 -180
l61 -51 44 40 c157 139 330 208 525 208 224 1 411 -84 580 -263 177 -187 263
-404 272 -683 6 -171 -14 -295 -68 -437 -66 -170 -229 -379 -533 -684 -246
-245 -430 -408 -777 -687 l-45 -36 -120 96 c-260 210 -470 397 -694 622 -482
482 -595 678 -607 1051 -4 133 -2 170 16 259 108 521 543 846 998 745z"/>
</g>
</svg>
