<svg xmlns="http://www.w3.org/2000/svg" viewBox="0 0 181.07 198.55"><defs><style>.cls-1{stroke:#000;stroke-miterlimit:10;}</style></defs><g id="Layer_2" data-name="Layer 2"><g id="Layer_1-2" data-name="Layer 1"><path class="cls-1" d="M180.57,70.72a85.51,85.51,0,0,1-7.35,34.87h0A128.29,128.29,0,0,1,163.08,122h0c-24.61,34.71-68.69,72.6-72.58,75.86C84,192.42,41.79,155.64,18,122A144.67,144.67,0,0,1,7.85,105.44,85.54,85.54,0,0,1,.5,70.72C.72,32.27,25.19.5,55.67.5A47.92,47.92,0,0,1,90.94,17.1,48.09,48.09,0,0,1,126.2.5C156,.5,180.57,32.27,180.57,70.72Z"/></g></g></svg>