<svg xmlns="http://www.w3.org/2000/svg" viewBox="0 0 29.18 30.05"><g id="Layer_2" data-name="Layer 2"><g id="Layer_1-2" data-name="Layer 1"><path d="M3.55,7.5A5.11,5.11,0,0,0,2.92,10v13.1A5.48,5.48,0,0,0,8.5,28.47H13m14.7-11.19V23.2c0,2.91-2.89,5.27-6.44,5.27h-.53" fill="none" stroke="#000" stroke-miterlimit="10" stroke-width="3"/><path d="M.82,9.3l.74-.48,2-1.23,7.26-4.68a10.93,10.93,0,0,1,10.74,0l3.14,2" fill="none" stroke="#000" stroke-miterlimit="10" stroke-width="3"/><path d="M13,30.05V24a2.93,2.93,0,0,1,2.86-3h2a2.93,2.93,0,0,1,2.91,3v6.11" fill="none" stroke="#000" stroke-miterlimit="10" stroke-width="3"/></g></g></svg>