<svg id="Layer_1" data-name="Layer 1" xmlns="http://www.w3.org/2000/svg" viewBox="0 0 31.68 23.13"><title>1</title><polyline points="22.98 6.42 22.79 6.26 15.88 0.63 1.51 11.35 4.33 11.35" fill="none" stroke="#000" stroke-miterlimit="10"/><line x1="25.32" y1="22.63" x2="19.18" y2="22.63" fill="none" stroke="#000" stroke-miterlimit="10"/><polyline points="15.33 22.63 15.18 22.63 7.47 22.63 7.47 12.16 30.26 12.16 27.15 9.67 26.32 8.96 23.18 6.56 22.79 6.26" fill="none" stroke="#000" stroke-miterlimit="10"/><polyline points="23.18 6.56 23.18 1.68 26.32 1.68 26.32 8.96" fill="none" stroke="#000" stroke-miterlimit="10"/><polyline points="15.18 22.63 15.18 16.18 19.18 16.18 19.18 22.63" fill="none" stroke="#000" stroke-miterlimit="10"/><line x1="4.33" y1="11.35" x2="4.33" y2="22.63" fill="none" stroke="#000" stroke-miterlimit="10"/><path d="M-25.5-2.5" transform="translate(0.18 -3.37)" fill="none" stroke="#000" stroke-miterlimit="10"/><path d="M27.13,15.53" transform="translate(0.18 -3.37)" fill="none" stroke="#000" stroke-miterlimit="10"/></svg>