<svg xmlns="http://www.w3.org/2000/svg" viewBox="0 0 27.64 28.05"><g id="Layer_2" data-name="Layer 2"><g id="Layer_1-2" data-name="Layer 1"><path d="M27.47,5.56a19.67,19.67,0,0,1-2.72-1,21.05,21.05,0,0,1-2.89-1.61A22.78,22.78,0,0,0,19.11,1a6.58,6.58,0,0,0-3-.52l-4.43,1L3.14,7.17s0,.06,0,.07-.22.12-.45.07L2.4,22.05a5.51,5.51,0,0,0,.26,1.65,4.14,4.14,0,0,0,1.83,2.56c.82.41,1.07,0,2.05.49.6.31.86.66,1.42.68a1.68,1.68,0,0,0,1-.34c2.26.63,3.1.33,3.43-.09.82-1-1.12-3-.34-5.78a3.57,3.57,0,0,1,1.34-2.13,4.61,4.61,0,0,1,2.81-.51c1.44,0,2.15,0,2.72.34,1.39.85,1.52,2.94,1.62,4.59a12.13,12.13,0,0,1-.38,3.86c.21,0,4.3.24,6.14-2.68a8.52,8.52,0,0,0,.79-2.56,21.12,21.12,0,0,0,.51-3.64Z" fill="#4dfcff"/><path d="M12.43,27.43H8a5.41,5.41,0,0,1-1.91-.33A5.39,5.39,0,0,1,2.4,22.5h0V8.94A5.23,5.23,0,0,1,3,6.58L3,6.5M27.13,18.13v4a4.86,4.86,0,0,1,0,.54h0A4.7,4.7,0,0,1,26,25.15h0a7,7,0,0,1-5.25,2.22H20.2" fill="none" stroke="#000" stroke-miterlimit="10"/><path d="M.27,8.3,1,7.82,2.27,7l.65-.41h0l7.35-4.68A10.21,10.21,0,0,1,15.66.5,10.21,10.21,0,0,1,21,1.91l3.14,2,3,2,.08.06" fill="none" stroke="#000" stroke-miterlimit="10"/><path d="M12.43,28.05V22a2.93,2.93,0,0,1,2.86-3h2a2.93,2.93,0,0,1,2.91,3v6.11" fill="none" stroke="#000" stroke-miterlimit="10"/></g></g></svg>