<svg xmlns="http://www.w3.org/2000/svg" viewBox="0 0 133.74 222.9"><defs><style>.cls-1,.cls-2{stroke:#000;stroke-miterlimit:10;}.cls-2{stroke-width:0.5px;}</style></defs><g id="Layer_2" data-name="Layer 2"><g id="Layer_1-2" data-name="Layer 1"><path class="cls-1" d="M92.48,195.67c-34.58-12.81-91,25.63-91,25.63s64.12-115.33,131.41,0H75.19C113.23,208.49,92.48,195.67,92.48,195.67Z"/><path class="cls-2" d="M79.55,76.69C81,50.17,85.84-8.72,100.3,1.41s-5.68,55.8-15.7,76.88"/><path class="cls-2" d="M49.25,77.14C39.92,54.71,24,11.34,37.22,2.3S54.44,48,55,75.6"/><path d="M84.32,78.36h-.48l-4.29-1.54A49.05,49.05,0,0,0,65.09,74.7a48.22,48.22,0,0,0-10.1,1H54l-3.74,1C25.75,84.33,12.6,108.9,20.85,131.57s34.77,34.85,59.24,27.21,37.62-32.21,29.37-54.88A44.72,44.72,0,0,0,84.32,78.23ZM65.09,131.09s-5.81-2-5.81-6.79c0,0,7.89-2.89,11.07,0S65.09,131.09,65.09,131.09Z"/></g></g></svg>