<svg xmlns="http://www.w3.org/2000/svg" viewBox="0 0 26.98 33"><g id="Layer_2" data-name="Layer 2"><g id="Layer_1-2" data-name="Layer 1"><path d="M5.18,19.54c0,3.17,3.29,5.74,7.37,5.74s7.36-2.57,7.36-5.74a4.6,4.6,0,0,0-.67-2.4h0A6.53,6.53,0,0,0,6.73,16,5,5,0,0,0,5.18,19.54Z" fill="none" stroke="#000" stroke-miterlimit="10" stroke-width="2"/><path d="M10.47,12.29C11.53,8.8,14.21,1,16.88,1c1.68,0,2.36.58,2.36,1.49,0,1.44-1.66,3.71-3.57,5.85h0c-1.13,1.26-2.36,2.49-3.38,3.47" fill="none" stroke="#000" stroke-miterlimit="10" stroke-width="2"/><path d="M13.72,11.43c.72-1,1.58-2.19,2.52-3.33h0c1.88-2.28,4-4.46,5.85-5.09a2.55,2.55,0,0,1,1.42-.14c6.89,1.47-2.25,6.8-7.89,9.66" fill="none" stroke="#000" stroke-miterlimit="10" stroke-width="2"/><path d="M23.4,32H2A13.31,13.31,0,0,1,23.4,32Z" fill="none" stroke="#000" stroke-miterlimit="10" stroke-width="2"/></g></g></svg>