<svg id="Layer_1" data-name="Layer 1" xmlns="http://www.w3.org/2000/svg" viewBox="0 0 436.35 708.51"><title>Profile</title><path d="M365.48,851.35s205-357.11,420.52,0H596.6" transform="translate(-360.28 -148.84)" fill="none" stroke="#000" stroke-miterlimit="10" stroke-width="12"/><path d="M616.49,393.59c4.17-82.86,18.06-266.75,58.53-235.14,39.66,31-16.21,174.26-44.91,240.41" transform="translate(-360.28 -148.84)" fill="none" stroke="#000" stroke-miterlimit="10" stroke-width="12"/><path d="M529.77,394.86C502.88,324.77,457.42,189.32,495.25,161c38.91-29.09,48.47,143,50.81,229.18" transform="translate(-360.28 -148.84)" fill="none" stroke="#000" stroke-miterlimit="10" stroke-width="12"/><circle cx="214.71" cy="372.33" r="134.14" fill="none" stroke="#000" stroke-miterlimit="10" stroke-width="12"/><path d="M558.43,542.27s22.61-9,31.65,0S575,563.38,575,563.38,558.43,557.29,558.43,542.27Z" transform="translate(-360.28 -148.84)" fill="none" stroke="#000" stroke-miterlimit="10" stroke-width="12"/><path d="M628.7,537.94" transform="translate(-360.28 -148.84)" fill="none" stroke="#000" stroke-miterlimit="10" stroke-width="12"/></svg>