<svg id="Layer_1" data-name="Layer 1" xmlns="http://www.w3.org/2000/svg" viewBox="0 0 541.92 667.75"><title>Notification</title><path d="M486.53,697.34c-.83-1.15-1.64-2.3-2.46-3.46q-5.81-8.24-11.35-16.84c-90.25-140-93-298.9-6.07-354.92s230.51,12.06,320.76,152.06q6.23,9.65,11.88,19.4v0" transform="translate(-384.89 -203.76)" fill="none" stroke="#000" stroke-miterlimit="10" stroke-width="12"/><path d="M850.62,545.26a122.33,122.33,0,0,1,14.49,3.18c19.61,5.6,35.15,15.88,44.88,31,27.74,43,.37,112.69-62.21,174A429.88,429.88,0,0,1,700,847c-79.17,29.07-150.81,24.33-177.82-17.56-9.32-14.46-12.41-31.93-10-51.08.11-.86.23-1.73.35-2.6.42-2.84,1-5.72,1.62-8.62" transform="translate(-384.89 -203.76)" fill="none" stroke="#000" stroke-miterlimit="10" stroke-width="12"/><path d="M852.47,758.1c-9.93,32.4-28,58.75-54.3,75.69-26.85,17.31-59.11,22.77-93.53,17.93A430.27,430.27,0,0,0,852.47,758.1Z" transform="translate(-384.89 -203.76)" fill="none" stroke="#000" stroke-miterlimit="10" stroke-width="6"/><path d="M850.62,545.26c-26.18-13.1-50.62-50.6-51.32-51.66v0" transform="translate(-384.89 -203.76)" fill="none" stroke="#000" stroke-miterlimit="10" stroke-width="12"/><path d="M514.21,768.83c0-.56-.1-1.11-.15-1.67-2.62-26.28-20.87-58.72-27.53-69.82-1.39-2.32-2.27-3.71-2.41-3.91v0" transform="translate(-384.89 -203.76)" fill="none" stroke="#000" stroke-miterlimit="10" stroke-width="12"/><path d="M507.16,305.56a203.11,203.11,0,0,0-8.12-21.5c-22.66-51.1-61.8-83.38-87.37-72s-27.88,62-5.16,113.14a189.87,189.87,0,0,0,21.58,37.07" transform="translate(-384.89 -203.76)" fill="none" stroke="#000" stroke-miterlimit="10" stroke-width="12"/></svg>