<svg xmlns="http://www.w3.org/2000/svg" viewBox="0 0 23.58 30.04"><g id="Layer_2" data-name="Layer 2"><g id="Layer_1-2" data-name="Layer 1"><path d="M15.59,29.39a6.9,6.9,0,0,1-7.07-2.81,31.88,31.88,0,0,0,5.4-.74,29.87,29.87,0,0,0,4.21-1.25C19.18,26.7,18.07,28.8,15.59,29.39Z" fill="#4dfcff" stroke="#000" stroke-miterlimit="10"/><path d="M17.77,25.42a17,17,0,0,1-3.11,1.33,17.17,17.17,0,0,1-4,.78c-4.34.35-8-1.08-9.12-3.79A4.77,4.77,0,0,1,2,19.58c-.19-.39-.38-.78-.54-1.19-1.8-4.62-.89-9.34,2-11.89-.11-.21-.21-.44-.31-.67-1-2.34-.44-4.68,1.19-5.22S8,1.53,9,3.86a6.44,6.44,0,0,1,.25.74c4,.31,8.11,3.48,10,8.16.16.41.29.82.41,1.22a5.7,5.7,0,0,1,3.23,3C23.89,19.84,21.74,23.23,17.77,25.42Z" fill="#4dfcff"/><path d="M17.77,25.42a17,17,0,0,1-3.11,1.33,17.17,17.17,0,0,1-4,.78c-4.34.35-8-1.08-9.12-3.79A4.77,4.77,0,0,1,2,19.58c-.19-.39-.38-.78-.54-1.19-1.8-4.62-.89-9.34,2-11.89-.11-.21-.21-.44-.31-.67-1-2.34-.44-4.68,1.19-5.22S8,1.53,9,3.86a6.44,6.44,0,0,1,.25.74c4,.31,8.11,3.48,10,8.16.16.41.29.82.41,1.22a5.7,5.7,0,0,1,3.23,3C23.89,19.84,21.74,23.23,17.77,25.42Z" fill="none" stroke="#000" stroke-miterlimit="10"/></g></g></svg>