<svg xmlns="http://www.w3.org/2000/svg" viewBox="0 0 179.29 277.09"><defs><style>.cls-1{stroke:#fff;stroke-miterlimit:10;}</style></defs><g id="Layer_2" data-name="Layer 2"><g id="Layer_1-2" data-name="Layer 1"><path class="cls-1" d="M154.14,227.67c-14.37,17.79-31.39,31.65-50,40.76-26.78,12.63-51.34,11-59.89-7.69a40.77,40.77,0,0,1-3.42-22v-1.1a12.82,12.82,0,0,1,.51-3.84A102.11,102.11,0,0,0,32,203.51v-.66s0-.88-.51-.88h0l-3.85-7.14C-3.46,134.08-4.57,64.44,25,40.16s78.12,5.17,108.66,65.91c1,2,2.06,4.07,3,6.15a1.28,1.28,0,0,0,0,.55c4.09,10.18,10.43,18.59,18.22,24.17a26.24,26.24,0,0,1,5,1.43c6.22,1.94,11.65,6.8,15.23,13.62C184.6,170.77,175.11,201,154.14,227.67Zm2.12.92c-5.5,28.63-27.63,46.57-50.13,40.64C124.83,260.23,141.9,246.4,156.26,228.59ZM39.47,36.79A72,72,0,0,0,37,28.88C30.15,10.1,17.06-2.42,8.24,1.09s-10.35,22-3.33,40.43a72.69,72.69,0,0,0,6.84,13.73"/></g></g></svg>