<svg id="Layer_1" data-name="Layer 1" xmlns="http://www.w3.org/2000/svg" viewBox="0 0 2189.26 1813.14"><defs><style>.cls-1,.cls-4{fill:#002437;}.cls-1{opacity:0.2;}.cls-2{fill:#00a99d;}.cls-16,.cls-3{fill:#fff;}.cls-5{fill:#0e293c;}.cls-6{fill:#001a32;}.cls-7{fill:#041828;}.cls-8{fill:#0e3646;}.cls-9{fill:#8b9fa9;}.cls-10{fill:#174053;}.cls-11{fill:#1d5661;}.cls-12{fill:#e8e7eb;}.cls-13{fill:#2f6470;}.cls-14{fill:#bac2c5;}.cls-15{fill:#c7b299;}.cls-16{opacity:0.5;}.cls-17{fill:#ffbfaa;}.cls-18{fill:#60ff4d;}</style></defs><title>Loading</title><rect class="cls-1" x="279.26" y="1005" width="1910" height="682"/><rect x="280.26" width="1909" height="1417"/><path class="cls-2" d="M1904,1465.36c-61,12.69-1905,0-1905,0V1341l1909,8.88Z" transform="translate(280.26)"/><polygon class="cls-3" points="870.26 158.5 870.26 168.5 861.76 177 870.26 177 876.26 177 870.26 158.5"/><path class="cls-4" d="M-.59,912V662.27a36.5,36.5,0,0,1,9-1.55c3,0,5.69-1,6.08-4.88l12.08-.12c.46,6.65-4,6.33-8.18,6.59-1.65.1-4.3-.91-4.52,1.7-.19,2.33,2,3.7,4.18,3.9,2.33.21,4.37.67,6.14,2.53,7.31,7.66,16.89,10.12,26.45,11.95,11.72,2.24,24,2.14,33.92,10.62a15.73,15.73,0,0,0,12.68,3.89c11.86-1.39,22.49,4.79,33.9,6.14.9.1,1.65,1.48,2.5,2.23,7.26,6.36,15.87,11.6,24.67,12.56,9.29,1,16,6.35,23.25,10.43a126.62,126.62,0,0,0,32.88,12.85c8.66,2.07,15.8,5.3,22.4,11.35a76.82,76.82,0,0,0,15.75,11.16c11.35,6,21.64,13.59,31.54,21.86,1.94,1.63,3.57,4.15,5.76,4.88,11.48,3.8,22,11,34.44,11.43a16.55,16.55,0,0,1,6.59,1.48c9.1,4.47,18.57,6.8,28.61,6.21a20.06,20.06,0,0,1,10.57,2.23c6.17,3.2,14.7.65,18.93,8.78.38.72,2.57.59,3.9.53,17.7-.78,35.3,1.65,53,1.74,14.14.07,27.59,5.67,41.27,9.27,6.38,1.67,8.41,8.66,15,10.4s13.58,5.49,18.24,10.58A132.34,132.34,0,0,0,560,882.76c2,1,3.59,2.15,5.59.89,5.06-3.16,9.07-.86,12.86,2.6a25.11,25.11,0,0,0,11.36,6,23.84,23.84,0,0,1,10.76,6c6.33,6.08,14.23,9.5,20.88,15.72,10.16,9.51,20,18.73,27.14,30.89,2.36,4,5.68,6.52,9.23,9.24,6.38,4.87,14.63,5.32,20.08,13.49,5,7.53,14.36,12.14,20.1,19.67,6.94,9.11,16.94,13,25.55,19.26,10.37,7.5,21.84,13.32,32.07,21,5.75,4.34,11.45,8.08,18.18,10.12.2,1.59,1.17,2.25,2.46,3,6.53,3.91,13.75,6.65,18.74,13.18,6.09,8,13.94,13.68,22.47,18.4,1,3.61,3.72,5,6.84,5.75l1.32,0c.12,1.82,1,2.78,2.76,2.84h0c-.1,4.9,2.19,7.29,6.8,7.23.45.49.9,1,1.36,1.45.19,2.31-.8,5.24,2.74,5.77.44,0,.89,0,1.33,0,1.47,5.74,4.36,10.31,9.57,13h0c3.1,5.27,5.19,11.39,10.93,14.42a4.55,4.55,0,0,1,2.67,4.37,2.89,2.89,0,0,0-.75,3.82c2.48,5.14,6.84,5.79,12.56,1.61,2.08-1.52,4.5-4.17,6.38-1.43,2.22,3.22-1.39,4.45-3.47,5.46-3.69,1.8-3.67,3.65-1.58,7.18,4.87,8.25,14.5,11.37,18.8,20.14.27.55,1.7.77,2.54.66,5.63-.75,8.49,2.75,11.45,7.18,4.91,7.34,12.83,6.5,16.59-1.69,2.08-4.55,5.35-6,9.34-5.08,5.2,1.25,9.81-.11,14.45-2,11-4.44,21.9-8.91,34-7.06,2.23.34,4.54,0,6.81.07,2.61.11,5-.27,6.77-2.55,2.25-3,5.25-3.29,8.57-3.29,7.71,0,15.52.51,23.1-.62a176.32,176.32,0,0,1,30.41-1.58c15.1.39,30.23,1.25,45.32.56,6.12-.28,14.07,1.44,18.12-3.26a133.74,133.74,0,0,1,13.51-13.43,6.86,6.86,0,0,0,2.45-5c.31-5.23,3.28-5.88,7.1-4.15,4.21,1.9,8.57,3.73,13.05,3.38,7.26-.56,16,1.4,18.65-9.67.6-2.46,3.4-2.84,5.54-3.7,6.14-2.45,12.66-.65,18.86-2,15.46-3.31,30.58-8,45.76-12.45,3.08-.9,5.51-1.75,5.68-5.84.19-4.62,3.94-5,7-5.17,6.94-.47,13.91-.44,20.86-.62,1.8-.05,3.74.21,4.65-2.06,1.85-4.67,6-5.12,9.7-5,16.27.38,32.42-2.65,48.7-1.61,2,.13,5.18.35,5.81-.75,4-7,10.34-4.79,15.93-4.91,12.68-.27,26,2.19,37.86-2,13.75-4.86,27.36-5.39,41.34-5.36a4.42,4.42,0,0,0,3.09-1.19c3.79-4.42,8.79-4.34,13.77-4.49,26.29-.81,52.64,1.67,78.91-1.36,1.71-.2,3.94-.07,5.21.93,3,2.34,5.33,1.1,8.2-.06,11-4.44,22.38-8.45,34.08-7.75,9.1.55,18.57-2.43,27.51,2.29,1.93,1,5,.27,7.35-.36,4.32-1.16,8.41-.66,12.74,0,6.21.93,13.16,2.53,18.43-2.1s11.15-6.26,17.32-8.59c17.47-6.63,35.54-8.85,53.74-10.2,6.19-.45,12.55-1.41,18.61-1s12.24,1,18.27.57c7.92-.63,15-5.22,23.83-3.52,3.94.76,9.4-2.29,14.43-2.1a5.78,5.78,0,0,0,4.34-1.74c3.61-3.49,8-4.09,12.68-4,17.68.27,35.29-2.34,53-1.57a21,21,0,0,0,9.22-2.08c8.9-4,18.45-4.63,27.77-6.45v350.77c-10,0-20,0-30,0-7.71,0-10.71-2.26-10.69-10.39,0-11.45-6.45-20.14-9.92-30.07-1.4-4-4.3-4.76-8.32-2.83-5.4,2.61-7.75,7.86-11,12.34-2.45,3.34-4.26,4.85-6.66-.44-1.82-4-5-7.35-7.67-10.87-1.34-1.74-3.05-3-5.36-1.85-5.12,2.51-10.13,6.36-10.82,12-1.49,12.33-7.46,23.83-5.92,36.68a6,6,0,0,1-2.92,6.08c-9.14,5.79-25.73-1.47-26.57-12.65-.73-9.67-4.76-18.57-4.55-28.26.08-3.62-1.84-4.73-4.75-4.33s-7-1.9-7.46,3.55c-.81,8.76-4.37,16.33-7.88,24.16-3,6.7-7.4,9.65-13.69,11.27-8.82,2.27-17.61.17-26.25-.47s-18,1.48-25.57-1.8c-10.59-4.56-21-5.35-31.9-5-16,.59-30,6.11-40.47,19.59-1,1.21-2,2.22-3.41,1.9-5.29-1.22-12.85,4.1-15.24-5.85-.15-.64-2-1.35-3-1.16-6.43,1.37-7.7-3.19-8.47-8.15-1.48-9.68-2.59-19.33-8.57-27.58-2.74-3.79-5.49-4.63-8.42-1.77-3.73,3.66-6.19,2.51-9.08-.86-3.5-4.07-7.24-7.76-8.44-13.58-.92-4.49-3.33-8-8.58-7.22-4.73.74-10.15,6.77-10.15,11.12,0,11,.06,21.94-.08,32.9-.08,5.8-4.86,10.83-9.9,10.51-2.91-.18-5.79-.94-8.7-1.27-3.43-.39-4.89-2-3.89-5.77,1.12-4.25,1.48-8.62-.56-12.65-4.49-8.9-8.37-18-10.5-27.91-.65-3-2.15-5.81-3.08-8.77-.71-2.25-1.69-4-4.2-3.86-3,.21-2.71,2.7-2.74,4.83,0,4.09,0,8.18,0,12.27-4,2.41-10-.72-12.64,3.54s-.47,9.87-1,14.84c-.87,7.87-4.73,14.44-9.07,20.56a6.76,6.76,0,0,1-8,2.53c-3.14-1.27-1.69-4.55-1.9-7s.09-4.82-.08-7.21c-.39-5.4-4.29-7.45-8.48-4.27-2.56,2-4,4.89-5.66,7.84-6.53,11.73-15.6,20.26-29.2,21-4,.23-6.77,1.35-8.92,5.13-3,5.3-7.42,6.93-12.7,3.43-2.48-1.65-4.61-.88-7.07,0-6.44,2.44-12.89,5.09-19.37,7-10.24,3.1-21.17,1.2-31.76,2-7.73.55-12-1.75-14.42-9.94-2.63-8.95-7.6-11.81-16.45-11.91-2.72,0-5.72.57-8.11-.42-11-4.59-22.35-3.06-33.4-1.31-13.34,2.11-26.86,1-40.19,4.29-9.18,2.27-18.27-1.46-27-6.08-4.79-2.54-9.67-3.77-11.27-10-2.23-8.7-5.2-17.26-5.41-26.38-.11-4.67-1.94-6.32-6.21-6.38-4.07-.06-6.69.75-6.18,5.87.3,3-1.16,4.43-3.69,6-6.82,4.31-12.39,9.84-11.29,19.53,1.21,10.62-6.38,16.26-12.56,21.57-6.42,5.51-17.28-2.38-17.36-12-.11-12.69-.35-25.16-6.43-36.84-1.65-3.19-2.92-4.3-5.89-4.08H1097c-6-.5-11.44-.61-11.7,8.34-.06,2-2.32,4-3.75,5.81-2.63,3.4-4.68,7-5,11.56-1.23,17.13-15.87,28.93-31.54,25.46a200.46,200.46,0,0,0-46.11-5.2c-49.06.6-98.12.22-147.18.21-12.37,0-20.39-10.51-18.08-23,.63-3.44,1.21-7.43-1.31-11.57a19.25,19.25,0,0,0-1.48,2.27c-4.81,11.4-7.51,12-15.91,2.83-3.64-4-7.58-7.26-8.93-13.8-1.24-6-10.29-.67-13.73-6.14-.48-.77-1.45-1.17-2.07-1.85a128.93,128.93,0,0,0-13.78-13.26A114.37,114.37,0,0,0,752.18,1293c-5.51-2.62-12-2.1-13.63-10.28-.2-1-2-2.24-3.17-2.36-5.29-.54-8.43-4.37-11.74-8s-6.35-6.87-11.46-6.9c-2.42,0-3.79-1.81-3.68-4.28.27-6.19-2.75-8.24-8.17-9a72.5,72.5,0,0,0-10.78-1c-5.67,0-11.48.8-15-5.76-1-1.8-3.23-1.45-5-1.46-4.09,0-8.24-.48-12.25.11-7.22,1.07-14,2.08-14.75-8.74a1.47,1.47,0,0,0-.91-1c-8.13-2.16-13.32-11-22.59-10.89-3.56,0-6.41-2.16-8.59-6-3-5.26-6.42-12.15-11.17-14-11.22-4.45-17.46-13.59-24.67-22.41-6.77-8.28-18.37-10.23-24.57-19.54-3.35-5-11.7-5.7-11.77-12.9-.07-8-3.89-11.2-9.77-14.58a31.88,31.88,0,0,0-17.48-4.16c-11.81.25-23.62,0-35.43.08-11.13,0-22.68-2.09-31.46,8.45-3.84,4.61-7.15,2-9.55-2.3-1.8-3.2-4.18-6.89-7.49-6.75-8,.36-10.9-9.87-18.73-9.11-.3,0-.79-.53-1-.93-2.24-4.65-6.51-6.43-10.57-8.54-1.61-.83-3.94-1.41-4.15-3.43-.89-8.54-7.25-9-13.09-10.75-4.75-1.43-10-3-8.5-10.43a2.65,2.65,0,0,0-1.18-3.08c-7.62-4.08-15-9.29-23-11.7a40.26,40.26,0,0,0-20.93-.24c-10,2.61-17.58-.66-24-7.54-3.65-3.9-9.12-1.14-12.16-5.35-7.71-10.71-17.65-19-27-28-2-1.91-4.2-4.1-5.06-6.64-1.61-4.7-5.21-4.91-8.75-6.57-10.78-5.08-25.11-1-32.72-14.23-4.66-8.08-10.24-15.55-8.42-26.19.86-5,1.09-11-4.67-13.76-4.95-2.35-10.31-3.69-11.81-10.51-.39-1.81-2.75-2.89-4.51-2.66-5.42.7-7.92-3.63-11.47-6.5-8-6.42-15.54-14-27.28-10.06-5.29,1.77-11.33-3.31-12.12-9.61-.46-3.71-2.26-5.25-4.93-7-8.27-5.32-17.31-2.35-26-3.17-3.1-.29-6.73,1.25-9.17-1.41-3.6-3.91-6-2.07-8.15,1.27-2.35,3.73-4.91,3.7-6.79.21-3-5.58-6.57-5.08-10.66-2-2,1.48-3.91,2.27-5-.47-3.05-7.47-7.62-3-11.84-2-4.92,1.14-8.16-7.28-13.71-2.83-6.53,5.23-13.92,6.37-21.88,5.86C11.69,911.68,5.54,912-.59,912Z" transform="translate(280.26)"/><path class="cls-5" d="M1908.21,1010.15c-9.32,1.82-18.87,2.43-27.77,6.45a21,21,0,0,1-9.22,2.08c-17.72-.77-35.33,1.84-53,1.57-4.65-.08-9.07.52-12.68,4a5.78,5.78,0,0,1-4.34,1.74c-5-.19-10.49,2.86-14.43,2.1-8.78-1.7-15.91,2.89-23.83,3.52-6,.48-12.18-.15-18.27-.57s-12.42.53-18.61,1c-18.2,1.35-36.27,3.57-53.74,10.2-6.17,2.33-12.07,4-17.32,8.59s-12.22,3-18.43,2.1c-4.33-.66-8.42-1.16-12.74,0-2.37.63-5.42,1.38-7.35.36-8.94-4.72-18.41-1.74-27.51-2.29-11.7-.7-23.1,3.31-34.08,7.75-2.87,1.16-5.24,2.4-8.2.06-1.27-1-3.5-1.13-5.21-.93-26.27,3-52.62.55-78.91,1.36-5,.15-10,.07-13.77,4.49a4.42,4.42,0,0,1-3.09,1.19c-14,0-27.59.5-41.34,5.36-11.9,4.21-25.18,1.75-37.86,2-5.59.12-11.91-2.12-15.93,4.91-.63,1.1-3.83.88-5.81.75-16.28-1-32.43,2-48.7,1.61-3.72-.09-7.85.36-9.7,5-.91,2.27-2.85,2-4.65,2.06-7,.18-13.92.15-20.86.62-3,.21-6.79.55-7,5.17-.17,4.09-2.6,4.94-5.68,5.84-15.18,4.44-30.3,9.14-45.76,12.45-6.2,1.32-12.72-.48-18.86,2-2.14.86-4.94,1.24-5.54,3.7-2.68,11.07-11.39,9.11-18.65,9.67-4.48.35-8.84-1.48-13.05-3.38-3.82-1.73-6.79-1.08-7.1,4.15a6.86,6.86,0,0,1-2.45,5,133.74,133.74,0,0,0-13.51,13.43c-4,4.7-12,3-18.12,3.26-15.09.69-30.22-.17-45.32-.56a176.32,176.32,0,0,0-30.41,1.58c-7.58,1.13-15.39.62-23.1.62-3.32,0-6.32.33-8.57,3.29-1.74,2.28-4.16,2.66-6.77,2.55-2.27-.09-4.58.27-6.81-.07-12.15-1.85-23.08,2.62-34,7.06-4.64,1.87-9.25,3.23-14.45,2-4-1-7.26.53-9.34,5.08-3.76,8.19-11.68,9-16.59,1.69-3-4.43-5.82-7.93-11.45-7.18-.84.11-2.27-.11-2.54-.66-4.3-8.77-13.93-11.89-18.8-20.14-2.09-3.53-2.11-5.38,1.58-7.18,2.08-1,5.69-2.24,3.47-5.46-1.88-2.74-4.3-.09-6.38,1.43-5.72,4.18-10.08,3.53-12.56-1.61a2.89,2.89,0,0,1,.75-3.82c1.94,2.72,4,2.85,7,1.45,11.78-5.42,23.33-11.14,33.5-19.66a54.68,54.68,0,0,1,11.32-7.42c9.38-4.49,17.57-11.07,25.72-17.37,10.13-7.83,20.32-15.66,30.77-22.93,13.34-9.28,26.18-19.23,37-31.43,9.73-11,19.87-21.72,28.09-34.31,3-4.57,3.86-10.36,7.37-13.93,9.82-10,12.86-25,23.69-34.22,7.89-6.73,11.39-17.43,18.4-25.07a353.24,353.24,0,0,1,26.24-26c9.66-8.53,19.21-17.23,31.14-21.56,12.48-4.54,24.29-10.9,36.76-15,5.43-1.79,9.6-6.45,15.11-6.68,11.51-.49,19.53-9.05,29.37-13.31a3.93,3.93,0,0,0,2.39-3.29c.33-3.22,1.74-3.87,4.65-3,3.64,1.12,5.15-.47,4.1-4.58a26.56,26.56,0,0,1-.32-5c6.62.87,14.12,5,17.67-5.38l2.06-1.3c.78,1.22,2.28,3,3.11,1.92,2.68-3.31,7.43-3.58,9.46-7.56s7.15-6.32,9.47-5.4c7.61,3,14.87,0,22.22.51.14.88.15,1.9,1.24,2.08.21,0,.74-.54.71-.76-.18-1.15-1.13-1.16-2-1.3,0-1.47,0-2.94,0-4.41,0-.86.06-1.73.1-2.6l1.4-1.63c6.49-1.16,9.56-6.88,13.53-11.39l1.33-1.69a2.07,2.07,0,0,0,2.74-1.42l2.09-.54,2,.65c.63,2.13.36,5.62,3.6,4.78,2.9-.75,3.36-3.5,2-6.39a19.16,19.16,0,0,1-.83-2.73l-.63-1.46,3.7-.88c.48,1.81,1.19,4.62,3.22,3,3.13-2.53,7.61-2.23,10-5.27s8.29-1.18,7.7-7.22l2.15-.32c2.77,3.12,6.25,2.12,9.5,1.6,2.14-.35,2.22-4,5.16-4,7.57,0,12.84-4.39,17.42-10.39,3-3.93,6.92-6.57,12.17-6.21,3.47.23,5.77-1,3.6-5.32.16-.81.31-1.63.47-2.45l2.29-.53c2.91,3,5.42,2.1,7.09-1.26,1.93-3.87,5.82-5.51,8.83-6,3.36-.5,5.78-2,8.31-3.68,8.33-5.49,16.34-11.58,24.89-16.64,5.75-3.41,12.27-7.75,18.35-7.58,8.12.22,16.13-1.09,24.21-.63,6.53.37,13.37,1.7,19.53.91,13.24-1.7,26.43,2,39.55-.77a11,11,0,0,1,6.66.83c12.12,5.25,24.58,8.74,37.85,7.73,9.38.76,17.76-7.61,27.55-3.39.34.15,1.08-.73,1.64-1.13,6.27-4.47,12.5-3.48,16.86,2.85,2.55,3.7,4.1,9.5,7.43,11,6.77,3,10,9.62,15.53,13.63,1.45,1.06,3.71,1.89,4.14,3.31,2.5,8.28,9.94,12.25,14.35,18.91,4.14,6.25,11.35,4.57,13.29-1.72,3.55-.05,7.11-.14,10.66-.12,2.89,0,5.39-.45,5.82-4.21l10.82-1.81c.84,2.62,5.82.54,5,4.52s-4.22,2.81-6.8,2.91c-7.2.27-13.86,4.29-21.32,3.12-2.3-.36-3.55,2.63-1.75,3.75,4.57,2.83,7.5,7.75,11.65,10.42,8,5.15,13.7,13.54,23.19,16.66,8.71,2.86,13.44,11.92,22.62,16,18.51,8.26,37,18,52.34,32.55,1.14,1.08,2.46,1,3.77,1.24a67.3,67.3,0,0,1,26.35,12.85c7.4,5.72,14.72,11,24.59,10.29,9.39-.69,18,4.66,27.3,4.85a5.26,5.26,0,0,1,3.93,2.51c2.21,4.77,5.53,4,9.14,2.69Zm-260-286.57a6.72,6.72,0,0,0-1.21,1.87c-.22.74.44,1.49,1.15,1.14a3.75,3.75,0,0,0,1.67-1.86C1650.11,724,1649.5,723.47,1648.23,723.58Z" transform="translate(280.26)"/><path class="cls-6" d="M-.59,912c6.13,0,12.28-.32,18.39.07,8,.51,15.35-.63,21.88-5.86,5.55-4.45,8.79,4,13.71,2.83,4.22-1,8.79-5.44,11.84,2,1.12,2.74,3.08,1.95,5,.47,4.09-3.12,7.65-3.62,10.66,2,1.88,3.49,4.44,3.52,6.79-.21,2.11-3.34,4.55-5.18,8.15-1.27,2.44,2.66,6.07,1.12,9.17,1.41,8.67.82,17.71-2.15,26,3.17,2.67,1.72,4.47,3.26,4.93,7,.79,6.3,6.83,11.38,12.12,9.61,11.74-3.94,19.31,3.64,27.28,10.06,3.55,2.87,6,7.2,11.47,6.5,1.76-.23,4.12.85,4.51,2.66,1.5,6.82,6.86,8.16,11.81,10.51,5.76,2.74,5.53,8.75,4.67,13.76-1.82,10.64,3.76,18.11,8.42,26.19,7.61,13.2,21.94,9.15,32.72,14.23,3.54,1.66,7.14,1.87,8.75,6.57.86,2.54,3.07,4.73,5.06,6.64,9.32,9,19.26,17.26,27,28,3,4.21,8.51,1.45,12.16,5.35,6.45,6.88,14.06,10.15,24,7.54a40.26,40.26,0,0,1,20.93.24c8.07,2.41,15.41,7.62,23,11.7a2.65,2.65,0,0,1,1.18,3.08c-1.51,7.41,3.75,9,8.5,10.43,5.84,1.76,12.2,2.21,13.09,10.75.21,2,2.54,2.6,4.15,3.43,4.06,2.11,8.33,3.89,10.57,8.54.19.4.68,1,1,.93,7.83-.76,10.77,9.47,18.73,9.11,3.31-.14,5.69,3.55,7.49,6.75,2.4,4.27,5.71,6.91,9.55,2.3,8.78-10.54,20.33-8.41,31.46-8.45,11.81,0,23.62.17,35.43-.08a31.88,31.88,0,0,1,17.48,4.16c5.88,3.38,9.7,6.63,9.77,14.58.07,7.2,8.42,7.87,11.77,12.9,6.2,9.31,17.8,11.26,24.57,19.54,7.21,8.82,13.45,18,24.67,22.41,4.75,1.89,8.15,8.78,11.17,14,2.18,3.81,5,6,8.59,6,9.27-.07,14.46,8.73,22.59,10.89a1.47,1.47,0,0,1,.91,1c.77,10.82,7.53,9.81,14.75,8.74,4-.59,8.16-.12,12.25-.11,1.81,0,4.07-.34,5,1.46,3.51,6.56,9.32,5.8,15,5.76a72.5,72.5,0,0,1,10.78,1c5.42.77,8.44,2.82,8.17,9-.11,2.47,1.26,4.27,3.68,4.28,5.11,0,8.27,3.4,11.46,6.9s6.45,7.45,11.74,8c1.15.12,3,1.35,3.17,2.36,1.61,8.18,8.12,7.66,13.63,10.28a114.37,114.37,0,0,1,24.21,14.87,128.93,128.93,0,0,1,13.78,13.26c.62.68,1.59,1.08,2.07,1.85,3.44,5.47,12.49.1,13.73,6.14,1.35,6.54,5.29,9.82,8.93,13.8,8.4,9.15,11.1,8.57,15.91-2.83a19.25,19.25,0,0,1,1.48-2.27c2.52,4.14,1.94,8.13,1.31,11.57-2.31,12.53,5.71,23,18.08,23,49.06,0,98.12.39,147.18-.21a200.46,200.46,0,0,1,46.11,5.2c15.67,3.47,30.31-8.33,31.54-25.46.33-4.54,2.38-8.16,5-11.56,1.43-1.84,3.69-3.83,3.75-5.81.26-8.95,5.74-8.84,11.7-8.34-.84,6.77-4.06,12.67-6.24,19-3.87,11.17-3.44,25.4-18,29.19-.39.1-.74.59-1,1-4.16,6.82-10.8,6.59-17.35,7.25-13.73,1.37-27.19-2.34-41-1.78-19.81.81-39.7-.64-59.49-.56-10.87,0-21.94-.22-32.94.51-12.81.84-25.76-.81-38.66-1.08-9.62-.21-19,4.35-28.82,1.41-9-2.72-18.39.81-27.44-1.48s-18-3.36-27.31-.23c-3.4,1.15-8.94,1.91-11-1.42-4.11-6.65-9.76-5.39-15.41-5.65-2.6-.13-4.77-1.58-6.66-3.34-4.55-4.21-9.84-4.4-15.37-3.41-7,1.26-9.26-.47-9.14-7.94.08-4.62-.86-7.86-4.66-11-5.45-4.48-10-10.21-14.88-15.45-1.94-2.08-2.88-6.27-6.73-4.46-3.28,1.55-3.81,5.11-3.79,8.62a153,153,0,0,1-1.16,17.88c-.57,5.25-2.78,7.46-7.14,9-7.15,2.54-14.43.93-21.62,1.53-5.17.43-7.18-2.49-6.84-7.35,1.07-15.6-10.11-22-19.87-28.85-5.16-3.65-8.53-1-8.77,5.75-.21,6.23-.26,12.4-1.26,18.61-.86,5.37-.18,10.71,6.29,12.49,2.6.72,3.54,3,2.86,5.67-.72,2.9-3.13,2.28-5.08,2.27-3.84,0-7.51-2.19-11.41-1.35-12.61,2.68-25.34.94-38,1.35-4.75.15-10,1.62-12.57-5.2-.89-2.39-4-1.55-6.16-2-9.23-2.12-16.74,5.19-25.59,5-8-.2-11.19,3.59-10.2,12.34.63,5.7-3.09,8.7-8.53,8.73-8.86,0-17.72,0-26.58,0-2.59,0-5.2-.4-6.68-2.79-3.35-5.41-8.24-5.94-13.72-5.92-37,.1-74-.06-111.07.16-5.94,0-8-2-7.87-8.32.24-12,0-12-11.57-12-1.59,0-3.18,0-4.77,0-3.2,0-5.46,1.25-5.29,5,.24,5-2.61,5.29-6.14,5.2-2,0-4.25-.11-6,.72-7.48,3.52-11.9-.64-15.86-6.49-2.81-4.15-6.69-7-10.58-9.93-1.79-1.33-3.5-1.81-4.56.43-2,4.18-5.42,3.68-8.82,3.67-8.86,0-17.72.1-26.57,0-4.41-.07-8.57-.2-11.22,4.64a5.4,5.4,0,0,1-5.33,2.6c-11.12-.7-22.08,2.1-33.23,1.56-10.4-.5-21-1.77-31.15-1-16.58,1.17-33.09.3-49.62.94-2.49.09-5.23.48-7.25-1.29-3.89-3.42-8.39-3.1-12.92-3-10.63.16-18.1-6-24.55-14-2.7-3.34-3.11-7.3-2.06-11.55,1.38-5.58,2.29-11-4.43-13.84-1.84-.76-1.47-2.78-1.54-4.42-.1-2.31-.55-4.49-3-5a109.77,109.77,0,0,0-11.39-1.7c-4.22-.37-7.14,1.48-7.37,6.36-.17,3.63-1.92,4.9-5.17,5.25-3,.32-16.37,16.46-16.54,19.53a7.69,7.69,0,0,0,.29,2.12c2.28,9.19-.29,12.87-9,12.88-2.73,0-5.45,0-8.18,0-9.32-.09-12.57-3.29-13.2-13-.55-8.38-7.56-18.76-13.63-20.2Z" transform="translate(280.26)"/><path class="cls-7" d="M-.59,1327.72c6.07,1.44,13.08,11.82,13.63,20.2.63,9.71,3.88,12.91,13.2,13,2.73,0,5.45,0,8.18,0,8.76,0,11.33-3.69,9-12.88a7.69,7.69,0,0,1-.29-2.12c.17-3.07,13.52-19.21,16.54-19.53,3.25-.35,5-1.62,5.17-5.25.23-4.88,3.15-6.73,7.37-6.36a109.77,109.77,0,0,1,11.39,1.7c2.47.48,2.92,2.66,3,5,.07,1.64-.3,3.66,1.54,4.42,6.72,2.79,5.81,8.26,4.43,13.84-1,4.25-.64,8.21,2.06,11.55,6.45,8,13.92,14.15,24.55,14,4.53-.07,9-.39,12.92,3,2,1.77,4.76,1.38,7.25,1.29,16.53-.64,33,.23,49.62-.94,10.17-.72,20.75.55,31.15,1,11.15.54,22.11-2.26,33.23-1.56a5.4,5.4,0,0,0,5.33-2.6c2.65-4.84,6.81-4.71,11.22-4.64,8.85.14,17.71,0,26.57,0,3.4,0,6.84.51,8.82-3.67,1.06-2.24,2.77-1.76,4.56-.43,3.89,2.89,7.77,5.78,10.58,9.93,4,5.85,8.38,10,15.86,6.49,1.77-.83,4-.77,6-.72,3.53.09,6.38-.21,6.14-5.2-.17-3.7,2.09-5,5.29-5,1.59,0,3.18,0,4.77,0,11.53,0,11.81,0,11.57,12-.13,6.31,1.93,8.36,7.87,8.32,37-.22,74.05-.06,111.07-.16,5.48,0,10.37.51,13.72,5.92,1.48,2.39,4.09,2.8,6.68,2.79,8.86,0,17.72,0,26.58,0,5.44,0,9.16-3,8.53-8.73-1-8.75,2.21-12.54,10.2-12.34,8.85.21,16.36-7.1,25.59-5,2.17.5,5.27-.34,6.16,2,2.54,6.82,7.82,5.35,12.57,5.2,12.67-.41,25.4,1.33,38-1.35,3.9-.84,7.57,1.32,11.41,1.35,2,0,4.36.63,5.08-2.27.68-2.71-.26-5-2.86-5.67-6.47-1.78-7.15-7.12-6.29-12.49,1-6.21,1-12.38,1.26-18.61.24-6.75,3.61-9.4,8.77-5.75,9.76,6.9,20.94,13.25,19.87,28.85-.34,4.86,1.67,7.78,6.84,7.35,7.19-.6,14.47,1,21.62-1.53,4.36-1.55,6.57-3.76,7.14-9a153,153,0,0,0,1.16-17.88c0-3.51.51-7.07,3.79-8.62,3.85-1.81,4.79,2.38,6.73,4.46,4.89,5.24,9.43,11,14.88,15.45,3.8,3.12,4.74,6.36,4.66,11-.12,7.47,2.1,9.2,9.14,7.94,5.53-1,10.82-.8,15.37,3.41,1.89,1.76,4.06,3.21,6.66,3.34,5.65.26,11.3-1,15.41,5.65,2.06,3.33,7.6,2.57,11,1.42,9.27-3.13,18.22-2.07,27.31.23s18.42-1.24,27.44,1.48c9.79,2.94,19.2-1.62,28.82-1.41,12.9.27,25.85,1.92,38.66,1.08,11-.73,22.07-.46,32.94-.51,19.79-.08,39.68,1.37,59.49.56,13.76-.56,27.22,3.15,41,1.78,6.55-.66,13.19-.43,17.35-7.25.24-.39.59-.88,1-1,14.58-3.79,14.15-18,18-29.19,2.18-6.28,5.4-12.18,6.24-19h4.09c.15,1.66-.24,3.7.52,4.93,5,8.11,5.37,17.11,5,26.31-.37,8.94,3.51,17.26,6.58,24.66,2.46,5.94,9.88,11.52,17.73,13.1,6.44,1.3,9.49-1,9.67-8a21.18,21.18,0,0,1,1.48-8.42c3.64-7.82,5-16.14,5.43-24.74.1-2.07.71-4.3,2.77-4.35,5-.11,6.86-3.86,8.83-7.69.83-1.61,1.32-4,3.65-3.61s3.29,2.32,3.7,4.61c1.6,9,6.63,16.77,7.31,26.14.32,4.49,8.55,8.5,12.43,6.36,4.38-2.42,8.22-1.12,11.42,1.4,3,2.41,6.08,2.52,9.48,2.74,14.75.93,29.38-1.88,44.1-1.5,5.68.14,11.16-1,16.75-2,6.95-1.19,15.4-4.8,20.19,5.52,1.39,3,4.61,2.64,7.27,1.09,5.85-3.4,9.86-.93,13.15,4.38,2.74,4.42,5.43,8.84,6.62,14.07q-43.15,0-86.31.06c-2.61,0-5.49-1-7.76,1.4l-414.5,0c-1.39-1.67-3.27-1.41-5.07-1.41q-103.82,0-207.64,0c-2.17,0-4.76-.64-5.44,2.76H577.51c-.69-3.4-3.29-2.75-5.46-2.75q-114.52,0-229,0c-2.17,0-4.77-.67-5.48,2.73H326.64c-1.34-4.45-4.9-2.68-7.5-2.68q-107.91-.15-215.81,0c-2.41,0-5-.84-7.11,1.39H86.66a30.88,30.88,0,0,0-20.44,0H-.59Z" transform="translate(280.26)"/><path class="cls-7" d="M1852.26,1411.6l-13.58-.25c-.46-.76-.86-2.13-1.39-2.19a117.68,117.68,0,0,0-25.86,0c-.53.06-.93,1.43-1.39,2.19h-2.71c-3.25-3.88-6.59-7-10.94-1.43h-8.14c-.86-3.76-3.77-2.75-6.06-2.75-15.3,0-30.6,0-45.9,0h-32.57a61.78,61.78,0,0,0-30-.06l-34.07-.1c-.66-3.39-3.22-2.79-5.4-2.79q-45.1,0-90.2.1l-28.45,0c-1.1-1.52-2.68-1.58-4.28-1.58h-56.82c-1.59,0-3.18,0-4.35,1.41l-10.93,0c-3.18-4.47-6.36-4.45-9.55,0h-24.53q-4.78-6.67-9.56,0h-10.88c-.22-1.11-.44-2.28-1.76-2.45-1.7-.23-2.11,1.06-2.37,2.46h-6.78c-.63-3.29-3.1-2.78-5.25-2.79-5.53,0-11.06,0-16.59,0-.47-4.34,1.28-5.87,5.43-5.88,6.76,0,14.19,2.26,20.17-.87,14.24-7.45,30.38-8.88,44.39-17.25,6.74-4,14.69-5.79,20.57-11.81,2.59-2.65,5.34-2.12,6,1.78.94,5.47,4,5,8,4.74,9.12-.49,15.8-6.61,23.51-10.36,2.87-1.39,2.85-3.94,2.84-6.65,0-10.07,0-20.15,0-30.22,0-4.09,0-8.18,0-12.27,0-2.13-.25-4.62,2.74-4.83,2.51-.16,3.49,1.61,4.2,3.86.93,3,2.43,5.76,3.08,8.77,2.13,9.9,6,19,10.5,27.91,2,4,1.68,8.4.56,12.65-1,3.79.46,5.38,3.89,5.77,2.91.33,5.79,1.09,8.7,1.27,5,.32,9.82-4.71,9.9-10.51.14-11,.09-21.93.08-32.9,0-4.35,5.42-10.38,10.15-11.12,5.25-.81,7.66,2.73,8.58,7.22,1.2,5.82,4.94,9.51,8.44,13.58,2.89,3.37,5.35,4.52,9.08.86,2.93-2.86,5.68-2,8.42,1.77,6,8.25,7.09,17.9,8.57,27.58.77,5,2,9.52,8.47,8.15.92-.19,2.8.52,3,1.16,2.39,10,9.95,4.63,15.24,5.85,1.39.32,2.46-.69,3.41-1.9,10.47-13.48,24.49-19,40.47-19.59,10.86-.4,21.31.39,31.9,5,7.62,3.28,17,1.16,25.57,1.8s17.43,2.74,26.25.47c6.29-1.62,10.69-4.57,13.69-11.27,3.51-7.83,7.07-15.4,7.88-24.16.5-5.45,4.68-3.18,7.46-3.55s4.83.71,4.75,4.33c-.21,9.69,3.82,18.59,4.55,28.26.84,11.18,17.43,18.44,26.57,12.65a6,6,0,0,0,2.92-6.08c-1.54-12.85,4.43-24.35,5.92-36.68.69-5.66,5.7-9.51,10.82-12,2.31-1.13,4,.11,5.36,1.85,2.69,3.52,5.85,6.86,7.67,10.87,2.4,5.29,4.21,3.78,6.66.44,3.29-4.48,5.64-9.73,11-12.34,4-1.93,6.92-1.19,8.32,2.83,3.47,9.93,9.94,18.62,9.92,30.07,0,8.13,3,10.37,10.69,10.39,10,0,20,0,30,0v50.52h-31.37c-.9-1.36-1.81-1.36-2.71,0Z" transform="translate(280.26)"/><path class="cls-8" d="M1908.21,874.47c-3.61,1.28-6.93,2.08-9.14-2.69a5.26,5.26,0,0,0-3.93-2.51c-9.35-.19-17.91-5.54-27.3-4.85-9.87.73-17.19-4.57-24.59-10.29a67.3,67.3,0,0,0-26.35-12.85c-1.31-.29-2.63-.16-3.77-1.24-15.34-14.6-33.83-24.29-52.34-32.55-9.18-4.1-13.91-13.16-22.62-16-9.49-3.12-15.19-11.51-23.19-16.66-4.15-2.67-7.08-7.59-11.65-10.42-1.8-1.12-.55-4.11,1.75-3.75,7.46,1.17,14.12-2.85,21.32-3.12,2.58-.1,6,1,6.8-2.91s-4.19-1.9-5-4.52a65.64,65.64,0,0,1,44.33-8c7.8,1.24,14.09,1.48,18-7,1,2.75-.52,6.16,1.72,8.91,5.53-9.82,10.86-13.15,22.18-13.82,6.51-.38,13.37,2.75,18.87-4.48,4.43-5.83,12.38-4.57,18.38-8,15.68-8.88,31.06-18.59,48.33-24,2.74-.86,5.09-3.11,8.24-2.56Z" transform="translate(280.26)"/><path class="cls-9" d="M1790.48,735.05c-3.89,8.48-10.18,8.24-18,7a65.64,65.64,0,0,0-44.33,8l-10.82,1.81c-2.29-.58-4.46.34-6.69.5-8.6.62-17.57,2.69-24.38-5.56l-1.4-1c-.18-1.77-.9-3.05-2.7-3.34l-2.56-2.48a4.1,4.1,0,0,0-3.14-4.25c-8.31-7.09-14.41-16.32-21.44-24.65l2.36.16c2.32,1.71,4.49,2.86,5.21-1.52l1.36-1.59c1.6.27,3.19.48,4.27-1.25,3.11-.62,4.35-4.94,8-4.53,5.57-1.91,12-3.87,14.55-9.29,3.59-7.52,7.38-7,12.7-3.21l3,4.12a41.7,41.7,0,0,0,19.65,14c1.74.6,3.53.84,4.87-1l2.51-.29c11.47-.86,22.94-1.91,34.37-3,4.89-.49,11,1.89,15.15-3.48l2.53,0c2.55,2,5.15,1.07,7.69,0,5.88-2.38,11.92-4.46,17.56-7.4,8.57-4.46,17.51-8.31,25.06-14.75l2.71-1.48c14.06-5.67,28.09-11.44,42.2-17,5.8-2.28,12.28-2.91,16.76-8.2l2.49-.67c2.75-2,5.48-.67,8.22.05v33.2c-3,.08-6.09-.27-8.34,2.52a6.45,6.45,0,0,0-5.4,3c-.91.49-1.82,1-2.72,1.48-8,4.3-17.19,5.68-24.56,11.45-2.1,0-3.94.55-4.86,2.84l-1.84.42a7.38,7.38,0,0,0-6.38,3.85l-8.62,3.34c-2.68.28-5.11,1-6.38,3.88-1.86-.5-3.26.4-4.53,1.68L1810,724.16l-2.62.55a2.9,2.9,0,0,0-3.7,2c-3.33-.35-6,1.28-8.61,3.16-2.59.29-3.94,1.89-4.28,4.55A.42.42,0,0,0,1790.48,735.05Z" transform="translate(280.26)"/><path class="cls-5" d="M1795,729.88c2.6-1.88,5.28-3.51,8.61-3.15,1.82.52,3.22.2,3.7-2l2.62-.55c8.21,3.58,19.39.94,24.63-5.81,1.27-1.28,2.67-2.18,4.53-1.68,3.23.74,5.88.4,6.38-3.88l8.62-3.33c3,.35,5.57-.14,6.38-3.86l1.84-.42c2.31.37,4.64.8,4.86-2.84,7.37-5.77,16.57-7.15,24.56-11.45,2.27,2.33,2.54.52,2.72-1.48a6.42,6.42,0,0,1,5.4-2.95c2.65,3.68,5.59-.56,8.34.35v4.33c-3.15-.55-5.5,1.7-8.24,2.56-17.27,5.41-32.65,15.12-48.33,24-6,3.4-14,2.14-18.38,8-5.5,7.23-12.36,4.1-18.87,4.48-11.32.67-16.65,4-22.18,13.82-2.24-2.75-.68-6.16-1.72-8.91-.12-.31,0-.52.25-.63C1793.52,734.33,1794.94,732.81,1795,729.88Z" transform="translate(280.26)"/><path class="cls-10" d="M-.59,1402.78H66.22c0,.51,0,1,0,1.53-7.12,3.41-14.4,5.36-22.27,3.42a13.66,13.66,0,0,0-6.05-.53c-12.86,2.88-25.67.13-38.5-.1Z" transform="translate(280.26)"/><path class="cls-8" d="M-.59,652.17c5.51-1,10.63-.16,15.09,3.67-.39,3.9-3.09,4.91-6.08,4.88a36.5,36.5,0,0,0-9,1.55Z" transform="translate(280.26)"/><path class="cls-10" d="M1876.84,1411.42l31.37,0v2.89c-8.32,0-16.64.05-25,0-2.19,0-4.55.63-6.4-1.33C1876.85,1412.47,1876.85,1412,1876.84,1411.42Z" transform="translate(280.26)"/><path class="cls-11" d="M3.48,1498.07l0,7.2c-8.13.69-2.41-5.94-4.09-8.66Z" transform="translate(280.26)"/><path class="cls-8" d="M1908.21,686.81c-2.75-.91-5.69,3.33-8.34-.35,2.25-2.8,5.35-2.45,8.34-2.53Z" transform="translate(280.26)"/><path class="cls-10" d="M1236.14,823.81a26.61,26.61,0,0,0,.32,5c1,4.11-.46,5.7-4.1,4.58-2.91-.89-4.32-.24-4.65,3a3.93,3.93,0,0,1-2.39,3.29c-9.84,4.26-17.86,12.82-29.37,13.31-5.51.23-9.68,4.89-15.11,6.68-12.47,4.11-24.28,10.47-36.76,15-11.93,4.33-21.48,13-31.14,21.56a353.24,353.24,0,0,0-26.24,26c-7,7.64-10.51,18.34-18.4,25.07-10.83,9.24-13.87,24.23-23.69,34.22-3.51,3.57-4.38,9.36-7.37,13.93-8.22,12.59-18.36,23.33-28.09,34.31-10.81,12.2-23.65,22.15-37,31.43-10.45,7.27-20.64,15.1-30.77,22.93-8.15,6.3-16.34,12.88-25.72,17.37a54.68,54.68,0,0,0-11.32,7.42c-10.17,8.52-21.72,14.24-33.5,19.66-3,1.4-5.1,1.27-7-1.45a4.55,4.55,0,0,0-2.67-4.37c-2.51-5.77-4-12.4-10.93-14.42h0c-.66-6.42-5.26-9.57-9.57-13-.44,0-.89,0-1.33,0-.22-2.29.69-5.19-2.74-5.77-.46-.48-.91-1-1.36-1.45-2.16-2.52-3.32-6.1-6.8-7.23h0a2.66,2.66,0,0,0-2.76-2.84l-1.32,0c-.66-4.09-3-5.86-6.84-5.75-8.53-4.72-16.38-10.43-22.47-18.4-5-6.53-12.21-9.27-18.74-13.18-1.29-.78-2.26-1.44-2.46-3-.91-4.81-4.78-5.73-8.3-7.32a36.19,36.19,0,0,1-15.94-14.24,121.73,121.73,0,0,0-12.82-17.62c-4.64-5.35-10.29-10.1-11.71-18.67-1.49-9-5.85-17.21-16.65-17.31-2.75,0-4.23-2.08-4.73-4.44-1.65-7.75-7.52-10.89-13.21-14.39-8.08-5-16.88-2.31-25.35-2.6-5.59-.19-9.46-2.69-10.92-7.81-2.12-7.43-7-12.14-12.31-16.63-2.69-2.3-5.45-4.18-5.92-8.26-.3-2.55-2.12-4-4.4-3.05-5.16,2.26-7.93-1-11.1-4.33-1.88-2-4.31-4.06-6.75-4.51-6.3-1.17-10.08-4.87-13.83-10.19-5.62-8-15.27-11-22.07-17.9-2.55-2.57-3.93-3.65-.45-6.28,4.1-3.1,2.14-5.5-1.18-7.48a22.22,22.22,0,0,1,9-7.28,175.64,175.64,0,0,0,42-27.22c4.08-3.6,8.41-5.62,14.18-5.46,10.35.3,20.64-.09,30.9-3.38,11-3.52,22.2-6.55,33.42-9.23,22.89-5.46,45.94-10.06,67.41-20.79,10.62-5.31,21.37-11.08,32.87-13.3a163.87,163.87,0,0,0,26.2-6.85c1,5.41,3.93,3.27,6.52,1.75,5.72-3.35,10.63-8,16.45-11.31,9.59-5.5,20-10,26.75-19.92,1.26-1.86,2.89-1.59,4-.1,2.53,3.5,5.07,10.13,6-.74.07-.78,1.67-1.38,2.53-2.11,5.36-4.56,12.39-4.13,18.37-5.16,8.62-1.48,15.39-7.16,21.83-11.1,6.16-3.78,13.56-.79,18.61-6.47.57-.64,7.48-3.95,9.84,3.62,1.37,4.42,7.09-4,11-.21.17.16.4.24.55.41,11.3,12.47,27,15.25,41.52,19.72,8.55,2.64,15.53,8.32,24,9.64.21,3.57-4.89,1.75-3.36,4.7,1.23,2.39,4.15,3.05,6.56,1.11,3.92-3.15,8.73-2.72,12.37-1.28a56.29,56.29,0,0,0,25.22,3.7c10.61-.77,19.42,4.13,28,9.3,9.19,5.56,19,9.73,28.47,14.51,11.71,5.9,23.62,11.41,35.16,17.74,10.28,5.63,20.41,11.59,30.68,17.24a4.23,4.23,0,0,0,5.62-1l12.31,7.14c-1.19.35-3.09-.28-3.26,1.57-.15,1.61,1.54,1.31,2.57,1.41s2.24,0,3.36,0l0,0c2.89,4.83,6.1,9.15,12.32,8.69Z" transform="translate(280.26)"/><path class="cls-8" d="M576.17,854.57c3.32,2,5.28,4.39,1.18,7.49-3.48,2.63-2.1,3.71.45,6.28,6.8,6.87,16.45,9.93,22.07,17.9,3.75,5.32,7.53,9,13.83,10.19,2.44.45,4.87,2.56,6.75,4.51,3.17,3.28,5.94,6.59,11.1,4.33,2.28-1,4.1.5,4.4,3.05.47,4.08,3.23,6,5.92,8.26,5.27,4.49,10.19,9.2,12.31,16.63,1.46,5.12,5.33,7.62,10.92,7.81,8.47.29,17.27-2.37,25.35,2.6,5.69,3.5,11.56,6.64,13.21,14.39.5,2.36,2,4.42,4.73,4.44,10.8.1,15.16,8.35,16.65,17.31,1.42,8.57,7.07,13.32,11.71,18.67a121.73,121.73,0,0,1,12.82,17.62,36.19,36.19,0,0,0,15.94,14.24c3.52,1.59,7.39,2.51,8.3,7.32-6.73-2-12.43-5.78-18.18-10.12-10.23-7.7-21.7-13.52-32.07-21C715,1000.25,705,996.32,698,987.21c-5.74-7.53-15.08-12.14-20.1-19.67-5.45-8.17-13.7-8.62-20.08-13.49-3.55-2.72-6.87-5.24-9.23-9.24-7.18-12.16-17-21.38-27.14-30.89-6.65-6.22-14.55-9.64-20.88-15.72a23.84,23.84,0,0,0-10.76-6,25.11,25.11,0,0,1-11.36-6c-3.79-3.46-7.8-5.76-12.86-2.6-2,1.26-3.61.09-5.59-.89A132.34,132.34,0,0,1,520.4,853c-4.66-5.09-11.68-8.84-18.24-10.58s-8.57-8.73-15-10.4c-13.68-3.6-27.13-9.2-41.27-9.27-17.7-.09-35.3-2.52-53-1.74-1.33.06-3.52.19-3.9-.53-4.23-8.13-12.76-5.58-18.93-8.78a20.06,20.06,0,0,0-10.57-2.23c-10,.59-19.51-1.74-28.61-6.21a16.55,16.55,0,0,0-6.59-1.48c-12.48-.47-23-7.63-34.44-11.43-2.19-.73-3.82-3.25-5.76-4.88-9.9-8.27-20.19-15.85-31.54-21.86a76.82,76.82,0,0,1-15.75-11.16c-6.6-6.05-13.74-9.28-22.4-11.35a126.62,126.62,0,0,1-32.88-12.85c-7.22-4.08-14-9.42-23.25-10.43-8.8-1-17.41-6.2-24.67-12.56-.85-.75-1.6-2.13-2.5-2.23-11.41-1.35-22-7.53-33.9-6.14A15.73,15.73,0,0,1,84.57,693c-9.89-8.48-22.2-8.38-33.92-10.62-9.56-1.83-19.14-4.29-26.45-11.95-1.77-1.86-3.81-2.32-6.14-2.53-2.18-.2-4.37-1.57-4.18-3.9.22-2.61,2.87-1.6,4.52-1.7,4.18-.26,8.64.06,8.18-6.59a7.52,7.52,0,0,1,6-2.55c5.12,4.66,10.11,2.94,14.69-.76,8.16-6.61,17.09-10.55,27.51-10.36,5.66.1,11.55.89,16.93-.47,4.66-1.18,7.24.26,9.94,3.44,1.81,2.13,3.59,4.3,5.48,6.35,2.69,2.9,5.62,2.84,9.39.93-2.35-2.41-6.64-.45-6.6-4.85a10.33,10.33,0,0,0,6,.1c4.66.77,9.22,2.37,14,1.83,3.55-.4,6.78.19,9,3.63a6.86,6.86,0,0,0,5.16,3.21c10.4.55,17.78,8.73,27.27,12.06,9.93,3.48,20.7,6.79,29.16,14.73,2.33,2.19,7.38,2.71,7.5-3.83l9.5.42c-1.09,6.92,1.61,9.57,8.18,8.77,2.69-.33,6.83-1.64,6.21,4.28-.1,1,1.53,1.63,2.08,1.13,6-5.38,9.69-.5,13.85,3.16a257.17,257.17,0,0,1,20.81,19.93c8.85,9.72,13.6,24,27.64,28.11a4.14,4.14,0,0,1,2.94,3.64c.22,2.36,0,5.52,3,5.51,3.85,0,1.91-4.08,3-6.14,4.72,3.81,9.88,4,15.4,2.42a21.54,21.54,0,0,1,6.06-.63c16.33.07,32.66.41,49,.25,5.63-.06,10.91.73,15.66,3.81,7.66,5,15.23,9.62,24.63,5,.89-.43,2.26.44,3.34.24,7.15-1.31,11.39,4.77,17,7.28,9.48,4.23,20.45,4.59,28.59,12.42a4.21,4.21,0,0,0,4.54.65c5.22-2.12,7.34.77,8.94,5.57,1.26,3.76,3,7.38,7.27,8.77,6.45,2.09,13.46,3.81,13.62,13.35a4.12,4.12,0,0,0,2,2.74c7.94,4.47,13,13,21.2,17,15.8,7.62,30.15,17.66,44.08,28.48.31.85.42,2.13,1,2.44.92.49,1.53-.54,1.89-1.46Z" transform="translate(280.26)"/><path class="cls-6" d="M1482.81,1324.82c0,10.07,0,20.15,0,30.22,0,2.71,0,5.26-2.84,6.65-7.71,3.75-14.39,9.87-23.51,10.36-4,.22-7,.73-8-4.74-.67-3.9-3.42-4.43-6-1.78-5.88,6-13.83,7.79-20.57,11.81-14,8.37-30.15,9.8-44.39,17.25-6,3.13-13.41.86-20.17.87-4.15,0-5.9,1.54-5.43,5.88-4.45,1.42-10-3-13.64,2.8h-5.42c-.63-3.25-3.08-2.75-5.22-2.77-4.17,0-8.35,0-12.52,0-1.19-5.23-3.88-9.65-6.62-14.07-3.29-5.31-7.3-7.78-13.15-4.38-2.66,1.55-5.88,1.9-7.27-1.09-4.79-10.32-13.24-6.71-20.19-5.52-5.59,1-11.07,2.11-16.75,2-14.72-.38-29.35,2.43-44.1,1.5-3.4-.22-6.43-.33-9.48-2.74-3.2-2.52-7-3.82-11.42-1.4-3.88,2.14-12.11-1.87-12.43-6.36-.68-9.37-5.71-17.18-7.31-26.14-.41-2.29-1.48-4.23-3.7-4.61s-2.82,2-3.65,3.61c-2,3.83-3.78,7.58-8.83,7.69-2.06,0-2.67,2.28-2.77,4.35-.39,8.6-1.79,16.92-5.43,24.74a21.18,21.18,0,0,0-1.48,8.42c-.18,7-3.23,9.28-9.67,8-7.85-1.58-15.27-7.16-17.73-13.1-3.07-7.4-7-15.72-6.58-24.66.39-9.2,0-18.2-5-26.31-.76-1.23-.37-3.27-.52-4.93,3-.22,4.24.89,5.89,4.08,6.08,11.68,6.32,24.15,6.43,36.84.08,9.6,10.94,17.49,17.36,12,6.18-5.31,13.77-11,12.56-21.57-1.1-9.69,4.47-15.22,11.29-19.53,2.53-1.59,4-3.07,3.69-6-.51-5.12,2.11-5.93,6.18-5.87,4.27.06,6.1,1.71,6.21,6.38.21,9.12,3.18,17.68,5.41,26.38,1.6,6.21,6.48,7.44,11.27,10,8.71,4.62,17.8,8.35,27,6.08,13.33-3.3,26.85-2.18,40.19-4.29,11-1.75,22.36-3.28,33.4,1.31,2.39,1,5.39.4,8.11.42,8.85.1,13.82,3,16.45,11.91,2.4,8.19,6.69,10.49,14.42,9.94,10.59-.76,21.52,1.14,31.76-2,6.48-2,12.93-4.61,19.37-7,2.46-.93,4.59-1.7,7.07,0,5.28,3.5,9.68,1.87,12.7-3.43,2.15-3.78,4.88-4.9,8.92-5.13,13.6-.77,22.67-9.3,29.2-21,1.65-3,3.1-5.89,5.66-7.84,4.19-3.18,8.09-1.13,8.48,4.27.17,2.39-.12,4.83.08,7.21s-1.24,5.73,1.9,7a6.76,6.76,0,0,0,8-2.53c4.34-6.12,8.2-12.69,9.07-20.56.56-5-1.59-10.67,1-14.84S1478.82,1327.23,1482.81,1324.82Z" transform="translate(280.26)"/><path class="cls-5" d="M850.21,1108.29c6.92,2,8.42,8.65,10.93,14.42C855.4,1119.68,853.31,1113.56,850.21,1108.29Z" transform="translate(280.26)"/><path class="cls-5" d="M840.64,1095.33c4.31,3.39,8.91,6.54,9.57,13C845,1105.64,842.11,1101.07,840.64,1095.33Z" transform="translate(280.26)"/><path class="cls-5" d="M828.41,1080.85c3.48,1.13,4.64,4.71,6.8,7.23C830.6,1088.14,828.31,1085.75,828.41,1080.85Z" transform="translate(280.26)"/><path class="cls-5" d="M817.48,1072.22c3.8-.11,6.18,1.66,6.84,5.75C821.2,1077.17,818.48,1075.83,817.48,1072.22Z" transform="translate(280.26)"/><path class="cls-5" d="M836.57,1089.53c3.43.58,2.52,3.48,2.74,5.77C835.77,1094.77,836.76,1091.84,836.57,1089.53Z" transform="translate(280.26)"/><path class="cls-5" d="M825.64,1078a2.66,2.66,0,0,1,2.76,2.84C826.67,1080.79,825.76,1079.83,825.64,1078Z" transform="translate(280.26)"/><path class="cls-7" d="M1600.08,712.78c-13.27,1-25.73-2.48-37.85-7.73a11,11,0,0,0-6.66-.83c-13.12,2.75-26.31-.93-39.55.77-6.16.79-13-.54-19.53-.91-8.08-.46-16.09.85-24.21.63-6.08-.17-12.6,4.17-18.35,7.58-8.55,5.06-16.56,11.15-24.89,16.64-2.53,1.67-5,3.18-8.31,3.68-3,.46-6.9,2.1-8.83,6-1.67,3.36-4.18,4.31-7.09,1.26.35-1.89,1.81-3.62.8-5.73.67-1.9,1.47-3.68,3.68-4,1.43,1.84,2.22.86,2.88-.73l8.89-3c1.69,1,2.73.37,3.37-1.41,8.34-5.29,16.48-11,25.07-15.78s16.84-10.39,27.19-10.26c24.93.3,49.86.15,74.78.58,5.74.1,11.81-1.46,17.26,2,.36,3.37,2.53,4,5.25,4.09,3.11.07,6.23.29,9.34.45,1,2.19,2.3,3.38,4.44,1.33l3-.91,1,1c1.8,4.34,5.52,1.68,8.26,2.56C1600.09,710.86,1600.09,711.82,1600.08,712.78Z" transform="translate(280.26)"/><path class="cls-6" d="M1600.08,712.78c0-1,0-1.92,0-2.88,3.06-.75,6.12-1.47,6.87-5.47l.21-.13a2.37,2.37,0,0,0,2.48-1.36,12.32,12.32,0,0,0,.48-1.19l9.12-.32c3,1.41,6,3.05,8.11-1.38l3.71-1.19c4.22,1.87,8.57-.11,12.83.49a1.45,1.45,0,0,0,.95.66,23.09,23.09,0,0,0,9.47,10.26,1.33,1.33,0,0,0,.72.85c7,8.33,13.13,17.56,21.44,24.65-.16,2.42.11,4.48,3.14,4.25.85.83,1.71,1.65,2.55,2.49-.32,2.23.43,3.47,2.71,3.33l1.39,1a6.93,6.93,0,0,0,4.55,8.53c3.07,1.14,6.68.64,10,.86-1.94,6.29-9.15,8-13.29,1.72-4.41-6.66-11.85-10.63-14.35-18.91-.43-1.42-2.69-2.25-4.14-3.31-5.53-4-8.76-10.62-15.53-13.63-3.33-1.49-4.88-7.29-7.43-11-4.36-6.33-10.59-7.32-16.86-2.85-.56.4-1.3,1.28-1.64,1.13C1617.84,705.17,1609.46,713.54,1600.08,712.78Z" transform="translate(280.26)"/><path class="cls-7" d="M1354.75,763.64l2.68-1.67,2.76.12c5.34.29,10.06-1.15,13.76-5.47,1.73-1.1,3.9-1.72,4.22-4.35l.13-.12c2.86.29,4.24-2.14,6.07-3.73,4.46-3.89,8.94-7.7,15.31-6.64a2.19,2.19,0,0,0,2.37,1c2.17,4.32-.13,5.55-3.6,5.32-5.25-.36-9.17,2.28-12.17,6.21-4.58,6-9.85,10.4-17.42,10.39-2.94,0-3,3.6-5.16,4-3.25.52-6.73,1.52-9.5-1.59C1354.39,766,1354.57,764.79,1354.75,763.64Z" transform="translate(280.26)"/><path class="cls-7" d="M1290.39,801.48l7.07-.31c.58,1.19,1.65,1,2.64,1.05,0,1.47,0,2.94,0,4.41l0,0c-7.35-.51-14.61,2.51-22.22-.51-2.32-.92-7.39,1.29-9.47,5.4s-6.78,4.25-9.46,7.56c-.83,1-2.33-.7-3.11-1.92l.78-1.82c4.75-1.28,7.69-5.39,9.9-9.16,3.35-5.71,7.52-6,12.73-4.95C1283,802,1286.64,803.47,1290.39,801.48Z" transform="translate(280.26)"/><path class="cls-8" d="M1700.87,756.23c-3.37-.22-7,.28-10-.86a6.93,6.93,0,0,1-4.55-8.53c6.82,8.25,15.79,6.18,24.39,5.56,2.23-.16,4.4-1.08,6.69-.5-.43,3.76-2.93,4.22-5.82,4.21C1708,756.09,1704.42,756.18,1700.87,756.23Z" transform="translate(280.26)"/><path class="cls-7" d="M1328.09,779.26a19.16,19.16,0,0,0,.83,2.73c1.36,2.89.9,5.64-2,6.39-3.24.84-3-2.65-3.6-4.78,1.44-.41,2.66-1,2.61-2.93Z" transform="translate(280.26)"/><path class="cls-6" d="M1648.23,723.58c1.27-.11,1.88.43,1.61,1.15a3.75,3.75,0,0,1-1.67,1.86c-.71.35-1.37-.4-1.15-1.14A6.72,6.72,0,0,1,1648.23,723.58Z" transform="translate(280.26)"/><path class="cls-7" d="M1300.11,806.63c.84.14,1.79.15,2,1.3,0,.22-.5.8-.71.76-1.09-.18-1.1-1.2-1.24-2.08Z" transform="translate(280.26)"/><path class="cls-10" d="M1639.62,1407l34.07.1.12,2.76q-45.42,0-90.85.06c-2.3,0-5.21,1-6.13-2.72Z" transform="translate(280.26)"/><path class="cls-4" d="M1639.62,1407l-62.79.2-32.65-.07c0-.94-.11-1.88-.16-2.82q45.11-.06,90.2-.1C1636.4,1404.25,1639,1403.65,1639.62,1407Z" transform="translate(280.26)"/><path class="cls-10" d="M1703.72,1407.2h32.57c0,1,.09,1.94.13,2.9-.78.42-1.57,1.19-2.36,1.19q-27.35.14-54.69,0c-1,0-2-.93-2.94-1.43,3.89-2.63,8.22-.8,12.31-1.34C1693.72,1407.9,1698.92,1410,1703.72,1407.2Z" transform="translate(280.26)"/><path class="cls-10" d="M1788.25,1409.91h8.14c2.31.45,5-.77,6.86,1.63-.57.36-1.14,1-1.72,1.06q-28.83.18-57.66.25a3.11,3.11,0,0,1-3.43-2.72Z" transform="translate(280.26)"/><path class="cls-4" d="M1788.25,1409.91l-47.81.23-4,0c0-1-.09-1.93-.13-2.9,15.3,0,30.6-.09,45.9,0C1784.48,1407.16,1787.39,1406.15,1788.25,1409.91Z" transform="translate(280.26)"/><path class="cls-4" d="M1703.72,1407.2c-4.8,2.81-10,.7-15,1.37-4.09.54-8.42-1.29-12.31,1.34h-2.62l-.12-2.76A61.78,61.78,0,0,1,1703.72,1407.2Z" transform="translate(280.26)"/><path class="cls-4" d="M1810,1411.34c.46-.76.86-2.13,1.39-2.19a117.68,117.68,0,0,1,25.86,0c.53.06.93,1.43,1.39,2.19Z" transform="translate(280.26)"/><path class="cls-10" d="M1852.26,1411.6l21.87-.17c0,.52,0,1,0,1.56C1866.74,1414.25,1859.27,1417,1852.26,1411.6Z" transform="translate(280.26)"/><path class="cls-4" d="M86.66,1402.78c-3.36,2.79-7.33.73-11,1.52l-9.48,0c0-.51,0-1,0-1.53A30.88,30.88,0,0,1,86.66,1402.78Z" transform="translate(280.26)"/><path class="cls-4" d="M1803.25,1411.55c-1.89-2.4-4.55-1.18-6.86-1.63,4.35-5.57,7.69-2.46,10.94,1.42Z" transform="translate(280.26)"/><path class="cls-4" d="M1874.12,1413c0-.52,0-1,0-1.56.9-1.36,1.81-1.36,2.71,0,0,.52,0,1,0,1.56Z" transform="translate(280.26)"/><path class="cls-4" d="M577.51,1404.12l-240,0c.71-3.4,3.31-2.73,5.48-2.73q114.53,0,229,0C574.22,1401.37,576.82,1400.72,577.51,1404.12Z" transform="translate(280.26)"/><path class="cls-4" d="M326.64,1404.11q-112.33,0-224.68.08c-2,0-4.14.47-5.74-1.42,2.06-2.23,4.7-1.39,7.11-1.39q107.89-.06,215.81,0C321.74,1401.43,325.3,1399.66,326.64,1404.11Z" transform="translate(280.26)"/><path class="cls-4" d="M806.55,1402.76c-1.59,1.9-3.74,1.42-5.74,1.42q-106.2,0-212.41,0c.68-3.4,3.27-2.76,5.44-2.76q103.81,0,207.64,0C803.28,1401.35,805.16,1401.09,806.55,1402.76Z" transform="translate(280.26)"/><path class="cls-4" d="M1332.86,1404.13q-53,0-106.08.06c-2,0-4.13.47-5.73-1.4,2.27-2.38,5.15-1.4,7.76-1.4q43.15-.11,86.31-.06c4.17,0,8.35,0,12.52,0C1329.78,1401.38,1332.23,1400.88,1332.86,1404.13Z" transform="translate(280.26)"/><path class="cls-4" d="M1515.57,1404.37c-1.44,1.52-3.3,1.3-5.08,1.3l-55.38,0c-1.78,0-3.64.25-5-1.45,1.17-1.42,2.76-1.41,4.35-1.41h56.82C1512.89,1402.79,1514.47,1402.85,1515.57,1404.37Z" transform="translate(280.26)"/><path class="cls-4" d="M1373.76,1404.15h-35.48c3.65-5.83,9.19-1.38,13.64-2.8,5.53,0,11.06,0,16.59,0C1370.66,1401.37,1373.13,1400.86,1373.76,1404.15Z" transform="translate(280.26)"/><path class="cls-4" d="M1439.19,1404.15h-9.55C1432.83,1399.7,1436,1399.68,1439.19,1404.15Z" transform="translate(280.26)"/><path class="cls-4" d="M1405.11,1404.14h-9.56Q1400.34,1397.47,1405.11,1404.14Z" transform="translate(280.26)"/><path class="cls-4" d="M1384.67,1404.13h-4.13c.26-1.4.67-2.69,2.37-2.46C1384.23,1401.85,1384.45,1403,1384.67,1404.13Z" transform="translate(280.26)"/><path class="cls-9" d="M555.68,733l5.48,0c5.24,6.16,11.32,6.29,16.83.36l2.22-.44c10.95-1,21.93-1.74,32.69-4.35l2.75,0c16,0,31.93-.36,46.92-7.71a18.28,18.28,0,0,1,9.87-1.5,97.22,97.22,0,0,0,15.53.53l2.75,0c6.07,2.32,12.11,4.75,18.24,6.91,2.55.9,5.29,1.41,7.69-.74,14-2.9,26.93-8.22,37.72-18.61,7.23-7,16-7.51,24.82-4.61,10.39,3.42,20.58,7.67,29.52,14.4,7.58,5.71,11.79,14.43,16.16,22.76a15.72,15.72,0,0,0,5.87,6.58c.32,2.71-1.12,6.18,1.71,7.88,3.09,1.86,5.47-1,7.83-2.62,9.87-6.93,19.56-14.2,31.16-17.71.28,1.77-.89,2.61-2.08,3.17-13.38,6.22-25.2,15.17-37.2,23.8a163.87,163.87,0,0,1-26.2,6.85c-11.5,2.22-22.25,8-32.87,13.3C751.62,792,728.57,796.55,705.68,802c-11.22,2.68-22.43,5.71-33.42,9.23-10.26,3.29-20.55,3.68-30.9,3.38-5.77-.16-10.1,1.86-14.18,5.46a175.64,175.64,0,0,1-42,27.22,22.22,22.22,0,0,0-9,7.28c-2.2.57-4.41,1.15-6.61,1.74l-2.89-1c-13.93-10.82-28.28-20.86-44.08-28.48-8.19-3.94-13.26-12.49-21.2-17a4.12,4.12,0,0,1-2-2.74c-.16-9.54-7.17-11.26-13.62-13.35-4.31-1.39-6-5-7.27-8.77-1.6-4.8-3.72-7.69-8.94-5.57a4.21,4.21,0,0,1-4.54-.65c-8.14-7.83-19.11-8.19-28.59-12.42-5.64-2.51-9.88-8.59-17-7.28-1.08.2-2.45-.67-3.34-.24-9.4,4.59-17-.06-24.63-5-4.75-3.08-10-3.87-15.66-3.81-16.33.16-32.66-.18-49-.25a21.54,21.54,0,0,0-6.06.63C315.16,752,310,751.8,305.28,748l-1.17-2.24-1.35-2.94c-.2-.91-.35-1.84-.6-2.73-1.28-4.42-1.57-10.39-8.11-4.1-1.93,1.85-4.72.61-4.89-3.09,2.33-1,5.6-.38,6.35-4.12,3.33-2.28,5.06-.1,6.31,2.74.86,2,2.56,4.18,3.83,2.18,5.34-8.37,13.78-5.11,20.55-5.9,14.84-1.73,29.9-1.85,43.52,7,5.25,3.43,11.39,3.47,17.21,2.06,7-1.7,13.16-.38,19.62,3,10.25,5.33,20.3,11.26,32.61,10.61,23.9-1.25,47.65-4.78,71.66-4.8,6.87,0,13.8-3.66,21-4.66,4.2-.58,8.07.18,12.09.46,1.74.12,3-1,3.71-2.66,1.65-1.63,4.52-1.52,5.42-4.23A2.87,2.87,0,0,0,555.68,733Z" transform="translate(280.26)"/><path class="cls-8" d="M1834.58,718.35c-5.24,6.75-16.42,9.39-24.63,5.81Z" transform="translate(280.26)"/><path class="cls-8" d="M1845.49,712.79c-.5,4.28-3.15,4.62-6.38,3.88C1840.38,713.81,1842.81,713.07,1845.49,712.79Z" transform="translate(280.26)"/><path class="cls-8" d="M1860.49,705.6c-.81,3.72-3.37,4.21-6.38,3.86A7.37,7.37,0,0,1,1860.49,705.6Z" transform="translate(280.26)"/><path class="cls-8" d="M1795,729.88c-.08,2.93-1.5,4.45-4.28,4.55C1791.08,731.77,1792.43,730.17,1795,729.88Z" transform="translate(280.26)"/><path class="cls-8" d="M1867.19,702.34c-.22,3.64-2.55,3.21-4.86,2.84C1863.25,702.89,1865.09,702.37,1867.19,702.34Z" transform="translate(280.26)"/><path class="cls-8" d="M1679.62,740c-3,.23-3.3-1.83-3.14-4.25A4.1,4.1,0,0,1,1679.62,740Z" transform="translate(280.26)"/><path class="cls-8" d="M1807.33,724.71c-.48,2.22-1.88,2.54-3.7,2A2.9,2.9,0,0,1,1807.33,724.71Z" transform="translate(280.26)"/><path class="cls-8" d="M1894.47,689.41c-.18,2-.45,3.81-2.72,1.48C1892.65,690.39,1893.56,689.9,1894.47,689.41Z" transform="translate(280.26)"/><path class="cls-8" d="M1684.88,745.84c-2.28.14-3-1.1-2.71-3.33C1684,742.79,1684.7,744.07,1684.88,745.84Z" transform="translate(280.26)"/><path class="cls-5" d="M116.17,644.76a2,2,0,0,0,.72-1c8.47-4.5,19.77-2.58,26.46,4.4.93,1,2.09,2.24,3.25,2.39,11.76,1.48,20.34,10.85,31.44,14,10.77,3,20,9.68,30,14.63-.12,6.53-5.17,6-7.5,3.82-8.46-7.94-19.23-11.25-29.16-14.73-9.49-3.33-16.87-11.51-27.27-12.06A6.86,6.86,0,0,1,139,653c-2.24-3.44-5.47-4-9-3.63-4.82.54-9.38-1.06-14-1.83C116,646.62,116.09,645.69,116.17,644.76Z" transform="translate(280.26)"/><path class="cls-5" d="M109.88,647.45c0,4.4,4.25,2.44,6.6,4.85-3.77,1.91-6.7,2-9.39-.93-1.89-2-3.67-4.22-5.48-6.35-2.7-3.18-5.28-4.62-9.94-3.44-5.38,1.36-11.27.57-16.93.47-10.42-.19-19.35,3.75-27.51,10.36-4.58,3.7-9.57,5.42-14.69.76a4.08,4.08,0,0,1,2.32-3.36C48,645.05,59.55,635.5,74.39,636.08a135.84,135.84,0,0,0,21.73-.61C105.1,634.36,106.88,641.45,109.88,647.45Z" transform="translate(280.26)"/><path class="cls-8" d="M832.16,761.07c12-8.63,23.82-17.58,37.2-23.8,1.19-.56,2.36-1.4,2.09-3.17,1.36-.31,1.33-1.56,1.57-2.62a2.28,2.28,0,0,0,1.89-2.68l1.39-1.21c2.83.3,4.55-2.61,7.2-2.81,4,1.34,7.89,1.85,10.4-2.93l4.64-1.17c6.46-.56,13-1,17.23-7.3l6.08-2.62c1.78.69,2.93.07,3.42-1.88l3.3-1.15c2.25.77,4.3,1.09,4.64-2.35a7,7,0,0,1,5.67-2.47c2.91,1.7,4.27-.27,5.48-2.6l4-.56a17.61,17.61,0,0,0,15-.08l2.62.58c1,3.16,2.39,5.15,5.56,2.26a11.56,11.56,0,0,1,6.75,3.28c.28,1.91.82,3.22,2.75,1.34l4.48,1.06c1.41,2.68,4.23,3.38,6.34,5.09,3.55,4.62,7.76,7.7,13.76,6.64l2.82-.3,3.95.57c.46.47.93.94,1.39,1.42,6.27,3.07,11.74,8.19,19.13,8.44a2.11,2.11,0,0,1,1.27.45c5,5,10.56,8.35,17.77,7l2.66.32c.61.65,1.24,1.88,1.83,1.86,9.76-.4,18.89,5,28.77,3.45,5.4-.86,10.34.61,14.89,3.67,16.62,11.19,36.05,16.1,52.85,27.27,12.19,8.11,26.24,13.12,39.63,19.11,3.22,1.44,5.25,5.79,9.58,4.48l2.45,2c.29,2.78,3.55,2.92,4.25,5.35a4.23,4.23,0,0,1-5.62,1c-10.27-5.65-20.4-11.61-30.68-17.24-11.54-6.33-23.45-11.84-35.16-17.74-9.47-4.78-19.28-9-28.47-14.51-8.55-5.17-17.36-10.07-28-9.3a56.29,56.29,0,0,1-25.22-3.7c-3.64-1.44-8.45-1.87-12.37,1.28-2.41,1.94-5.33,1.28-6.56-1.11-1.53-2.95,3.57-1.13,3.36-4.7-8.48-1.32-15.46-7-24-9.64-14.5-4.47-30.22-7.25-41.52-19.72-.15-.17-.38-.25-.55-.41-4-3.81-9.67,4.63-11,.21-2.36-7.57-9.27-4.26-9.84-3.62-5.05,5.68-12.45,2.69-18.61,6.47-6.44,3.94-13.21,9.62-21.83,11.1-6,1-13,.6-18.37,5.16-.86.73-2.46,1.33-2.53,2.11-1,10.87-3.49,4.24-6,.74-1.08-1.49-2.71-1.76-4,.1-6.72,9.92-17.16,14.42-26.75,19.92-5.82,3.34-10.73,8-16.45,11.31C836.09,764.34,833.17,766.48,832.16,761.07Z" transform="translate(280.26)"/><path class="cls-5" d="M1223.8,815.2c5.58.55,10.35,2.4,12.32,8.69C1229.9,824.35,1226.69,820,1223.8,815.2Z" transform="translate(280.26)"/><path class="cls-5" d="M1221.17,812.24a3,3,0,0,1,2.67,3c-1.12,0-2.25.08-3.36,0s-2.72.2-2.57-1.41C1218.08,812,1220,812.59,1221.17,812.24Z" transform="translate(280.26)"/><path class="cls-5" d="M285.49,727.51l3.67,5.39c.17,3.7,3,4.94,4.89,3.09,6.54-6.29,6.83-.32,8.11,4.1.25.89.4,1.82.59,2.73-.65.48-1.63.83-1.25,1.93.46,1.32,1.62,1,2.61,1l1.17,2.24c-1.06,2,.88,6.12-3,6.13-3,0-2.82-3.15-3-5.51a4.14,4.14,0,0,0-2.94-3.64c-14-4.08-18.79-18.39-27.64-28.11a257.17,257.17,0,0,0-20.81-19.93c-4.16-3.66-7.85-8.54-13.85-3.16-.55.5-2.18-.16-2.08-1.13.62-5.92-3.52-4.61-6.21-4.28-6.57.8-9.27-1.85-8.18-8.77,22.86-1.18,38.44,12,51.76,29.54,2.75,3.62,4.62,8.14,9.16,9.89l3.15,3.87C281.65,725.63,283.14,727,285.49,727.51Z" transform="translate(280.26)"/><path class="cls-10" d="M566.67,855.33l2.89,1c-.36.91-1,1.94-1.89,1.45C567.09,857.46,567,856.18,566.67,855.33Z" transform="translate(280.26)"/><path class="cls-10" d="M1607,704.43c-.75,4-3.81,4.72-6.87,5.47-2.74-.88-6.46,1.78-8.26-2.56l4.25-1.48c1.85,1.33,3.61.26,5.39-.25C1603.55,706.54,1605,704.09,1607,704.43Z" transform="translate(280.26)"/><path class="cls-10" d="M1568.73,701.42c4,1,8,2.41,12.16,1.27l3.35,2.16-.92,1.11c-3.11-.16-6.23-.38-9.34-.45C1571.26,705.45,1569.09,704.79,1568.73,701.42Z" transform="translate(280.26)"/><path class="cls-10" d="M1587.76,707.29c-2.14,2.05-3.42.86-4.44-1.33l.92-1.11,3.61.37Z" transform="translate(280.26)"/><path class="cls-10" d="M1619.25,701.43l-.09-1.79c2.72.36,5.53-1,8.2.41C1625.26,704.48,1622.24,702.84,1619.25,701.43Z" transform="translate(280.26)"/><path class="cls-10" d="M1607.17,704.3c.45-1.21,1.52-1.18,2.48-1.37A2.36,2.36,0,0,1,1607.17,704.3Z" transform="translate(280.26)"/><path class="cls-12" d="M1512.78,296.38c.16-.36.24-.92.48-1s.67.26,1,.42c-.15.36-.23.92-.48,1S1513.13,296.54,1512.78,296.38Z" transform="translate(280.26)"/><path class="cls-8" d="M304.11,745.76c-1,0-2.15.31-2.61-1-.38-1.1.6-1.45,1.25-1.93C303.21,743.8,303.66,744.78,304.11,745.76Z" transform="translate(280.26)"/><path class="cls-13" d="M883.5,724.78a14.52,14.52,0,0,1,10.4-2.93C891.39,726.63,887.55,726.12,883.5,724.78Z" transform="translate(280.26)"/><path class="cls-14" d="M873,731.48c-1.25-2.38.06-2.74,1.89-2.68A2.28,2.28,0,0,1,873,731.48Z" transform="translate(280.26)"/><path class="cls-3" d="M402.9,332.23a122.24,122.24,0,0,1-96.66,57.55c-2.43.15-4.89.22-7.36.22A122,122,0,0,1,246,378l-.38-.19a123,123,0,0,1-24.84-16c-2.86-2.37-5.62-4.87-8.25-7.49a122.6,122.6,0,0,1-29.66-47.5q-1.9-5.6-3.27-11.42a123.14,123.14,0,0,1-3.2-27.95c0-2.63.08-5.24.26-7.83,0-.47.05-1,.09-1.44a121.32,121.32,0,0,1,12.46-45.3c.29-.62.61-1.23.93-1.84A122.47,122.47,0,0,1,298.88,145c1.11,0,2.2,0,3.3.05A107.1,107.1,0,0,0,265.53,182a.47.47,0,0,1,0,.1,101.12,101.12,0,0,0-4.93,9.4c-.75,1.61-1.46,3.25-2.12,4.9q-.9,2.24-1.7,4.52A102.08,102.08,0,0,0,252.48,217c-.06.3-.11.6-.16.91q-.76,4.31-1.16,8.73c-.28,3.15-.43,6.34-.43,9.56A106.41,106.41,0,0,0,253.9,262c0,.14.06.27.1.41h0a106.22,106.22,0,0,0,33.13,53.84c.7.62,1.43,1.24,2.15,1.84a105.91,105.91,0,0,0,67.84,24.45c1.05,0,2.08,0,3.12-.05A105.85,105.85,0,0,0,402.9,332.23Z" transform="translate(280.26)"/><path class="cls-15" d="M249.92,366.75a8.56,8.56,0,0,1-2.65-.81c-1.53-1.11-2-.44-2.47,1l2.07,1.33c0,.14,0,.34-.09.43-4.26,4.33-4.32,4.43-9.62,1.3-30.17-17.82-48.92-43.22-55.84-76.36-.52-2.45-1.41-4.84-.46-7.71.44-1.32-.28-2.62,1.72-3.46.61-.25.9-2.18.61-3.15-1-3.35-2.74-6.54-3.42-9.93a23.73,23.73,0,0,1,.1-8.77c1.48-7.91,2.81-15.9,5.18-23.58a90.37,90.37,0,0,1,11.87-24.84,5.32,5.32,0,0,1,3.09-2l-1.26,2.43.46.51,3.16-2.61c1.13,1.08.67,4.69-1.33,9.08l2.84-.68c1.45,3-.2,7.7-3,8.86a1.55,1.55,0,0,1-.53.09c-3.47.2-3.58.32-3.21,4.6l1.5-2.5.61.12c-.45,2.8-.89,5.6-1.36,8.56h1.64l.35.57c-.91.6-1.87,1.14-2.72,1.81a2.86,2.86,0,0,0-1,1.41c-.06.24.63.7,1,1,.89.61,1.82,1.18,2.84,1.82l3.26-2.8c.61,1,1.09,1.81,1.68,2.78.93-1.47,3-2.59.64-4.52-.29-.24-.17-1.12,0-1.62a22.11,22.11,0,0,1,1.19-2.49L209,239.3c.54-.65.85-1.41,1.29-1.49a6.48,6.48,0,0,1,3.47,0,2.7,2.7,0,0,1,.62,2.66c-.92,1.72-.68,2.86.08,4.72.94,2.27.38,5.15.11,7.73,0,.27-2.49.3-4.51.51-.92.79-1.18,2.27.09,3.81,1.64,2,.58,3.54-.69,5.11s-2.45,2.88-3.59,4.38a9.64,9.64,0,0,0-.77,2.39l-5.2-6.89-4.1-1.81c.44,1.6,1,3.6,1.66,6l2.54-1.1c1.8.85,1.9,3.49,4.31,3.78a22.37,22.37,0,0,1,2.91.69,2.19,2.19,0,0,1,.88.31c2,1.74,7.12,11.66,7.56,14.84l-2.69-.17c0,2.11-.08,4.12,0,6.12,0,.63.52,1.22.68,1.85.26,1,.89,2.25.5,3-.52,1-1.84,1.7-2.82,2.53l-.62-.5-.15,2.44c-.7.14-1.7.66-2.14.38a41.64,41.64,0,0,1-4-3.27l0,3.69-5.15-3.46-.81.38c0,1.76-.46,3.66.11,5.24.5,1.4,2.14,2.44,3.28,3.64l.94-.22-2.93,4.1,3.69,1.47c-2.44.89-1.81,2.46-1.1,4.23.78,1.94,2.39,4,.07,5.87l1.83,2.67-3.1-.78-.35.86c1.25.38,2.68,1.31,3.68,1s1.45-1.9,2.32-3.18c1.75-.33,4.72,1.68,6.39,4.7,2.52,4.58,2.57,6.32.27,8.59,4.14,1.4.07,6,3.49,7.63-.9-2.73-1.87-5.55.34-8.6l.32,2.83.46-.49c.57.39,1.69.86,1.64,1.16-.78,4.58.81,7.66,5.79,8.8.37.09.65.52,1.26,1l-2.61.3a26.21,26.21,0,0,0,4.54,2.35c1.2.36,2.65,0,4,0a5.65,5.65,0,0,1,1.8.54c3.5,1.43,3.76,2.35,1,5.55,1.44,0,2.6.3,3.47-.06s1.56-1.36,2.7-1.75l-.94,2.31,4.23,2.35c-.41-1.83,1.37-2,2.11-1.32,1.2,1.1,2.8,2.28,2.47,4.4a15.56,15.56,0,0,0,.24,3.64Zm-63.6-86.47c1.65-1.7,1.82-5.07,5.43-3.1-1.29-1.81-3-3.21-4-5-1.07-1.93-1.47-4.19-2.41-7.07C183.14,270.69,184.71,275.28,186.32,280.28Zm6.63,6.23,2.05-5C191.5,281.16,191.2,281.81,193,286.51Zm8.13,45.18,1.06-.38c1.08-2.38-.12-3.85-2.18-5l-.81.29C199.79,328.32,200.44,330,201.08,331.69ZM187.34,255.6c1.91-3.09,1.91-3.09-2.34-5.71Z" transform="translate(280.26)"/><path class="cls-15" d="M249.85,366.77c1.21,1.9,1.87,4.61,5.43,3.18-.07.06.05,0,.05-.05.2-6.47,3.32-3.63,6.27-1.85.56.33,1.57,0,2.37-.08.53,4,2.19,5,7.27,5.3,2.83.15,5.92,0,7.87,2.28.61-.28,1.22-.82,1.71-.73,2.43.43,4.8,1.23,7.23,1.5a65.8,65.8,0,0,0,8.31.17,2,2,0,0,0,1.53-1.05,2.17,2.17,0,0,0-.59-1.69c-1.18-1.36-2.47-2.63-3.5-3.72,5.54-.22,9.95.75,12.7,2.93l-3.06.86.3,1,5.67-1.49c2.23,1.38,4.63,2.86,7,4.31,3-3.87,3-3.71,7.79-2.83,1.78.33,3.77-.35,5.39-.54l-2.7-3.09c1.56-.61,3.06-1.55,4.67-1.75a68.49,68.49,0,0,1,8,0L337,366.56,350,364c.2.32.41.64.62.95l-4.12,3.48,7,0c1.47-1.5,7.16-.76,8.4,1.83C337.32,384,311,389.23,282.82,385.47l-.07-.73,6.56.69.08-.9-8.75-.84-3-1.8-.42.44.77,1.18c-3.79,1.75-29.21-6-34.06-10.32.75-2.49,2.66-2.5,5-2.23l-1.59-1,2.58-3.2Zm5.86,5.92.16.69,3.91.34.25-.7-1.95-2.18Z" transform="translate(280.26)"/><path class="cls-15" d="M214.46,201.13l-3.07,3.28c-.76-.83-1.53-1.65-2.27-2.49-.37-.43-.68-.9-1.08-1.43,1.82-2.75,2-2.82,4.52-2.11l-1.86,2.32Z" transform="translate(280.26)"/><path class="cls-15" d="M249.91,367c1.9-1.52,2.93-2.35,4-3.17l1,.42-.79,4.39Z" transform="translate(280.26)"/><path class="cls-15" d="M206,210.81l.92.65c-1.69,1.32-3.29.37-3-1.77.1-.7.3-1.38.54-2.43l3,.71Z" transform="translate(280.26)"/><path class="cls-15" d="M244.53,170.12l7-3.12.52,1.05-7,3.12Z" transform="translate(280.26)"/><path class="cls-15" d="M320.36,373.19c3.78-2.4,3.78-2.4,5.19-.49Z" transform="translate(280.26)"/><polygon class="cls-3" points="1962.19 303.35 1962.19 307.84 1957.51 311.66 1962.19 311.66 1965.5 311.66 1962.19 303.35"/><polygon class="cls-3" points="1250.26 425.1 1250.26 432.07 1244.33 438 1250.26 438 1254.44 438 1250.26 425.1"/><polygon class="cls-3" points="1381.66 209.95 1381.66 215.14 1377.25 219.55 1381.66 219.55 1384.77 219.55 1381.66 209.95"/><polygon class="cls-3" points="1500.26 397.42 1500.26 403.68 1494.94 409 1500.26 409 1504.01 409 1500.26 397.42"/><polygon class="cls-3" points="1684.26 371.42 1684.26 377.68 1678.94 383 1684.26 383 1688.01 383 1684.26 371.42"/><polygon class="cls-3" points="968.26 504.1 968.26 511.07 962.33 517 968.26 517 972.44 517 968.26 504.1"/><polygon class="cls-3" points="1099.66 288.95 1099.66 294.14 1095.25 298.55 1099.66 298.55 1102.77 298.55 1099.66 288.95"/><polygon class="cls-3" points="1551.26 268.42 1551.26 274.68 1545.94 280 1551.26 280 1555.01 280 1551.26 268.42"/><path class="cls-16" d="M1157.93,1012.54c1.48,0,2.94,0,4.4.09,13.16-35.15,52.19-60.63,98.3-60.63,46.95,0,86.56,26.43,99,62.58a205.64,205.64,0,0,1,29-2c70.9,0,128.37,35.6,128.37,79.52,0,18.37-10,35.28-26.94,48.73L1512,1252l-77.51-85.65a197.76,197.76,0,0,1-40.52,5.16C1379.56,1207,1333.14,1233,1278.1,1233c-28.58,0-54.83-7-75.49-18.72a116.85,116.85,0,0,1-44.68,8.78c-61.63,0-111.6-47.13-111.6-105.27S1096.3,1012.54,1157.93,1012.54ZM1271.76,1125c-.8-1.1-1.57-2.2-2.29-3.32,0,1.19-.12,2.35-.2,3.52C1270.1,1125.13,1270.93,1125.07,1271.76,1125Z" transform="translate(280.26)"/><path class="cls-3" d="M1715,1381l-1,1,1,3-1,4-4,8h-4l-2.06,4.58c-3.69,17.48-13.25,30.94-30.37,38.8-20.1,9.22-40.68,15.57-63.2,13.15-2.06-.22-4.37.91-6.41,1.77-15.75,6.61-30.38,7-43-6.75-1.62-1.76-4.87-2-7.36-3-3.14-1.23-6.62-2-9.34-3.82-6.07-4.13-6.68-10.42-1.58-15.57a79.74,79.74,0,0,1,10.52-8.56c5.74-4.07,6.18-7.11.71-11.77-4.66-4-10.32-6.91-14.42-11.33-2.92-3.15-5.44-8-5.6-12.12-.5-12.75.23-25.54.51-39.92a19.44,19.44,0,0,0-3.16-1.31c-16.58-5.15-24.14-19.27-31.62-32.91-4.68-8.54-.8-17.38,3.59-25.25,8.11-14.55,17.2-28.33,31.81-37.46a5.85,5.85,0,0,0,2.09-4.94c-5.29-26,6-47,20.19-67a171.07,171.07,0,0,1,15.79-18.65c1.77-1.84,6.23-3.6,7.65-2.66,2.06,1.37,3.63,5.31,3.39,8-1.26,14.47-3.33,28.87-4.71,43.33-.56,5.87-.09,11.83-.09,17.75l1.76.26c4.46-5,8.36-10.7,13.54-14.78,5-3.92,11.17-6.34,17-9.09,10.85-5.11,21.76-10.1,32.76-14.89,2.68-1.17,5.8-1.35,8.72-2,.61,3.22,2.65,7,1.63,9.57-7.85,19.8-14.92,40.26-30.34,55.79-4.61,4.64-11.34,7.41-17.46,10.27-11.18,5.2-14.14,11.34-11.05,23.41,2.13,8.3,3.26,16.87,5.68,25.08.72,2.43,4.56,3.8,6.49,6.07,4.37,5.12,9.33,4.49,15.25,3.17,18.44-4.11,35.92-.22,51.61,9.58,14.3,8.93,18.27,24.27,20.78,39.77,1,6,.63,12.25,1.36,18.32a3.91,3.91,0,0,0,.22.88S1696,1374,1701,1373a41.84,41.84,0,0,1,7-1h2v1h1l3,3-1,1,2,3Z" transform="translate(280.26)"/><path class="cls-17" d="M1500.24,1292s6.74-.2,6.12,2.73-6.14,4.83-6.14,4.83S1498,1295.23,1500.24,1292Z" transform="translate(280.26)"/><path class="cls-17" d="M1579,1241s18-28,21-29,37-20,39-21,8-2,8-2l-1,2h1l-1,1,2,1-2,1,1,2s-9,17-10,20-19,24-19,24-15,9-19,9-11,6-11,6l1-3-2,2-1,2,1-5-3,3a7.74,7.74,0,0,1,1-3c1-2,2-3,0-1a6.19,6.19,0,0,1-4,2v-5Z" transform="translate(280.26)"/><ellipse cx="1535.5" cy="1276" rx="7" ry="5.5" transform="translate(-109.63 1804.03) rotate(-55.06)"/><path class="cls-3" d="M1118.85,1087.73V1074l-10.23-18.63h4.76l4.56,8.93c1.24,2.45,2.21,4.42,3.21,6.67h.1c.91-2.11,2-4.22,3.26-6.67l4.66-8.93h4.75L1123.07,1074v13.77Z" transform="translate(280.26)"/><path class="cls-3" d="M1154.85,1075.93c0,8.59-5.95,12.33-11.57,12.33-6.29,0-11.14-4.61-11.14-12,0-7.78,5.09-12.34,11.52-12.34C1150.34,1064,1154.85,1068.82,1154.85,1075.93Zm-18.43.24c0,5.08,2.92,8.92,7,8.92s7.06-3.79,7.06-9c0-3.94-2-8.93-7-8.93S1136.42,1071.75,1136.42,1076.17Z" transform="translate(280.26)"/><path class="cls-3" d="M1179.62,1081.4c0,2.4.05,4.51.19,6.33h-3.75l-.24-3.79h-.09a8.75,8.75,0,0,1-7.68,4.32c-3.65,0-8-2-8-10.17V1064.5h4.23v12.87c0,4.41,1.34,7.39,5.18,7.39a6.12,6.12,0,0,0,5.57-3.84,6.19,6.19,0,0,0,.38-2.16V1064.5h4.23Z" transform="translate(280.26)"/><path class="cls-3" d="M1196.8,1053.65H1201v14.5h.1a7.86,7.86,0,0,1,3-3,8.71,8.71,0,0,1,4.32-1.2c3.12,0,8.12,1.92,8.12,9.94v13.82h-4.23v-13.34c0-3.74-1.39-6.91-5.37-6.91a6.08,6.08,0,0,0-5.67,4.22,5.13,5.13,0,0,0-.29,2v14h-4.22Z" transform="translate(280.26)"/><path class="cls-3" d="M1236.3,1087.73l-.33-2.92h-.15a8.65,8.65,0,0,1-7.1,3.45c-4.71,0-7.11-3.31-7.11-6.67,0-5.62,5-8.69,14-8.64v-.48c0-1.92-.53-5.38-5.28-5.38a11.66,11.66,0,0,0-6,1.73l-1-2.78a14.43,14.43,0,0,1,7.64-2.07c7.1,0,8.83,4.85,8.83,9.51v8.69a33.5,33.5,0,0,0,.38,5.56Zm-.62-11.85c-4.61-.1-9.84.72-9.84,5.23a3.73,3.73,0,0,0,4,4,5.78,5.78,0,0,0,5.62-3.89,4.51,4.51,0,0,0,.24-1.34Z" transform="translate(280.26)"/><path class="cls-3" d="M1247.82,1064.5l4.56,13.06a59,59,0,0,1,1.87,6h.15c.53-1.92,1.2-3.84,2-6l4.51-13.06h4.42l-9.13,23.23h-4l-8.83-23.23Z" transform="translate(280.26)"/><path class="cls-3" d="M1271.15,1076.89c.1,5.71,3.74,8.06,8,8.06a15.3,15.3,0,0,0,6.43-1.2l.72,3a18.69,18.69,0,0,1-7.73,1.44c-7.15,0-11.42-4.7-11.42-11.71S1271.25,1064,1278,1064c7.59,0,9.61,6.68,9.61,11a15.54,15.54,0,0,1-.15,2Zm12.39-3c0-2.69-1.11-6.86-5.86-6.86-4.27,0-6.15,3.93-6.48,6.86Z" transform="translate(280.26)"/><path class="cls-3" d="M1292.85,1070.79c0-2.4,0-4.37-.2-6.29h3.75l.24,3.84h.09a8.57,8.57,0,0,1,7.69-4.37c3.21,0,8.2,1.92,8.2,9.89v13.87h-4.22v-13.39c0-3.74-1.39-6.86-5.38-6.86a6,6,0,0,0-5.66,4.32,6.15,6.15,0,0,0-.29,2v14h-4.22Z" transform="translate(280.26)"/><path class="cls-3" d="M1323.23,1054.85a55.52,55.52,0,0,1-4.51,11.38l-2.69.33a67.61,67.61,0,0,0,2.83-11.28Z" transform="translate(280.26)"/><path class="cls-3" d="M1332.4,1057.83v6.67h6v3.22h-6v12.53c0,2.88.81,4.51,3.17,4.51a9.46,9.46,0,0,0,2.44-.29l.2,3.17a10.33,10.33,0,0,1-3.75.57,5.86,5.86,0,0,1-4.56-1.77c-1.2-1.25-1.63-3.31-1.63-6v-12.67h-3.6v-3.22h3.6v-5.57Z" transform="translate(280.26)"/><path class="cls-3" d="M1353.81,1087.73v-20h-3.27v-3.22h3.27v-1.1c0-3.27.72-6.24,2.68-8.12a8.13,8.13,0,0,1,5.67-2.16,9.7,9.7,0,0,1,3.6.68l-.58,3.26a6.27,6.27,0,0,0-2.69-.53c-3.6,0-4.51,3.17-4.51,6.72v1.25h5.62v3.22H1358v20Z" transform="translate(280.26)"/><path class="cls-3" d="M1387.79,1075.93c0,8.59-6,12.33-11.57,12.33-6.29,0-11.13-4.61-11.13-12,0-7.78,5.08-12.34,11.52-12.34C1383.28,1064,1387.79,1068.82,1387.79,1075.93Zm-18.43.24c0,5.08,2.93,8.92,7.06,8.92s7-3.79,7-9c0-3.94-2-8.93-7-8.93S1369.36,1071.75,1369.36,1076.17Z" transform="translate(280.26)"/><path class="cls-3" d="M1393.12,1053.65h4.22v34.08h-4.22Z" transform="translate(280.26)"/><path class="cls-3" d="M1404.44,1053.65h4.23v34.08h-4.23Z" transform="translate(280.26)"/><path class="cls-3" d="M1436.8,1075.93c0,8.59-6,12.33-11.57,12.33-6.29,0-11.14-4.61-11.14-12,0-7.78,5.09-12.34,11.52-12.34C1432.29,1064,1436.8,1068.82,1436.8,1075.93Zm-18.43.24c0,5.08,2.92,8.92,7.05,8.92s7.06-3.79,7.06-9c0-3.94-2-8.93-7-8.93S1418.37,1071.75,1418.37,1076.17Z" transform="translate(280.26)"/><path class="cls-3" d="M1443.47,1064.5l3.07,11.81c.67,2.59,1.3,5,1.73,7.39h.14c.53-2.35,1.3-4.85,2.07-7.34l3.79-11.86h3.55l3.6,11.62c.87,2.78,1.54,5.23,2.07,7.58h.14a70.58,70.58,0,0,1,1.78-7.53l3.31-11.67h4.18l-7.49,23.23h-3.84l-3.56-11.08c-.81-2.6-1.48-4.9-2.06-7.64h-.1a66,66,0,0,1-2.11,7.68l-3.74,11h-3.84l-7-23.23Z" transform="translate(280.26)"/><path class="cls-3" d="M1124.37,1145.33l-.34-2.92h-.14a8.66,8.66,0,0,1-7.1,3.45c-4.71,0-7.11-3.31-7.11-6.67,0-5.62,5-8.69,14-8.64v-.48c0-1.92-.53-5.38-5.28-5.38a11.63,11.63,0,0,0-6,1.73l-1-2.78a14.39,14.39,0,0,1,7.63-2.07c7.11,0,8.84,4.85,8.84,9.51v8.69a32.45,32.45,0,0,0,.38,5.56Zm-.62-11.85c-4.61-.1-9.85.72-9.85,5.23a3.74,3.74,0,0,0,4,4,5.77,5.77,0,0,0,5.61-3.89,4.23,4.23,0,0,0,.25-1.34Z" transform="translate(280.26)"/><path class="cls-3" d="M1134.64,1128.39c0-2.4-.05-4.37-.19-6.29h3.74l.24,3.84h.1a8.54,8.54,0,0,1,7.68-4.37c3.22,0,8.21,1.92,8.21,9.89v13.87h-4.23v-13.39c0-3.74-1.39-6.86-5.37-6.86a6,6,0,0,0-5.67,4.32,6.15,6.15,0,0,0-.29,2v14h-4.22Z" transform="translate(280.26)"/><path class="cls-3" d="M1162.19,1122.1l5.09,13.73c.53,1.54,1.11,3.36,1.49,4.75h.1c.43-1.39.91-3.17,1.48-4.85l4.61-13.63h4.47l-6.34,16.56c-3,8-5.09,12-8,14.55a11.44,11.44,0,0,1-5.18,2.73l-1.06-3.55a11.15,11.15,0,0,0,3.7-2.06,12.84,12.84,0,0,0,3.55-4.71,3,3,0,0,0,.33-1,3.73,3.73,0,0,0-.28-1.1l-8.6-21.41Z" transform="translate(280.26)"/><path class="cls-3" d="M1203.81,1133.53c0,8.59-6,12.33-11.57,12.33-6.29,0-11.14-4.61-11.14-11.95,0-7.78,5.09-12.34,11.52-12.34C1199.3,1121.57,1203.81,1126.42,1203.81,1133.53Zm-18.43.24c0,5.08,2.92,8.92,7,8.92s7.06-3.79,7.06-9c0-3.94-2-8.93-7-8.93S1185.38,1129.35,1185.38,1133.77Z" transform="translate(280.26)"/><path class="cls-3" d="M1209.13,1128.39c0-2.4,0-4.37-.19-6.29h3.75l.24,3.84h.09a8.55,8.55,0,0,1,7.68-4.37c3.22,0,8.21,1.92,8.21,9.89v13.87h-4.22v-13.39c0-3.74-1.39-6.86-5.38-6.86a6,6,0,0,0-5.66,4.32,6.15,6.15,0,0,0-.29,2v14h-4.23Z" transform="translate(280.26)"/><path class="cls-3" d="M1238.13,1134.49c.09,5.71,3.74,8.06,8,8.06a15.3,15.3,0,0,0,6.43-1.2l.72,3a18.89,18.89,0,0,1-7.73,1.43c-7.15,0-11.42-4.7-11.42-11.71s4.12-12.53,10.89-12.53c7.59,0,9.6,6.68,9.6,11a15.93,15.93,0,0,1-.14,2Zm12.38-3c0-2.69-1.1-6.86-5.85-6.86-4.28,0-6.15,3.93-6.48,6.86Z" transform="translate(280.26)"/><path class="cls-3" d="M1271.53,1122.1l5.09,13.73c.53,1.54,1.11,3.36,1.49,4.75h.1c.43-1.39.91-3.17,1.49-4.85l4.6-13.63h4.47l-6.34,16.56c-3,8-5.09,12-8,14.55a11.44,11.44,0,0,1-5.18,2.73l-1.06-3.55a11.15,11.15,0,0,0,3.7-2.06,12.84,12.84,0,0,0,3.55-4.71,3.1,3.1,0,0,0,.34-1,3.84,3.84,0,0,0-.29-1.1l-8.59-21.41Z" transform="translate(280.26)"/><path class="cls-3" d="M1294.48,1134.49c.09,5.71,3.74,8.06,8,8.06a15.3,15.3,0,0,0,6.43-1.2l.72,3a18.89,18.89,0,0,1-7.73,1.43c-7.15,0-11.42-4.7-11.42-11.71s4.12-12.53,10.89-12.53c7.59,0,9.6,6.68,9.6,11a15.93,15.93,0,0,1-.14,2Zm12.38-3c.05-2.69-1.1-6.86-5.85-6.86-4.28,0-6.15,3.93-6.48,6.86Z" transform="translate(280.26)"/><path class="cls-3" d="M1321.26,1115.43v6.67h6v3.22h-6v12.53c0,2.88.82,4.51,3.17,4.51a9.55,9.55,0,0,0,2.45-.29l.19,3.17a10.27,10.27,0,0,1-3.74.57,5.84,5.84,0,0,1-4.56-1.77c-1.2-1.25-1.64-3.31-1.64-6v-12.67h-3.6v-3.22h3.6v-5.57Z" transform="translate(280.26)"/><path class="cls-3" d="M1330.91,1142.84a2.84,2.84,0,0,1,2.88-3,3,3,0,1,1-2.88,3Z" transform="translate(280.26)"/><path class="cls-8" d="M-162.79,699.81c-2.75-.91-5.69,3.33-8.34-.35,2.25-2.8,5.35-2.45,8.34-2.53Z" transform="translate(280.26)"/><path class="cls-4" d="M-196.88,1426c0-.52,0-1,0-1.56.9-1.36,1.81-1.36,2.71,0,0,.52,0,1,0,1.56Z" transform="translate(280.26)"/><path class="cls-8" d="M-225.51,725.79c-.5,4.28-3.15,4.62-6.38,3.88C-230.62,726.81-228.19,726.07-225.51,725.79Z" transform="translate(280.26)"/><path class="cls-8" d="M-210.51,718.6c-.81,3.72-3.37,4.21-6.38,3.86A7.37,7.37,0,0,1-210.51,718.6Z" transform="translate(280.26)"/><path class="cls-8" d="M-276,742.88c-.08,2.93-1.5,4.45-4.28,4.55C-279.92,744.77-278.57,743.17-276,742.88Z" transform="translate(280.26)"/><path class="cls-8" d="M-263.67,737.71c-.48,2.22-1.88,2.54-3.7,2A2.9,2.9,0,0,1-263.67,737.71Z" transform="translate(280.26)"/><path class="cls-8" d="M-176.53,702.41c-.18,2-.45,3.81-2.72,1.48C-178.35,703.39-177.44,702.9-176.53,702.41Z" transform="translate(280.26)"/><path class="cls-18" d="M995.4,1813.14a1.5,1.5,0,0,0,0-3,1.5,1.5,0,0,0,0,3Z" transform="translate(280.26)"/></svg>