<svg id="Layer_1" data-name="Layer 1" xmlns="http://www.w3.org/2000/svg" xmlns:xlink="http://www.w3.org/1999/xlink" viewBox="0 0 95.68 77.96"><defs><style>.cls-1{fill:url(#linear-gradient);}.cls-2{fill:url(#linear-gradient-2);}.cls-3{fill:url(#linear-gradient-3);}.cls-4{fill:url(#linear-gradient-4);}</style><linearGradient id="linear-gradient" x1="497.21" y1="831.78" x2="510.2" y2="831.78" gradientUnits="userSpaceOnUse"><stop offset="0" stop-color="aqua"/><stop offset="0.14" stop-color="#00fbfb"/><stop offset="0.26" stop-color="#00f0f0"/><stop offset="0.39" stop-color="#0dd"/><stop offset="0.51" stop-color="#00c3c3"/><stop offset="0.63" stop-color="#00a1a1"/><stop offset="0.75" stop-color="#077"/><stop offset="0.86" stop-color="#004545"/><stop offset="0.98" stop-color="#000d0d"/><stop offset="1"/></linearGradient><linearGradient id="linear-gradient-2" x1="465.38" y1="792.96" x2="542.68" y2="792.96" xlink:href="#linear-gradient"/><linearGradient id="linear-gradient-3" x1="479.16" y1="809.6" x2="528.9" y2="809.6" xlink:href="#linear-gradient"/><linearGradient id="linear-gradient-4" x1="455.86" y1="775.38" x2="551.54" y2="775.38" xlink:href="#linear-gradient"/></defs><title>online status</title><path class="cls-1" d="M503.7,825.28a6.5,6.5,0,1,0,6.5,6.5A6.5,6.5,0,0,0,503.7,825.28Z" transform="translate(-455.86 -760.32)"/><path class="cls-2" d="M467.28,795a6.5,6.5,0,0,0,9.19,9.19,39,39,0,0,1,55.12,0,6.5,6.5,0,0,0,9.19-9.19A52,52,0,0,0,467.28,795Z" transform="translate(-455.86 -760.32)"/><path class="cls-3" d="M481.06,808.81a6.5,6.5,0,1,0,9.19,9.19,19.49,19.49,0,0,1,27.56,0,6.5,6.5,0,0,0,9.19-9.19A32.5,32.5,0,0,0,481.06,808.81Z" transform="translate(-455.86 -760.32)"/><path class="cls-4" d="M549.64,779.35a65,65,0,0,0-91.88,0,6.49,6.49,0,1,0,9.19,9.18,52,52,0,0,1,73.5,0,6.49,6.49,0,1,0,9.19-9.18Z" transform="translate(-455.86 -760.32)"/></svg>